{"glyphs":{"0":{"ha":806,"x_min":0,"x_max":0,"o":"m 403 -14 b 742 486 615 -14 742 172 b 403 986 742 800 615 986 b 64 486 190 986 64 800 b 403 -14 64 172 190 -14 z m 215 351 b 206 486 208 392 206 438 b 403 857 206 722 276 857 b 560 735 474 857 528 815 z m 403 115 b 246 238 332 115 279 157 l 590 621 b 600 486 597 581 600 536 b 403 115 600 250 529 115 z "},"1":{"ha":806,"x_min":0,"x_max":0,"o":"m 99 0 l 735 0 l 735 129 l 494 129 l 494 972 l 358 972 l 99 810 l 99 664 l 347 818 l 347 129 l 99 129 z "},"2":{"ha":806,"x_min":0,"x_max":0,"o":"m 101 0 l 725 0 l 725 129 l 268 129 b 447 339 292 189 346 251 b 692 715 619 486 692 594 b 390 986 692 875 567 986 b 81 731 214 986 83 876 l 224 731 b 386 857 231 803 299 857 b 543 708 479 857 543 797 b 344 428 543 628 489 551 b 101 63 168 278 101 176 z "},"3":{"ha":806,"x_min":0,"x_max":0,"o":"m 236 731 b 389 858 239 806 304 858 b 549 714 481 858 549 797 b 397 579 549 636 488 579 l 318 579 l 318 444 l 406 444 b 583 282 510 444 583 378 b 400 115 583 185 508 115 b 218 256 299 115 222 175 l 76 256 b 397 -14 76 101 213 -14 b 725 279 588 -14 725 110 b 551 518 725 396 661 481 l 551 524 b 689 726 639 560 689 631 b 389 986 689 876 564 986 b 96 731 218 986 96 881 z "},"4":{"ha":806,"x_min":0,"x_max":0,"o":"m 42 219 l 471 219 l 471 0 l 613 0 l 613 219 l 779 219 l 779 350 l 613 350 l 613 972 l 410 972 l 42 361 z m 465 842 l 471 842 l 471 350 l 172 350 z "},"5":{"ha":806,"x_min":0,"x_max":0,"o":"m 229 256 l 89 256 b 401 -14 100 97 229 -14 b 731 313 593 -14 731 122 b 442 624 731 492 608 624 b 278 567 376 624 319 603 l 272 568 l 303 843 l 682 843 l 682 972 l 176 972 l 119 442 l 253 415 b 406 501 281 469 339 501 b 583 310 510 501 583 422 b 401 115 583 196 508 115 b 229 256 311 115 240 172 z "},"6":{"ha":806,"x_min":0,"x_max":0,"o":"m 429 857 b 590 731 508 857 571 808 l 726 731 b 428 986 710 881 589 986 b 63 474 203 986 63 781 b 418 -14 63 171 197 -14 b 743 311 606 -14 743 121 b 444 624 743 492 617 624 b 211 507 346 624 263 581 l 204 507 b 429 857 214 722 299 857 z m 238 306 b 424 500 238 415 318 500 b 601 310 525 500 601 419 b 419 115 601 197 524 115 b 238 306 314 115 238 197 z "},"7":{"ha":806,"x_min":0,"x_max":0,"o":"m 265 0 l 413 0 b 718 853 417 326 507 579 l 718 972 l 67 972 l 67 842 l 561 842 b 265 0 360 579 265 313 z "},"8":{"ha":806,"x_min":0,"x_max":0,"o":"m 403 -14 b 732 271 589 -14 732 111 b 560 514 732 382 665 472 l 560 521 b 697 731 644 561 697 638 b 403 986 697 875 571 986 b 108 731 235 986 108 875 b 247 521 108 636 163 561 l 247 515 b 74 271 143 472 74 382 b 403 -14 74 111 217 -14 z m 403 857 b 556 718 489 857 556 797 b 403 576 556 636 490 576 b 250 718 315 576 250 636 b 403 857 250 797 317 857 z m 403 447 b 585 282 507 447 585 376 b 403 115 585 186 507 115 b 222 282 300 115 222 186 b 403 447 222 376 299 447 z "},"9":{"ha":806,"x_min":0,"x_max":0,"o":"m 376 115 b 215 242 297 115 235 164 l 79 242 b 378 -14 97 92 217 -14 b 744 499 603 -14 744 192 b 388 986 744 801 608 986 b 64 661 200 986 64 851 b 361 349 64 481 189 349 b 594 465 460 349 543 392 l 601 465 b 376 115 592 250 507 115 z m 568 667 b 382 472 568 557 488 472 b 206 663 281 472 206 553 b 386 857 206 775 282 857 b 568 667 492 857 568 775 z "},"\u0000":{"ha":806,"x_min":0,"x_max":0,"o":""},"\r":{"ha":806,"x_min":0,"x_max":0,"o":""}," ":{"ha":806,"x_min":0,"x_max":0,"o":""},"A":{"ha":806,"x_min":0,"x_max":0,"o":"m 165 0 l 239 257 l 564 257 l 638 0 l 785 0 l 504 972 l 301 972 l 21 0 z m 275 388 l 399 822 l 404 822 l 528 388 z "},"Æ":{"ha":806,"x_min":0,"x_max":0,"o":"m -14 0 l 128 0 l 208 281 l 375 281 l 375 0 l 788 0 l 788 131 l 518 131 l 518 439 l 740 439 l 740 569 l 518 569 l 518 842 l 788 842 l 788 972 l 263 972 z m 243 411 l 368 843 l 375 843 l 375 411 z "},"Ǽ":{"ha":806,"x_min":0,"x_max":0,"o":"m -14 0 l 128 0 l 208 281 l 375 281 l 375 0 l 788 0 l 788 131 l 518 131 l 518 439 l 740 439 l 740 569 l 518 569 l 518 842 l 788 842 l 788 972 l 263 972 z m 243 411 l 368 843 l 375 843 l 375 411 z m 715 1360 l 533 1360 l 425 1092 l 546 1092 z "},"Á":{"ha":806,"x_min":0,"x_max":0,"o":"m 165 0 l 239 257 l 564 257 l 638 0 l 785 0 l 504 972 l 301 972 l 21 0 z m 275 388 l 399 822 l 404 822 l 528 388 z m 603 1360 l 421 1360 l 313 1092 l 433 1092 z "},"Ă":{"ha":806,"x_min":0,"x_max":0,"o":"m 165 0 l 239 257 l 564 257 l 638 0 l 785 0 l 504 972 l 301 972 l 21 0 z m 275 388 l 399 822 l 404 822 l 528 388 z m 319 1289 l 204 1289 b 403 1085 204 1169 288 1085 b 601 1289 518 1085 601 1169 l 488 1289 b 403 1192 482 1231 449 1192 b 319 1289 357 1192 325 1229 z "},"Â":{"ha":806,"x_min":0,"x_max":0,"o":"m 165 0 l 239 257 l 564 257 l 638 0 l 785 0 l 504 972 l 301 972 l 21 0 z m 275 388 l 399 822 l 404 822 l 528 388 z m 175 1081 l 292 1081 l 403 1224 l 515 1081 l 631 1081 l 472 1342 l 333 1342 z "},"Ä":{"ha":806,"x_min":0,"x_max":0,"o":"m 165 0 l 239 257 l 564 257 l 638 0 l 785 0 l 504 972 l 301 972 l 21 0 z m 275 388 l 399 822 l 404 822 l 528 388 z m 149 1204 b 254 1099 149 1146 196 1099 b 360 1204 314 1099 360 1146 b 254 1310 360 1264 314 1310 b 149 1204 196 1310 149 1264 z m 446 1204 b 551 1099 446 1146 493 1099 b 657 1204 611 1099 657 1146 b 551 1310 657 1264 611 1310 b 446 1204 493 1310 446 1264 z "},"À":{"ha":806,"x_min":0,"x_max":0,"o":"m 165 0 l 239 257 l 564 257 l 638 0 l 785 0 l 504 972 l 301 972 l 21 0 z m 275 388 l 399 822 l 404 822 l 528 388 z m 493 1092 l 385 1360 l 203 1360 l 372 1092 z "},"Α":{"ha":806,"x_min":0,"x_max":0,"o":"m 165 0 l 239 257 l 564 257 l 638 0 l 785 0 l 504 972 l 301 972 l 21 0 z m 275 388 l 399 822 l 404 822 l 528 388 z "},"Ά":{"ha":806,"x_min":0,"x_max":0,"o":"m 165 0 l 239 257 l 564 257 l 638 0 l 785 0 l 504 972 l 301 972 l 21 0 z m 275 388 l 399 822 l 404 822 l 528 388 z m 267 1079 l 100 1079 l 57 786 l 165 786 z "},"Ā":{"ha":806,"x_min":0,"x_max":0,"o":"m 165 0 l 239 257 l 564 257 l 638 0 l 785 0 l 504 972 l 301 972 l 21 0 z m 275 388 l 399 822 l 404 822 l 528 388 z m 185 1132 l 621 1132 l 621 1250 l 185 1250 z "},"Ą":{"ha":806,"x_min":0,"x_max":0,"o":"m 165 0 l 239 257 l 564 257 l 625 43 b 469 -137 522 0 469 -62 b 646 -285 469 -225 542 -285 b 704 -278 668 -285 689 -282 l 704 -178 b 671 -182 694 -181 681 -182 b 590 -114 624 -182 590 -156 b 707 0 590 -69 628 -32 l 785 0 l 504 972 l 301 972 l 21 0 z m 275 388 l 399 822 l 404 822 l 528 388 z "},"Å":{"ha":806,"x_min":0,"x_max":0,"o":"m 165 0 l 239 257 l 564 257 l 638 0 l 785 0 l 504 972 l 301 972 l 21 0 z m 275 388 l 399 822 l 404 822 l 528 388 z m 229 1235 b 404 1063 229 1138 307 1063 b 576 1233 500 1063 576 1138 b 403 1400 576 1329 501 1400 b 229 1235 304 1400 229 1329 z m 403 1154 b 328 1232 360 1154 328 1188 b 403 1308 328 1275 360 1308 b 478 1232 446 1308 478 1275 b 403 1154 478 1188 446 1154 z "},"Ǻ":{"ha":806,"x_min":0,"x_max":0,"o":"m 165 0 l 239 257 l 564 257 l 638 0 l 785 0 l 517 926 b 576 1056 553 958 576 1004 b 479 1207 576 1124 538 1181 l 603 1401 l 421 1401 l 346 1214 b 229 1056 276 1192 229 1132 b 289 926 229 1004 253 958 l 21 0 z m 275 388 l 399 822 l 404 822 l 528 388 z m 403 976 b 328 1054 360 976 328 1010 b 403 1131 328 1097 360 1131 b 478 1054 446 1131 478 1097 b 403 976 478 1010 446 976 z "},"Ã":{"ha":806,"x_min":0,"x_max":0,"o":"m 165 0 l 239 257 l 564 257 l 638 0 l 785 0 l 504 972 l 301 972 l 21 0 z m 275 388 l 399 822 l 404 822 l 528 388 z m 153 1126 l 274 1126 l 274 1156 b 308 1231 275 1207 288 1231 b 500 1107 354 1231 371 1107 b 653 1279 594 1107 653 1174 l 653 1322 l 533 1322 l 532 1293 b 500 1218 531 1242 521 1218 b 306 1342 453 1218 435 1342 b 153 1169 211 1342 153 1276 z "},"B":{"ha":806,"x_min":0,"x_max":0,"o":"m 107 0 l 454 0 b 742 274 621 0 742 115 b 593 507 742 382 683 467 l 593 513 b 710 718 665 553 710 628 b 439 972 710 865 596 972 l 107 972 z m 256 569 l 256 842 l 442 842 b 567 707 517 842 567 788 b 442 569 567 626 515 569 z m 256 131 l 256 439 l 457 439 b 593 285 538 439 593 375 b 457 131 593 193 538 131 z "},"Β":{"ha":806,"x_min":0,"x_max":0,"o":"m 107 0 l 454 0 b 742 274 621 0 742 115 b 593 507 742 382 683 467 l 593 513 b 710 718 665 553 710 628 b 439 972 710 865 596 972 l 107 972 z m 256 569 l 256 842 l 442 842 b 567 707 517 842 567 788 b 442 569 567 626 515 569 z m 256 131 l 256 439 l 457 439 b 593 285 538 439 593 375 b 457 131 593 193 538 131 z "},"C":{"ha":806,"x_min":0,"x_max":0,"o":"m 611 256 b 442 121 596 175 528 121 b 211 485 301 121 211 264 b 440 851 211 707 300 851 b 603 731 519 851 585 804 l 746 731 b 438 986 722 881 596 986 b 64 486 217 986 64 782 b 439 -14 64 190 217 -14 b 754 256 604 -14 735 99 z "},"Ć":{"ha":806,"x_min":0,"x_max":0,"o":"m 611 256 b 442 121 596 175 528 121 b 211 485 301 121 211 264 b 440 851 211 707 300 851 b 603 731 519 851 585 804 l 746 731 b 438 986 722 881 596 986 b 64 486 217 986 64 782 b 439 -14 64 190 217 -14 b 754 256 604 -14 735 99 z m 629 1360 l 447 1360 l 339 1092 l 460 1092 z "},"Č":{"ha":806,"x_min":0,"x_max":0,"o":"m 611 256 b 442 121 596 175 528 121 b 211 485 301 121 211 264 b 440 851 211 707 300 851 b 603 731 519 851 585 804 l 746 731 b 438 986 722 881 596 986 b 64 486 217 986 64 782 b 439 -14 64 190 217 -14 b 754 256 604 -14 735 99 z m 360 1081 l 499 1081 l 657 1342 l 542 1342 l 429 1200 l 318 1342 l 201 1342 z "},"Ç":{"ha":806,"x_min":0,"x_max":0,"o":"m 382 -225 l 272 -225 b 456 -379 275 -314 353 -379 b 639 -218 560 -379 639 -310 b 464 -74 639 -126 560 -60 l 474 -12 b 754 256 622 3 736 110 l 611 256 b 442 121 596 175 528 121 b 211 485 301 121 211 264 b 440 851 211 707 300 851 b 603 731 519 851 585 804 l 746 731 b 438 986 722 881 596 986 b 64 486 217 986 64 782 b 358 -4 64 228 181 39 l 332 -149 l 407 -169 b 457 -153 419 -158 438 -153 b 529 -219 499 -153 529 -181 b 457 -286 529 -258 500 -286 b 382 -225 417 -286 386 -261 z "},"Ĉ":{"ha":806,"x_min":0,"x_max":0,"o":"m 611 256 b 442 121 596 175 528 121 b 211 485 301 121 211 264 b 440 851 211 707 300 851 b 603 731 519 851 585 804 l 746 731 b 438 986 722 881 596 986 b 64 486 217 986 64 782 b 439 -14 64 190 217 -14 b 754 256 604 -14 735 99 z m 201 1081 l 318 1081 l 429 1224 l 542 1081 l 657 1081 l 499 1342 l 360 1342 z "},"Ċ":{"ha":806,"x_min":0,"x_max":0,"o":"m 611 256 b 442 121 596 175 528 121 b 211 485 301 121 211 264 b 440 851 211 707 300 851 b 603 731 519 851 585 804 l 746 731 b 438 986 722 881 596 986 b 64 486 217 986 64 782 b 439 -14 64 190 217 -14 b 754 256 604 -14 735 99 z m 315 1204 b 429 1090 315 1142 367 1090 b 543 1204 493 1090 543 1142 b 429 1319 543 1269 493 1319 b 315 1204 367 1319 315 1269 z "},"Χ":{"ha":806,"x_min":0,"x_max":0,"o":"m -3 0 l 160 0 l 401 385 l 643 0 l 808 0 l 492 508 l 783 972 l 621 972 l 403 628 l 185 972 l 19 972 l 314 506 z "},"D":{"ha":806,"x_min":0,"x_max":0,"o":"m 93 0 l 374 0 b 772 486 610 0 772 197 b 374 972 772 775 610 972 l 93 972 z m 240 131 l 240 842 l 374 842 b 624 486 526 842 624 703 b 374 131 624 269 526 131 z "},"Ď":{"ha":806,"x_min":0,"x_max":0,"o":"m 93 0 l 374 0 b 772 486 610 0 772 197 b 374 972 772 775 610 972 l 93 972 z m 240 131 l 240 842 l 374 842 b 624 486 526 842 624 703 b 374 131 624 269 526 131 z m 333 1081 l 472 1081 l 631 1342 l 515 1342 l 403 1200 l 292 1342 l 175 1342 z "},"Đ":{"ha":806,"x_min":0,"x_max":0,"o":"m 93 0 l 374 0 b 772 486 610 0 772 197 b 374 972 772 775 610 972 l 93 972 l 93 546 l 14 546 l 14 426 l 93 426 z m 240 131 l 240 426 l 431 426 l 431 546 l 240 546 l 240 842 l 374 842 b 624 486 526 842 624 703 b 374 131 624 269 526 131 z "},"Δ":{"ha":806,"x_min":0,"x_max":0,"o":"m 21 0 l 785 0 l 504 972 l 301 972 z m 200 131 l 399 822 l 404 822 l 603 131 z "},"E":{"ha":806,"x_min":0,"x_max":0,"o":"m 138 0 l 719 0 l 719 131 l 285 131 l 285 439 l 663 439 l 663 569 l 285 569 l 285 842 l 719 842 l 719 972 l 138 972 z "},"É":{"ha":806,"x_min":0,"x_max":0,"o":"m 138 0 l 719 0 l 719 131 l 285 131 l 285 439 l 663 439 l 663 569 l 285 569 l 285 842 l 719 842 l 719 972 l 138 972 z m 632 1360 l 450 1360 l 342 1092 l 463 1092 z "},"Ĕ":{"ha":806,"x_min":0,"x_max":0,"o":"m 138 0 l 719 0 l 719 131 l 285 131 l 285 439 l 663 439 l 663 569 l 285 569 l 285 842 l 719 842 l 719 972 l 138 972 z m 349 1289 l 233 1289 b 432 1085 233 1169 317 1085 b 631 1289 547 1085 631 1169 l 517 1289 b 432 1192 511 1231 478 1192 b 349 1289 386 1192 354 1229 z "},"Ě":{"ha":806,"x_min":0,"x_max":0,"o":"m 138 0 l 719 0 l 719 131 l 285 131 l 285 439 l 663 439 l 663 569 l 285 569 l 285 842 l 719 842 l 719 972 l 138 972 z m 363 1081 l 501 1081 l 660 1342 l 544 1342 l 432 1200 l 321 1342 l 204 1342 z "},"Ê":{"ha":806,"x_min":0,"x_max":0,"o":"m 138 0 l 719 0 l 719 131 l 285 131 l 285 439 l 663 439 l 663 569 l 285 569 l 285 842 l 719 842 l 719 972 l 138 972 z m 204 1081 l 321 1081 l 432 1224 l 544 1081 l 660 1081 l 501 1342 l 363 1342 z "},"Ë":{"ha":806,"x_min":0,"x_max":0,"o":"m 138 0 l 719 0 l 719 131 l 285 131 l 285 439 l 663 439 l 663 569 l 285 569 l 285 842 l 719 842 l 719 972 l 138 972 z m 178 1204 b 283 1099 178 1146 225 1099 b 389 1204 343 1099 389 1146 b 283 1310 389 1264 343 1310 b 178 1204 225 1310 178 1264 z m 475 1204 b 581 1099 475 1146 522 1099 b 686 1204 640 1099 686 1146 b 581 1310 686 1264 640 1310 b 475 1204 522 1310 475 1264 z "},"Ė":{"ha":806,"x_min":0,"x_max":0,"o":"m 138 0 l 719 0 l 719 131 l 285 131 l 285 439 l 663 439 l 663 569 l 285 569 l 285 842 l 719 842 l 719 972 l 138 972 z m 318 1204 b 432 1090 318 1142 369 1090 b 546 1204 496 1090 546 1142 b 432 1319 546 1269 496 1319 b 318 1204 369 1319 318 1269 z "},"È":{"ha":806,"x_min":0,"x_max":0,"o":"m 138 0 l 719 0 l 719 131 l 285 131 l 285 439 l 663 439 l 663 569 l 285 569 l 285 842 l 719 842 l 719 972 l 138 972 z m 522 1092 l 414 1360 l 232 1360 l 401 1092 z "},"Ē":{"ha":806,"x_min":0,"x_max":0,"o":"m 138 0 l 719 0 l 719 131 l 285 131 l 285 439 l 663 439 l 663 569 l 285 569 l 285 842 l 719 842 l 719 972 l 138 972 z m 214 1132 l 650 1132 l 650 1250 l 214 1250 z "},"Ŋ":{"ha":806,"x_min":0,"x_max":0,"o":"m 603 217 l 597 217 l 286 972 l 68 972 l 68 0 l 204 0 l 204 825 l 210 825 l 546 0 l 596 0 l 596 -18 b 456 -172 596 -93 575 -172 b 331 -143 406 -172 364 -158 l 331 -261 b 479 -292 363 -276 410 -292 b 738 -18 694 -292 738 -150 l 738 972 l 603 972 z "},"Ę":{"ha":806,"x_min":0,"x_max":0,"o":"m 138 0 l 567 0 b 488 -137 514 -37 488 -85 b 664 -285 488 -225 560 -285 b 722 -278 686 -285 707 -282 l 722 -178 b 689 -182 713 -181 699 -182 b 608 -114 642 -182 608 -156 b 725 0 608 -69 646 -32 l 719 4 l 719 131 l 285 131 l 285 439 l 663 439 l 663 569 l 285 569 l 285 842 l 719 842 l 719 972 l 138 972 z "},"Ε":{"ha":806,"x_min":0,"x_max":0,"o":"m 138 0 l 719 0 l 719 131 l 285 131 l 285 439 l 663 439 l 663 569 l 285 569 l 285 842 l 719 842 l 719 972 l 138 972 z "},"Έ":{"ha":806,"x_min":0,"x_max":0,"o":"m 138 0 l 719 0 l 719 131 l 285 131 l 285 439 l 663 439 l 663 569 l 285 569 l 285 842 l 719 842 l 719 972 l 138 972 z m 135 1079 l -32 1079 l -75 786 l 33 786 z "},"Η":{"ha":806,"x_min":0,"x_max":0,"o":"m 74 0 l 221 0 l 221 435 l 585 435 l 585 0 l 732 0 l 732 972 l 585 972 l 585 569 l 221 569 l 221 972 l 74 972 z "},"Ή":{"ha":806,"x_min":0,"x_max":0,"o":"m 74 0 l 221 0 l 221 435 l 585 435 l 585 0 l 732 0 l 732 972 l 585 972 l 585 569 l 221 569 l 221 972 l 74 972 z m 71 1079 l -96 1079 l -139 786 l -31 786 z "},"Ð":{"ha":806,"x_min":0,"x_max":0,"o":"m 93 0 l 374 0 b 772 486 610 0 772 197 b 374 972 772 775 610 972 l 93 972 l 93 546 l 14 546 l 14 426 l 93 426 z m 240 131 l 240 426 l 431 426 l 431 546 l 240 546 l 240 842 l 374 842 b 624 486 526 842 624 703 b 374 131 624 269 526 131 z "},"€":{"ha":806,"x_min":0,"x_max":0,"o":"m 6 535 l 65 535 b 64 486 64 518 64 503 b 64 453 64 475 64 464 l 6 453 l 6 346 l 76 346 b 439 -14 117 128 254 -14 b 754 256 604 -14 735 99 l 611 256 b 442 121 596 175 528 121 b 225 346 333 121 256 206 l 508 346 l 538 453 l 213 453 b 211 485 211 463 211 474 b 213 535 211 501 211 518 l 554 535 l 582 642 l 229 642 b 439 851 261 772 336 851 b 603 731 519 851 585 804 l 746 731 b 438 986 722 881 596 986 b 79 642 257 986 122 851 l 6 642 z "},"F":{"ha":806,"x_min":0,"x_max":0,"o":"m 142 0 l 289 0 l 289 418 l 668 418 l 668 547 l 289 547 l 289 842 l 724 842 l 724 972 l 142 972 z "},"G":{"ha":806,"x_min":0,"x_max":0,"o":"m 393 406 l 593 406 b 400 117 593 235 513 117 b 189 482 274 117 189 264 b 419 851 189 708 279 851 b 585 731 500 851 565 804 l 728 731 b 414 986 703 879 572 986 b 40 481 193 986 40 781 b 372 -14 40 193 181 -14 b 599 129 469 -14 549 40 l 603 129 l 603 0 l 735 0 l 735 535 l 393 535 z "},"Γ":{"ha":806,"x_min":0,"x_max":0,"o":"m 147 0 l 294 0 l 294 842 l 729 842 l 729 972 l 147 972 z "},"Ğ":{"ha":806,"x_min":0,"x_max":0,"o":"m 393 406 l 593 406 b 400 117 593 235 513 117 b 189 482 274 117 189 264 b 419 851 189 708 279 851 b 585 731 500 851 565 804 l 728 731 b 414 986 703 879 572 986 b 40 481 193 986 40 781 b 372 -14 40 193 181 -14 b 599 129 469 -14 549 40 l 603 129 l 603 0 l 735 0 l 735 535 l 393 535 z m 326 1289 l 211 1289 b 410 1085 211 1169 294 1085 b 608 1289 525 1085 608 1169 l 494 1289 b 410 1192 489 1231 456 1192 b 326 1289 364 1192 332 1229 z "},"Ĝ":{"ha":806,"x_min":0,"x_max":0,"o":"m 393 406 l 593 406 b 400 117 593 235 513 117 b 189 482 274 117 189 264 b 419 851 189 708 279 851 b 585 731 500 851 565 804 l 728 731 b 414 986 703 879 572 986 b 40 481 193 986 40 781 b 372 -14 40 193 181 -14 b 599 129 469 -14 549 40 l 603 129 l 603 0 l 735 0 l 735 535 l 393 535 z m 182 1081 l 299 1081 l 410 1224 l 522 1081 l 638 1081 l 479 1342 l 340 1342 z "},"Ģ":{"ha":806,"x_min":0,"x_max":0,"o":"m 393 406 l 593 406 b 400 117 593 235 513 117 b 189 482 274 117 189 264 b 419 851 189 708 279 851 b 585 731 500 851 565 804 l 728 731 b 414 986 703 879 572 986 b 40 481 193 986 40 781 b 372 -14 40 193 181 -14 b 599 129 469 -14 549 40 l 603 129 l 603 0 l 735 0 l 735 535 l 393 535 z m 467 -100 l 285 -100 l 176 -367 l 297 -367 z "},"Ġ":{"ha":806,"x_min":0,"x_max":0,"o":"m 393 406 l 593 406 b 400 117 593 235 513 117 b 189 482 274 117 189 264 b 419 851 189 708 279 851 b 585 731 500 851 565 804 l 728 731 b 414 986 703 879 572 986 b 40 481 193 986 40 781 b 372 -14 40 193 181 -14 b 599 129 469 -14 549 40 l 603 129 l 603 0 l 735 0 l 735 535 l 393 535 z m 296 1204 b 410 1090 296 1142 347 1090 b 524 1204 474 1090 524 1142 b 410 1319 524 1269 474 1319 b 296 1204 347 1319 296 1269 z "},"H":{"ha":806,"x_min":0,"x_max":0,"o":"m 74 0 l 221 0 l 221 435 l 585 435 l 585 0 l 732 0 l 732 972 l 585 972 l 585 569 l 221 569 l 221 972 l 74 972 z "},"Ħ":{"ha":806,"x_min":0,"x_max":0,"o":"m 74 0 l 221 0 l 221 389 l 585 389 l 585 0 l 732 0 l 732 696 l 797 696 l 797 794 l 732 794 l 732 972 l 585 972 l 585 794 l 221 794 l 221 972 l 74 972 l 74 794 l 8 794 l 8 696 l 74 696 z m 585 524 l 221 524 l 221 696 l 585 696 z "},"Ĥ":{"ha":806,"x_min":0,"x_max":0,"o":"m 74 0 l 221 0 l 221 435 l 585 435 l 585 0 l 732 0 l 732 972 l 585 972 l 585 569 l 221 569 l 221 972 l 74 972 z m 175 1081 l 292 1081 l 403 1224 l 515 1081 l 631 1081 l 472 1342 l 333 1342 z "},"I":{"ha":806,"x_min":0,"x_max":0,"o":"m 119 0 l 688 0 l 688 131 l 476 131 l 476 842 l 685 842 l 685 972 l 122 972 l 122 842 l 329 842 l 329 131 l 119 131 z "},"Ĳ":{"ha":806,"x_min":0,"x_max":0,"o":"m 90 390 l 238 390 l 238 972 l 90 972 z m 92 256 b 403 -14 93 100 224 -14 b 715 267 586 -14 715 104 l 715 972 l 349 972 l 349 842 l 568 842 l 568 268 b 400 117 568 178 500 117 b 229 256 304 117 235 174 z "},"Í":{"ha":806,"x_min":0,"x_max":0,"o":"m 119 0 l 688 0 l 688 131 l 476 131 l 476 842 l 685 842 l 685 972 l 122 972 l 122 842 l 329 842 l 329 131 l 119 131 z m 603 1360 l 421 1360 l 313 1092 l 433 1092 z "},"Ĭ":{"ha":806,"x_min":0,"x_max":0,"o":"m 119 0 l 688 0 l 688 131 l 476 131 l 476 842 l 685 842 l 685 972 l 122 972 l 122 842 l 329 842 l 329 131 l 119 131 z m 319 1289 l 204 1289 b 403 1085 204 1169 288 1085 b 601 1289 518 1085 601 1169 l 488 1289 b 403 1192 482 1231 449 1192 b 319 1289 357 1192 325 1229 z "},"Î":{"ha":806,"x_min":0,"x_max":0,"o":"m 119 0 l 688 0 l 688 131 l 476 131 l 476 842 l 685 842 l 685 972 l 122 972 l 122 842 l 329 842 l 329 131 l 119 131 z m 175 1081 l 292 1081 l 403 1224 l 515 1081 l 631 1081 l 472 1342 l 333 1342 z "},"Ï":{"ha":806,"x_min":0,"x_max":0,"o":"m 119 0 l 688 0 l 688 131 l 476 131 l 476 842 l 685 842 l 685 972 l 122 972 l 122 842 l 329 842 l 329 131 l 119 131 z m 149 1204 b 254 1099 149 1146 196 1099 b 360 1204 314 1099 360 1146 b 254 1310 360 1264 314 1310 b 149 1204 196 1310 149 1264 z m 446 1204 b 551 1099 446 1146 493 1099 b 657 1204 611 1099 657 1146 b 551 1310 657 1264 611 1310 b 446 1204 493 1310 446 1264 z "},"İ":{"ha":806,"x_min":0,"x_max":0,"o":"m 119 0 l 688 0 l 688 131 l 476 131 l 476 842 l 685 842 l 685 972 l 122 972 l 122 842 l 329 842 l 329 131 l 119 131 z m 289 1204 b 403 1090 289 1142 340 1090 b 517 1204 467 1090 517 1142 b 403 1319 517 1269 467 1319 b 289 1204 340 1319 289 1269 z "},"Ì":{"ha":806,"x_min":0,"x_max":0,"o":"m 119 0 l 688 0 l 688 131 l 476 131 l 476 842 l 685 842 l 685 972 l 122 972 l 122 842 l 329 842 l 329 131 l 119 131 z m 493 1092 l 385 1360 l 203 1360 l 372 1092 z "},"Ī":{"ha":806,"x_min":0,"x_max":0,"o":"m 119 0 l 688 0 l 688 131 l 476 131 l 476 842 l 685 842 l 685 972 l 122 972 l 122 842 l 329 842 l 329 131 l 119 131 z m 185 1132 l 621 1132 l 621 1250 l 185 1250 z "},"Į":{"ha":806,"x_min":0,"x_max":0,"o":"m 119 0 l 529 0 b 450 -137 476 -37 450 -85 b 626 -285 450 -225 522 -285 b 685 -278 649 -285 669 -282 l 685 -178 b 651 -182 675 -181 661 -182 b 571 -114 604 -182 571 -156 b 688 0 571 -69 608 -32 l 688 131 l 476 131 l 476 842 l 685 842 l 685 972 l 122 972 l 122 842 l 329 842 l 329 131 l 119 131 z "},"Ι":{"ha":806,"x_min":0,"x_max":0,"o":"m 119 0 l 688 0 l 688 131 l 476 131 l 476 842 l 685 842 l 685 972 l 122 972 l 122 842 l 329 842 l 329 131 l 119 131 z "},"Ϊ":{"ha":806,"x_min":0,"x_max":0,"o":"m 119 0 l 688 0 l 688 131 l 476 131 l 476 842 l 685 842 l 685 972 l 122 972 l 122 842 l 329 842 l 329 131 l 119 131 z m 149 1204 b 254 1099 149 1146 196 1099 b 360 1204 314 1099 360 1146 b 254 1310 360 1264 314 1310 b 149 1204 196 1310 149 1264 z m 446 1204 b 551 1099 446 1146 493 1099 b 657 1204 611 1099 657 1146 b 551 1310 657 1264 611 1310 b 446 1204 493 1310 446 1264 z "},"Ί":{"ha":806,"x_min":0,"x_max":0,"o":"m 119 0 l 688 0 l 688 131 l 476 131 l 476 842 l 685 842 l 685 972 l 122 972 l 122 842 l 329 842 l 329 131 l 119 131 z m 119 1079 l -47 1079 l -90 786 l 18 786 z "},"Ĩ":{"ha":806,"x_min":0,"x_max":0,"o":"m 119 0 l 688 0 l 688 131 l 476 131 l 476 842 l 685 842 l 685 972 l 122 972 l 122 842 l 329 842 l 329 131 l 119 131 z m 153 1126 l 274 1126 l 274 1156 b 308 1231 275 1207 288 1231 b 500 1107 354 1231 371 1107 b 653 1279 594 1107 653 1174 l 653 1322 l 533 1322 l 532 1293 b 500 1218 531 1242 521 1218 b 306 1342 453 1218 435 1342 b 153 1169 211 1342 153 1276 z "},"J":{"ha":806,"x_min":0,"x_max":0,"o":"m 61 256 b 372 -14 63 100 193 -14 b 686 267 556 -14 686 104 l 686 972 l 175 972 l 175 842 l 539 842 l 539 268 b 371 117 539 178 471 117 b 199 256 275 117 204 174 z "},"Ĵ":{"ha":806,"x_min":0,"x_max":0,"o":"m 61 256 b 372 -14 63 100 193 -14 b 686 267 556 -14 686 104 l 686 972 l 175 972 l 175 842 l 539 842 l 539 268 b 371 117 539 178 471 117 b 199 256 275 117 204 174 z m 221 1081 l 338 1081 l 449 1224 l 561 1081 l 676 1081 l 518 1342 l 379 1342 z "},"K":{"ha":806,"x_min":0,"x_max":0,"o":"m 225 972 l 78 972 l 78 0 l 225 0 l 225 300 l 357 453 l 647 0 l 815 0 l 453 568 l 800 972 l 621 972 l 225 513 z "},"Κ":{"ha":806,"x_min":0,"x_max":0,"o":"m 225 972 l 78 972 l 78 0 l 225 0 l 225 300 l 357 453 l 647 0 l 815 0 l 453 568 l 800 972 l 621 972 l 225 513 z "},"Ķ":{"ha":806,"x_min":0,"x_max":0,"o":"m 225 972 l 78 972 l 78 0 l 225 0 l 225 300 l 357 453 l 647 0 l 815 0 l 453 568 l 800 972 l 621 972 l 225 513 z m 519 -100 l 338 -100 l 229 -367 l 350 -367 z "},"L":{"ha":806,"x_min":0,"x_max":0,"o":"m 153 0 l 721 0 l 721 131 l 300 131 l 300 972 l 153 972 z "},"Ĺ":{"ha":806,"x_min":0,"x_max":0,"o":"m 153 0 l 721 0 l 721 131 l 300 131 l 300 972 l 153 972 z m 429 1360 l 247 1360 l 139 1092 l 260 1092 z "},"Λ":{"ha":806,"x_min":0,"x_max":0,"o":"m 501 972 l 304 972 l 18 0 l 165 0 l 399 813 l 404 813 l 638 0 l 788 0 z "},"Ľ":{"ha":806,"x_min":0,"x_max":0,"o":"m 153 0 l 721 0 l 721 131 l 300 131 l 300 972 l 153 972 z m 376 714 l 376 613 b 676 899 547 608 676 732 b 535 1090 676 1010 618 1090 b 422 979 471 1090 422 1043 b 513 875 422 922 461 875 b 563 893 532 875 549 882 b 376 714 563 781 486 715 z "},"Ļ":{"ha":806,"x_min":0,"x_max":0,"o":"m 153 0 l 721 0 l 721 131 l 300 131 l 300 972 l 153 972 z m 525 -100 l 343 -100 l 235 -367 l 356 -367 z "},"Ŀ":{"ha":806,"x_min":0,"x_max":0,"o":"m 153 0 l 721 0 l 721 131 l 300 131 l 300 972 l 153 972 z m 515 533 b 635 414 515 468 569 414 b 754 533 701 414 754 468 b 635 653 754 600 701 653 b 515 533 569 653 515 600 z "},"Ł":{"ha":806,"x_min":0,"x_max":0,"o":"m 153 0 l 721 0 l 721 131 l 300 131 l 300 483 l 567 625 l 567 758 l 300 618 l 300 972 l 153 972 l 153 540 l 18 469 l 18 336 l 153 406 z "},"M":{"ha":806,"x_min":0,"x_max":0,"o":"m 174 801 l 179 801 l 338 203 l 468 203 l 628 801 l 633 801 l 633 0 l 769 0 l 769 972 l 564 972 l 406 375 l 400 375 l 242 972 l 36 972 l 36 0 l 174 0 z "},"Μ":{"ha":806,"x_min":0,"x_max":0,"o":"m 174 801 l 179 801 l 338 203 l 468 203 l 628 801 l 633 801 l 633 0 l 769 0 l 769 972 l 564 972 l 406 375 l 400 375 l 242 972 l 36 972 l 36 0 l 174 0 z "},"N":{"ha":806,"x_min":0,"x_max":0,"o":"m 603 217 l 597 217 l 286 972 l 68 972 l 68 0 l 204 0 l 204 825 l 210 825 l 546 0 l 738 0 l 738 972 l 603 972 z "},"Ń":{"ha":806,"x_min":0,"x_max":0,"o":"m 603 217 l 597 217 l 286 972 l 68 972 l 68 0 l 204 0 l 204 825 l 210 825 l 546 0 l 738 0 l 738 972 l 603 972 z m 603 1360 l 421 1360 l 313 1092 l 433 1092 z "},"Ň":{"ha":806,"x_min":0,"x_max":0,"o":"m 603 217 l 597 217 l 286 972 l 68 972 l 68 0 l 204 0 l 204 825 l 210 825 l 546 0 l 738 0 l 738 972 l 603 972 z m 333 1081 l 472 1081 l 631 1342 l 515 1342 l 403 1200 l 292 1342 l 175 1342 z "},"Ņ":{"ha":806,"x_min":0,"x_max":0,"o":"m 603 217 l 597 217 l 286 972 l 68 972 l 68 0 l 204 0 l 204 825 l 210 825 l 546 0 l 738 0 l 738 972 l 603 972 z m 485 -100 l 303 -100 l 194 -367 l 315 -367 z "},"Ñ":{"ha":806,"x_min":0,"x_max":0,"o":"m 603 217 l 597 217 l 286 972 l 68 972 l 68 0 l 204 0 l 204 825 l 210 825 l 546 0 l 738 0 l 738 972 l 603 972 z m 153 1126 l 274 1126 l 274 1156 b 308 1231 275 1207 288 1231 b 500 1107 354 1231 371 1107 b 653 1279 594 1107 653 1174 l 653 1322 l 533 1322 l 532 1293 b 500 1218 531 1242 521 1218 b 306 1342 453 1218 435 1342 b 153 1169 211 1342 153 1276 z "},"Ν":{"ha":806,"x_min":0,"x_max":0,"o":"m 603 217 l 597 217 l 286 972 l 68 972 l 68 0 l 204 0 l 204 825 l 210 825 l 546 0 l 738 0 l 738 972 l 603 972 z "},"O":{"ha":806,"x_min":0,"x_max":0,"o":"m 403 -14 b 774 486 621 -14 774 192 b 403 986 774 781 621 986 b 32 486 185 986 32 781 b 403 -14 32 192 185 -14 z m 403 121 b 179 486 267 121 179 265 b 403 851 179 707 267 851 b 626 486 539 851 626 707 b 403 121 626 265 539 121 z "},"Œ":{"ha":806,"x_min":0,"x_max":0,"o":"m 335 0 l 788 0 l 788 131 l 522 131 l 522 439 l 740 439 l 740 569 l 522 569 l 522 842 l 788 842 l 788 972 l 335 972 b 22 486 154 972 22 768 b 335 0 22 204 154 0 z m 335 842 l 379 842 l 379 131 l 335 131 b 165 486 235 131 165 275 b 335 842 165 697 235 842 z "},"Ó":{"ha":806,"x_min":0,"x_max":0,"o":"m 403 -14 b 774 486 621 -14 774 192 b 403 986 774 781 621 986 b 32 486 185 986 32 781 b 403 -14 32 192 185 -14 z m 403 121 b 179 486 267 121 179 265 b 403 851 179 707 267 851 b 626 486 539 851 626 707 b 403 121 626 265 539 121 z m 603 1360 l 421 1360 l 313 1092 l 433 1092 z "},"Ŏ":{"ha":806,"x_min":0,"x_max":0,"o":"m 403 -14 b 774 486 621 -14 774 192 b 403 986 774 781 621 986 b 32 486 185 986 32 781 b 403 -14 32 192 185 -14 z m 403 121 b 179 486 267 121 179 265 b 403 851 179 707 267 851 b 626 486 539 851 626 707 b 403 121 626 265 539 121 z m 319 1289 l 204 1289 b 403 1085 204 1169 288 1085 b 601 1289 518 1085 601 1169 l 488 1289 b 403 1192 482 1231 449 1192 b 319 1289 357 1192 325 1229 z "},"Ô":{"ha":806,"x_min":0,"x_max":0,"o":"m 403 -14 b 774 486 621 -14 774 192 b 403 986 774 781 621 986 b 32 486 185 986 32 781 b 403 -14 32 192 185 -14 z m 403 121 b 179 486 267 121 179 265 b 403 851 179 707 267 851 b 626 486 539 851 626 707 b 403 121 626 265 539 121 z m 175 1081 l 292 1081 l 403 1224 l 515 1081 l 631 1081 l 472 1342 l 333 1342 z "},"Ö":{"ha":806,"x_min":0,"x_max":0,"o":"m 403 -14 b 774 486 621 -14 774 192 b 403 986 774 781 621 986 b 32 486 185 986 32 781 b 403 -14 32 192 185 -14 z m 403 121 b 179 486 267 121 179 265 b 403 851 179 707 267 851 b 626 486 539 851 626 707 b 403 121 626 265 539 121 z m 149 1204 b 254 1099 149 1146 196 1099 b 360 1204 314 1099 360 1146 b 254 1310 360 1264 314 1310 b 149 1204 196 1310 149 1264 z m 446 1204 b 551 1099 446 1146 493 1099 b 657 1204 611 1099 657 1146 b 551 1310 657 1264 611 1310 b 446 1204 493 1310 446 1264 z "},"Ò":{"ha":806,"x_min":0,"x_max":0,"o":"m 403 -14 b 774 486 621 -14 774 192 b 403 986 774 781 621 986 b 32 486 185 986 32 781 b 403 -14 32 192 185 -14 z m 403 121 b 179 486 267 121 179 265 b 403 851 179 707 267 851 b 626 486 539 851 626 707 b 403 121 626 265 539 121 z m 493 1092 l 385 1360 l 203 1360 l 372 1092 z "},"Ω":{"ha":806,"x_min":0,"x_max":0,"o":"m 403 856 b 626 526 529 856 626 713 b 444 142 626 368 557 224 l 444 0 l 760 0 l 760 131 l 581 131 l 581 136 b 774 540 699 217 774 371 b 403 986 774 789 611 986 b 32 540 194 986 32 789 b 225 136 32 371 107 217 l 225 131 l 46 131 l 46 0 l 361 0 l 361 142 b 179 526 249 224 179 368 b 403 856 179 713 276 856 z "},"Ő":{"ha":806,"x_min":0,"x_max":0,"o":"m 403 -14 b 774 486 621 -14 774 192 b 403 986 774 781 621 986 b 32 486 185 986 32 781 b 403 -14 32 192 185 -14 z m 403 121 b 179 486 267 121 179 265 b 403 851 179 707 267 851 b 626 486 539 851 626 707 b 403 121 626 265 539 121 z m 497 1360 l 315 1360 l 207 1092 l 328 1092 z m 739 1360 l 557 1360 l 449 1092 l 569 1092 z "},"Ō":{"ha":806,"x_min":0,"x_max":0,"o":"m 403 -14 b 774 486 621 -14 774 192 b 403 986 774 781 621 986 b 32 486 185 986 32 781 b 403 -14 32 192 185 -14 z m 403 121 b 179 486 267 121 179 265 b 403 851 179 707 267 851 b 626 486 539 851 626 707 b 403 121 626 265 539 121 z m 185 1132 l 621 1132 l 621 1250 l 185 1250 z "},"Ω":{"ha":806,"x_min":0,"x_max":0,"o":"m 403 856 b 626 526 529 856 626 713 b 444 142 626 368 557 224 l 444 0 l 760 0 l 760 131 l 581 131 l 581 136 b 774 540 699 217 774 371 b 403 986 774 789 611 986 b 32 540 194 986 32 789 b 225 136 32 371 107 217 l 225 131 l 46 131 l 46 0 l 361 0 l 361 142 b 179 526 249 224 179 368 b 403 856 179 713 276 856 z "},"Ώ":{"ha":806,"x_min":0,"x_max":0,"o":"m 403 856 b 626 526 529 856 626 713 b 444 142 626 368 557 224 l 444 0 l 760 0 l 760 131 l 581 131 l 581 136 b 774 540 699 217 774 371 b 403 986 774 789 611 986 b 32 540 194 986 32 789 b 225 136 32 371 107 217 l 225 131 l 46 131 l 46 0 l 361 0 l 361 142 b 179 526 249 224 179 368 b 403 856 179 713 276 856 z m 132 1079 l -35 1079 l -78 786 l 31 786 z "},"Ο":{"ha":806,"x_min":0,"x_max":0,"o":"m 403 -14 b 774 486 621 -14 774 192 b 403 986 774 781 621 986 b 32 486 185 986 32 781 b 403 -14 32 192 185 -14 z m 403 121 b 179 486 267 121 179 265 b 403 851 179 707 267 851 b 626 486 539 851 626 707 b 403 121 626 265 539 121 z "},"Ό":{"ha":806,"x_min":0,"x_max":0,"o":"m 403 -14 b 774 486 621 -14 774 192 b 403 986 774 781 621 986 b 32 486 185 986 32 781 b 403 -14 32 192 185 -14 z m 403 121 b 179 486 267 121 179 265 b 403 851 179 707 267 851 b 626 486 539 851 626 707 b 403 121 626 265 539 121 z m 132 1079 l -35 1079 l -78 786 l 31 786 z "},"Ø":{"ha":806,"x_min":0,"x_max":0,"o":"m 47 -49 l 142 -100 l 219 43 b 403 -14 272 6 335 -14 b 774 486 621 -14 774 192 b 667 851 774 636 735 763 l 760 1021 l 665 1072 l 586 929 b 403 986 533 965 471 986 b 32 486 185 986 32 781 b 140 119 32 336 72 208 z m 179 486 b 403 851 179 707 267 851 b 519 807 447 851 486 836 l 218 263 b 179 486 193 322 179 399 z m 403 121 b 288 164 358 121 319 136 l 588 708 b 626 486 613 649 626 574 b 403 121 626 265 539 121 z "},"Ǿ":{"ha":806,"x_min":0,"x_max":0,"o":"m 47 -49 l 142 -100 l 219 43 b 403 -14 272 6 335 -14 b 774 486 621 -14 774 192 b 667 851 774 636 735 763 l 760 1021 l 665 1072 l 586 929 b 403 986 533 965 471 986 b 32 486 185 986 32 781 b 140 119 32 336 72 208 z m 179 486 b 403 851 179 707 267 851 b 519 807 447 851 486 836 l 218 263 b 179 486 193 322 179 399 z m 403 121 b 288 164 358 121 319 136 l 588 708 b 626 486 613 649 626 574 b 403 121 626 265 539 121 z m 600 1360 l 418 1360 l 310 1092 l 431 1092 z "},"Õ":{"ha":806,"x_min":0,"x_max":0,"o":"m 403 -14 b 774 486 621 -14 774 192 b 403 986 774 781 621 986 b 32 486 185 986 32 781 b 403 -14 32 192 185 -14 z m 403 121 b 179 486 267 121 179 265 b 403 851 179 707 267 851 b 626 486 539 851 626 707 b 403 121 626 265 539 121 z m 153 1126 l 274 1126 l 274 1156 b 308 1231 275 1207 288 1231 b 500 1107 354 1231 371 1107 b 653 1279 594 1107 653 1174 l 653 1322 l 533 1322 l 532 1293 b 500 1218 531 1242 521 1218 b 306 1342 453 1218 435 1342 b 153 1169 211 1342 153 1276 z "},"P":{"ha":806,"x_min":0,"x_max":0,"o":"m 114 0 l 261 0 l 261 393 l 465 393 b 763 683 640 393 763 514 b 465 972 763 853 640 972 l 114 972 z m 261 524 l 261 842 l 472 842 b 621 683 561 842 621 778 b 472 524 621 588 561 524 z "},"Φ":{"ha":806,"x_min":0,"x_max":0,"o":"m 474 0 l 474 107 b 774 486 654 138 774 285 b 474 865 774 688 654 835 l 474 972 l 332 972 l 332 865 b 32 486 151 835 32 688 b 332 107 32 285 151 138 l 332 0 z m 175 486 b 332 726 175 610 235 697 l 332 246 b 175 486 235 275 175 363 z m 631 486 b 474 246 631 363 571 275 l 474 726 b 631 486 571 697 631 610 z "},"Π":{"ha":806,"x_min":0,"x_max":0,"o":"m 74 0 l 221 0 l 221 838 l 585 838 l 585 0 l 732 0 l 732 972 l 74 972 z "},"Ψ":{"ha":806,"x_min":0,"x_max":0,"o":"m 765 972 l 622 972 l 622 629 b 474 417 622 519 567 442 l 474 972 l 332 972 l 332 417 b 183 629 239 442 183 519 l 183 972 l 42 972 l 42 629 b 332 278 42 439 154 306 l 332 0 l 474 0 l 474 278 b 765 629 651 306 765 439 z "},"Q":{"ha":806,"x_min":0,"x_max":0,"o":"m 756 -94 l 829 -19 l 676 133 b 774 486 738 221 774 343 b 403 986 774 781 621 986 b 32 486 185 986 32 781 b 403 -14 32 192 185 -14 b 604 57 479 -14 547 11 z m 403 121 b 179 486 267 121 179 265 b 403 851 179 707 267 851 b 626 486 539 851 626 707 b 574 236 626 385 607 299 l 408 401 l 333 328 l 506 154 b 403 121 476 133 442 121 z "},"R":{"ha":806,"x_min":0,"x_max":0,"o":"m 256 547 l 256 842 l 464 842 b 607 696 549 842 607 783 b 464 547 607 607 549 547 z m 107 0 l 256 0 l 256 417 l 407 417 l 617 0 l 778 0 l 561 432 b 749 694 675 469 749 567 b 457 972 749 858 629 972 l 107 972 z "},"Ŕ":{"ha":806,"x_min":0,"x_max":0,"o":"m 256 547 l 256 842 l 464 842 b 607 696 549 842 607 783 b 464 547 607 607 549 547 z m 107 0 l 256 0 l 256 417 l 407 417 l 617 0 l 778 0 l 561 432 b 749 694 675 469 749 567 b 457 972 749 858 629 972 l 107 972 z m 615 1360 l 433 1360 l 325 1092 l 446 1092 z "},"Ř":{"ha":806,"x_min":0,"x_max":0,"o":"m 256 547 l 256 842 l 464 842 b 607 696 549 842 607 783 b 464 547 607 607 549 547 z m 107 0 l 256 0 l 256 417 l 407 417 l 617 0 l 778 0 l 561 432 b 749 694 675 469 749 567 b 457 972 749 858 629 972 l 107 972 z m 346 1081 l 485 1081 l 643 1342 l 528 1342 l 415 1200 l 304 1342 l 188 1342 z "},"Ŗ":{"ha":806,"x_min":0,"x_max":0,"o":"m 256 547 l 256 842 l 464 842 b 607 696 549 842 607 783 b 464 547 607 607 549 547 z m 107 0 l 256 0 l 256 417 l 407 417 l 617 0 l 778 0 l 561 432 b 749 694 675 469 749 567 b 457 972 749 858 629 972 l 107 972 z m 518 -100 l 336 -100 l 228 -367 l 349 -367 z "},"Ρ":{"ha":806,"x_min":0,"x_max":0,"o":"m 114 0 l 261 0 l 261 393 l 465 393 b 763 683 640 393 763 514 b 465 972 763 853 640 972 l 114 972 z m 261 524 l 261 842 l 472 842 b 621 683 561 842 621 778 b 472 524 621 588 561 524 z "},"S":{"ha":806,"x_min":0,"x_max":0,"o":"m 71 256 b 410 -19 76 97 218 -19 b 735 276 603 -19 735 100 b 442 558 735 428 636 522 l 386 569 b 236 710 286 589 236 635 b 406 857 236 797 304 857 b 588 731 501 857 578 804 l 725 731 b 401 986 717 878 579 986 b 93 700 217 986 93 871 b 367 431 93 554 183 465 l 424 419 b 590 268 535 399 590 349 b 406 111 590 175 515 111 b 207 256 299 111 217 171 z "},"Ś":{"ha":806,"x_min":0,"x_max":0,"o":"m 71 256 b 410 -19 76 97 218 -19 b 735 276 603 -19 735 100 b 442 558 735 428 636 522 l 386 569 b 236 710 286 589 236 635 b 406 857 236 797 304 857 b 588 731 501 857 578 804 l 725 731 b 401 986 717 878 579 986 b 93 700 217 986 93 871 b 367 431 93 554 183 465 l 424 419 b 590 268 535 399 590 349 b 406 111 590 175 515 111 b 207 256 299 111 217 171 z m 599 1360 l 417 1360 l 308 1092 l 429 1092 z "},"Š":{"ha":806,"x_min":0,"x_max":0,"o":"m 71 256 b 410 -19 76 97 218 -19 b 735 276 603 -19 735 100 b 442 558 735 428 636 522 l 386 569 b 236 710 286 589 236 635 b 406 857 236 797 304 857 b 588 731 501 857 578 804 l 725 731 b 401 986 717 878 579 986 b 93 700 217 986 93 871 b 367 431 93 554 183 465 l 424 419 b 590 268 535 399 590 349 b 406 111 590 175 515 111 b 207 256 299 111 217 171 z m 329 1081 l 468 1081 l 626 1342 l 511 1342 l 399 1200 l 288 1342 l 171 1342 z "},"Ş":{"ha":806,"x_min":0,"x_max":0,"o":"m 361 -225 l 251 -225 b 435 -379 254 -314 332 -379 b 618 -218 539 -379 618 -310 b 443 -74 618 -126 539 -60 l 453 -18 b 735 276 622 -1 735 114 b 442 558 735 428 636 522 l 386 569 b 236 710 286 589 236 635 b 406 857 236 797 304 857 b 588 731 501 857 578 804 l 725 731 b 401 986 717 878 579 986 b 93 700 217 986 93 871 b 367 431 93 554 183 465 l 424 419 b 590 268 535 399 590 349 b 406 111 590 175 515 111 b 207 256 299 111 217 171 l 71 256 b 336 -14 75 118 183 13 l 311 -149 l 386 -169 b 436 -153 399 -158 417 -153 b 508 -219 478 -153 508 -181 b 436 -286 508 -258 479 -286 b 361 -225 396 -286 365 -261 z "},"Ŝ":{"ha":806,"x_min":0,"x_max":0,"o":"m 71 256 b 410 -19 76 97 218 -19 b 735 276 603 -19 735 100 b 442 558 735 428 636 522 l 386 569 b 236 710 286 589 236 635 b 406 857 236 797 304 857 b 588 731 501 857 578 804 l 725 731 b 401 986 717 878 579 986 b 93 700 217 986 93 871 b 367 431 93 554 183 465 l 424 419 b 590 268 535 399 590 349 b 406 111 590 175 515 111 b 207 256 299 111 217 171 z m 171 1081 l 288 1081 l 399 1224 l 511 1081 l 626 1081 l 468 1342 l 329 1342 z "},"Ș":{"ha":806,"x_min":0,"x_max":0,"o":"m 71 256 b 410 -19 76 97 218 -19 b 735 276 603 -19 735 100 b 442 558 735 428 636 522 l 386 569 b 236 710 286 589 236 635 b 406 857 236 797 304 857 b 588 731 501 857 578 804 l 725 731 b 401 986 717 878 579 986 b 93 700 217 986 93 871 b 367 431 93 554 183 465 l 424 419 b 590 268 535 399 590 349 b 406 111 590 175 515 111 b 207 256 299 111 217 171 z m 490 -100 l 308 -100 l 200 -367 l 321 -367 z "},"Σ":{"ha":806,"x_min":0,"x_max":0,"o":"m 60 0 l 746 0 l 746 131 l 258 131 l 597 493 l 269 839 l 717 839 l 717 968 l 68 968 l 68 849 l 408 492 l 60 119 z "},"T":{"ha":806,"x_min":0,"x_max":0,"o":"m 329 0 l 476 0 l 476 842 l 760 842 l 760 972 l 46 972 l 46 842 l 329 842 z "},"Τ":{"ha":806,"x_min":0,"x_max":0,"o":"m 329 0 l 476 0 l 476 842 l 760 842 l 760 972 l 46 972 l 46 842 l 329 842 z "},"Ŧ":{"ha":806,"x_min":0,"x_max":0,"o":"m 329 0 l 476 0 l 476 399 l 622 399 l 622 517 l 476 517 l 476 842 l 760 842 l 760 972 l 46 972 l 46 842 l 329 842 l 329 517 l 186 517 l 186 399 l 329 399 z "},"Ť":{"ha":806,"x_min":0,"x_max":0,"o":"m 329 0 l 476 0 l 476 842 l 760 842 l 760 972 l 46 972 l 46 842 l 329 842 z m 333 1081 l 472 1081 l 631 1342 l 515 1342 l 403 1200 l 292 1342 l 175 1342 z "},"Ţ":{"ha":806,"x_min":0,"x_max":0,"o":"m 329 0 l 344 0 l 318 -149 l 393 -169 b 443 -153 406 -158 424 -153 b 515 -219 485 -153 515 -181 b 443 -286 515 -258 486 -286 b 368 -225 403 -286 372 -261 l 258 -225 b 442 -379 261 -314 339 -379 b 625 -218 546 -379 625 -310 b 450 -74 625 -126 546 -60 l 463 0 l 476 0 l 476 842 l 760 842 l 760 972 l 46 972 l 46 842 l 329 842 z "},"Ț":{"ha":806,"x_min":0,"x_max":0,"o":"m 329 0 l 476 0 l 476 842 l 760 842 l 760 972 l 46 972 l 46 842 l 329 842 z m 497 -100 l 315 -100 l 207 -367 l 328 -367 z "},"Θ":{"ha":806,"x_min":0,"x_max":0,"o":"m 403 -14 b 774 486 621 -14 774 192 b 403 986 774 781 621 986 b 32 486 185 986 32 781 b 403 -14 32 192 185 -14 z m 403 121 b 179 486 267 121 179 265 b 403 851 179 707 267 851 b 626 486 539 851 626 707 b 403 121 626 265 539 121 z m 254 421 l 553 421 l 553 551 l 254 551 z "},"Þ":{"ha":806,"x_min":0,"x_max":0,"o":"m 111 0 l 258 0 l 258 204 l 456 204 b 746 493 625 204 746 324 b 456 782 746 663 625 782 l 258 782 l 258 972 l 111 972 z m 258 333 l 258 653 l 456 653 b 599 493 540 653 599 588 b 456 333 599 399 540 333 z "},"U":{"ha":806,"x_min":0,"x_max":0,"o":"m 732 972 l 585 972 l 585 306 b 403 121 585 197 511 121 b 221 306 296 121 221 197 l 221 972 l 74 972 l 74 306 b 403 -14 74 119 213 -14 b 732 306 593 -14 732 119 z "},"Ú":{"ha":806,"x_min":0,"x_max":0,"o":"m 732 972 l 585 972 l 585 306 b 403 121 585 197 511 121 b 221 306 296 121 221 197 l 221 972 l 74 972 l 74 306 b 403 -14 74 119 213 -14 b 732 306 593 -14 732 119 z m 603 1360 l 421 1360 l 313 1092 l 433 1092 z "},"Ŭ":{"ha":806,"x_min":0,"x_max":0,"o":"m 732 972 l 585 972 l 585 306 b 403 121 585 197 511 121 b 221 306 296 121 221 197 l 221 972 l 74 972 l 74 306 b 403 -14 74 119 213 -14 b 732 306 593 -14 732 119 z m 319 1289 l 204 1289 b 403 1085 204 1169 288 1085 b 601 1289 518 1085 601 1169 l 488 1289 b 403 1192 482 1231 449 1192 b 319 1289 357 1192 325 1229 z "},"Û":{"ha":806,"x_min":0,"x_max":0,"o":"m 732 972 l 585 972 l 585 306 b 403 121 585 197 511 121 b 221 306 296 121 221 197 l 221 972 l 74 972 l 74 306 b 403 -14 74 119 213 -14 b 732 306 593 -14 732 119 z m 175 1081 l 292 1081 l 403 1224 l 515 1081 l 631 1081 l 472 1342 l 333 1342 z "},"Ü":{"ha":806,"x_min":0,"x_max":0,"o":"m 732 972 l 585 972 l 585 306 b 403 121 585 197 511 121 b 221 306 296 121 221 197 l 221 972 l 74 972 l 74 306 b 403 -14 74 119 213 -14 b 732 306 593 -14 732 119 z m 149 1204 b 254 1099 149 1146 196 1099 b 360 1204 314 1099 360 1146 b 254 1310 360 1264 314 1310 b 149 1204 196 1310 149 1264 z m 446 1204 b 551 1099 446 1146 493 1099 b 657 1204 611 1099 657 1146 b 551 1310 657 1264 611 1310 b 446 1204 493 1310 446 1264 z "},"Ù":{"ha":806,"x_min":0,"x_max":0,"o":"m 732 972 l 585 972 l 585 306 b 403 121 585 197 511 121 b 221 306 296 121 221 197 l 221 972 l 74 972 l 74 306 b 403 -14 74 119 213 -14 b 732 306 593 -14 732 119 z m 493 1092 l 385 1360 l 203 1360 l 372 1092 z "},"Ű":{"ha":806,"x_min":0,"x_max":0,"o":"m 732 972 l 585 972 l 585 306 b 403 121 585 197 511 121 b 221 306 296 121 221 197 l 221 972 l 74 972 l 74 306 b 403 -14 74 119 213 -14 b 732 306 593 -14 732 119 z m 497 1360 l 315 1360 l 207 1092 l 328 1092 z m 739 1360 l 557 1360 l 449 1092 l 569 1092 z "},"Ū":{"ha":806,"x_min":0,"x_max":0,"o":"m 732 972 l 585 972 l 585 306 b 403 121 585 197 511 121 b 221 306 296 121 221 197 l 221 972 l 74 972 l 74 306 b 403 -14 74 119 213 -14 b 732 306 593 -14 732 119 z m 185 1132 l 621 1132 l 621 1250 l 185 1250 z "},"Ų":{"ha":806,"x_min":0,"x_max":0,"o":"m 732 972 l 585 972 l 585 306 b 403 121 585 197 511 121 b 221 306 296 121 221 197 l 221 972 l 74 972 l 74 306 b 389 -14 74 124 206 -7 b 369 -87 376 -36 369 -61 b 546 -235 369 -175 442 -235 b 604 -228 568 -235 589 -232 l 604 -128 b 571 -132 594 -131 581 -132 b 490 -64 524 -132 490 -106 b 532 8 490 -37 504 -12 b 732 306 653 54 732 165 z "},"Υ":{"ha":806,"x_min":0,"x_max":0,"o":"m 329 0 l 476 0 l 476 408 l 794 972 l 639 972 l 406 553 l 172 972 l 11 972 l 329 408 z "},"Ϋ":{"ha":806,"x_min":0,"x_max":0,"o":"m 329 0 l 476 0 l 476 408 l 794 972 l 639 972 l 406 553 l 172 972 l 11 972 l 329 408 z m 149 1204 b 254 1099 149 1146 196 1099 b 360 1204 314 1099 360 1146 b 254 1310 360 1264 314 1310 b 149 1204 196 1310 149 1264 z m 446 1204 b 551 1099 446 1146 493 1099 b 657 1204 611 1099 657 1146 b 551 1310 657 1264 611 1310 b 446 1204 493 1310 446 1264 z "},"Ύ":{"ha":806,"x_min":0,"x_max":0,"o":"m 329 0 l 476 0 l 476 408 l 794 972 l 639 972 l 406 553 l 172 972 l 11 972 l 329 408 z m 36 1079 l -131 1079 l -174 786 l -65 786 z "},"Ů":{"ha":806,"x_min":0,"x_max":0,"o":"m 732 972 l 585 972 l 585 306 b 403 121 585 197 511 121 b 221 306 296 121 221 197 l 221 972 l 74 972 l 74 306 b 403 -14 74 119 213 -14 b 732 306 593 -14 732 119 z m 229 1235 b 404 1063 229 1138 307 1063 b 576 1233 500 1063 576 1138 b 403 1400 576 1329 501 1400 b 229 1235 304 1400 229 1329 z m 403 1154 b 328 1232 360 1154 328 1188 b 403 1308 328 1275 360 1308 b 478 1232 446 1308 478 1275 b 403 1154 478 1188 446 1154 z "},"Ũ":{"ha":806,"x_min":0,"x_max":0,"o":"m 732 972 l 585 972 l 585 306 b 403 121 585 197 511 121 b 221 306 296 121 221 197 l 221 972 l 74 972 l 74 306 b 403 -14 74 119 213 -14 b 732 306 593 -14 732 119 z m 153 1126 l 274 1126 l 274 1156 b 308 1231 275 1207 288 1231 b 500 1107 354 1231 371 1107 b 653 1279 594 1107 653 1174 l 653 1322 l 533 1322 l 532 1293 b 500 1218 531 1242 521 1218 b 306 1342 453 1218 435 1342 b 153 1169 211 1342 153 1276 z "},"V":{"ha":806,"x_min":0,"x_max":0,"o":"m 304 0 l 501 0 l 788 972 l 640 972 l 407 160 l 401 160 l 168 972 l 18 972 z "},"W":{"ha":806,"x_min":0,"x_max":0,"o":"m 69 0 l 246 0 l 400 606 l 406 606 l 560 0 l 736 0 l 829 972 l 694 972 l 626 206 l 621 206 l 463 829 l 344 829 l 185 206 l 179 206 l 111 972 l -24 972 z "},"Ẃ":{"ha":806,"x_min":0,"x_max":0,"o":"m 69 0 l 246 0 l 400 606 l 406 606 l 560 0 l 736 0 l 829 972 l 694 972 l 626 206 l 621 206 l 463 829 l 344 829 l 185 206 l 179 206 l 111 972 l -24 972 z m 603 1360 l 421 1360 l 313 1092 l 433 1092 z "},"Ŵ":{"ha":806,"x_min":0,"x_max":0,"o":"m 69 0 l 246 0 l 400 606 l 406 606 l 560 0 l 736 0 l 829 972 l 694 972 l 626 206 l 621 206 l 463 829 l 344 829 l 185 206 l 179 206 l 111 972 l -24 972 z m 175 1081 l 292 1081 l 403 1224 l 515 1081 l 631 1081 l 472 1342 l 333 1342 z "},"Ẅ":{"ha":806,"x_min":0,"x_max":0,"o":"m 69 0 l 246 0 l 400 606 l 406 606 l 560 0 l 736 0 l 829 972 l 694 972 l 626 206 l 621 206 l 463 829 l 344 829 l 185 206 l 179 206 l 111 972 l -24 972 z m 149 1204 b 254 1099 149 1146 196 1099 b 360 1204 314 1099 360 1146 b 254 1310 360 1264 314 1310 b 149 1204 196 1310 149 1264 z m 446 1204 b 551 1099 446 1146 493 1099 b 657 1204 611 1099 657 1146 b 551 1310 657 1264 611 1310 b 446 1204 493 1310 446 1264 z "},"Ẁ":{"ha":806,"x_min":0,"x_max":0,"o":"m 69 0 l 246 0 l 400 606 l 406 606 l 560 0 l 736 0 l 829 972 l 694 972 l 626 206 l 621 206 l 463 829 l 344 829 l 185 206 l 179 206 l 111 972 l -24 972 z m 493 1092 l 385 1360 l 203 1360 l 372 1092 z "},"X":{"ha":806,"x_min":0,"x_max":0,"o":"m -3 0 l 160 0 l 401 385 l 643 0 l 808 0 l 492 508 l 783 972 l 621 972 l 403 628 l 185 972 l 19 972 l 314 506 z "},"Ξ":{"ha":806,"x_min":0,"x_max":0,"o":"m 86 0 l 719 0 l 719 131 l 86 131 z m 143 439 l 663 439 l 663 569 l 143 569 z m 86 842 l 719 842 l 719 972 l 86 972 z "},"Y":{"ha":806,"x_min":0,"x_max":0,"o":"m 329 0 l 476 0 l 476 408 l 794 972 l 639 972 l 406 553 l 172 972 l 11 972 l 329 408 z "},"Ý":{"ha":806,"x_min":0,"x_max":0,"o":"m 329 0 l 476 0 l 476 408 l 794 972 l 639 972 l 406 553 l 172 972 l 11 972 l 329 408 z m 603 1360 l 421 1360 l 313 1092 l 433 1092 z "},"Ŷ":{"ha":806,"x_min":0,"x_max":0,"o":"m 329 0 l 476 0 l 476 408 l 794 972 l 639 972 l 406 553 l 172 972 l 11 972 l 329 408 z m 175 1081 l 292 1081 l 403 1224 l 515 1081 l 631 1081 l 472 1342 l 333 1342 z "},"Ÿ":{"ha":806,"x_min":0,"x_max":0,"o":"m 329 0 l 476 0 l 476 408 l 794 972 l 639 972 l 406 553 l 172 972 l 11 972 l 329 408 z m 149 1204 b 254 1099 149 1146 196 1099 b 360 1204 314 1099 360 1146 b 254 1310 360 1264 314 1310 b 149 1204 196 1310 149 1264 z m 446 1204 b 551 1099 446 1146 493 1099 b 657 1204 611 1099 657 1146 b 551 1310 657 1264 611 1310 b 446 1204 493 1310 446 1264 z "},"Ỳ":{"ha":806,"x_min":0,"x_max":0,"o":"m 329 0 l 476 0 l 476 408 l 794 972 l 639 972 l 406 553 l 172 972 l 11 972 l 329 408 z m 493 1092 l 385 1360 l 203 1360 l 372 1092 z "},"Z":{"ha":806,"x_min":0,"x_max":0,"o":"m 60 0 l 746 0 l 746 131 l 239 131 l 722 853 l 722 972 l 74 972 l 74 842 l 543 842 l 60 119 z "},"Ź":{"ha":806,"x_min":0,"x_max":0,"o":"m 60 0 l 746 0 l 746 131 l 239 131 l 722 853 l 722 972 l 74 972 l 74 842 l 543 842 l 60 119 z m 603 1360 l 421 1360 l 313 1092 l 433 1092 z "},"Ž":{"ha":806,"x_min":0,"x_max":0,"o":"m 60 0 l 746 0 l 746 131 l 239 131 l 722 853 l 722 972 l 74 972 l 74 842 l 543 842 l 60 119 z m 333 1081 l 472 1081 l 631 1342 l 515 1342 l 403 1200 l 292 1342 l 175 1342 z "},"Ż":{"ha":806,"x_min":0,"x_max":0,"o":"m 60 0 l 746 0 l 746 131 l 239 131 l 722 853 l 722 972 l 74 972 l 74 842 l 543 842 l 60 119 z m 289 1204 b 403 1090 289 1142 340 1090 b 517 1204 467 1090 517 1142 b 403 1319 517 1269 467 1319 b 289 1204 340 1319 289 1269 z "},"Ζ":{"ha":806,"x_min":0,"x_max":0,"o":"m 60 0 l 746 0 l 746 131 l 239 131 l 722 853 l 722 972 l 74 972 l 74 842 l 543 842 l 60 119 z "},"a":{"ha":806,"x_min":0,"x_max":0,"o":"m 540 528 b 469 454 540 482 518 458 l 411 449 b 90 215 196 429 90 354 b 332 -14 90 81 190 -14 b 544 108 429 -14 503 31 l 551 108 b 574 0 556 65 564 29 l 710 0 b 682 268 692 71 682 160 l 682 528 b 403 764 682 669 569 764 b 118 550 240 764 121 674 l 256 550 b 401 644 263 607 322 644 b 540 528 488 644 540 600 z m 360 100 b 233 218 283 100 233 147 b 425 351 233 294 290 335 l 479 358 b 540 378 504 361 524 368 l 540 288 b 360 100 540 182 461 100 z "},"á":{"ha":806,"x_min":0,"x_max":0,"o":"m 540 528 b 469 454 540 482 518 458 l 411 449 b 90 215 196 429 90 354 b 332 -14 90 81 190 -14 b 544 108 429 -14 503 31 l 551 108 b 574 0 556 65 564 29 l 710 0 b 682 268 692 71 682 160 l 682 528 b 403 764 682 669 569 764 b 118 550 240 764 121 674 l 256 550 b 401 644 263 607 322 644 b 540 528 488 644 540 600 z m 360 100 b 233 218 283 100 233 147 b 425 351 233 294 290 335 l 479 358 b 540 378 504 361 524 368 l 540 288 b 360 100 540 182 461 100 z m 599 1138 l 417 1138 l 308 869 l 429 869 z "},"ă":{"ha":806,"x_min":0,"x_max":0,"o":"m 540 528 b 469 454 540 482 518 458 l 411 449 b 90 215 196 429 90 354 b 332 -14 90 81 190 -14 b 544 108 429 -14 503 31 l 551 108 b 574 0 556 65 564 29 l 710 0 b 682 268 692 71 682 160 l 682 528 b 403 764 682 669 569 764 b 118 550 240 764 121 674 l 256 550 b 401 644 263 607 322 644 b 540 528 488 644 540 600 z m 360 100 b 233 218 283 100 233 147 b 425 351 233 294 290 335 l 479 358 b 540 378 504 361 524 368 l 540 288 b 360 100 540 182 461 100 z m 315 1067 l 200 1067 b 399 863 200 947 283 863 b 597 1067 514 863 597 947 l 483 1067 b 399 969 478 1008 444 969 b 315 1067 353 969 321 1007 z "},"â":{"ha":806,"x_min":0,"x_max":0,"o":"m 540 528 b 469 454 540 482 518 458 l 411 449 b 90 215 196 429 90 354 b 332 -14 90 81 190 -14 b 544 108 429 -14 503 31 l 551 108 b 574 0 556 65 564 29 l 710 0 b 682 268 692 71 682 160 l 682 528 b 403 764 682 669 569 764 b 118 550 240 764 121 674 l 256 550 b 401 644 263 607 322 644 b 540 528 488 644 540 600 z m 360 100 b 233 218 283 100 233 147 b 425 351 233 294 290 335 l 479 358 b 540 378 504 361 524 368 l 540 288 b 360 100 540 182 461 100 z m 171 858 l 288 858 l 399 1001 l 511 858 l 626 858 l 468 1119 l 329 1119 z "},"␆":{"ha":806,"x_min":0,"x_max":0,"o":"m 90 868 l 121 992 l 267 992 l 297 868 l 388 868 l 258 1354 l 131 1354 l 1 868 z m 143 1072 l 193 1263 l 196 1263 l 244 1072 z m 489 376 b 421 321 483 343 457 321 b 322 486 361 321 322 385 b 419 651 322 588 361 651 b 486 603 451 651 478 633 l 578 603 b 421 736 567 681 503 736 b 231 486 308 736 231 633 b 422 236 231 339 310 236 b 582 376 507 236 574 294 z m 535 104 l 443 104 l 443 -382 l 535 -382 l 535 -237 l 590 -169 l 717 -382 l 821 -382 l 650 -96 l 814 104 l 704 104 l 535 -104 z "},"´":{"ha":806,"x_min":0,"x_max":0,"o":"m 628 1083 l 422 1083 l 179 719 l 328 719 z "},"́":{"ha":806,"x_min":0,"x_max":0,"o":"m 549 1138 l 367 1138 l 258 869 l 379 869 z "},"ä":{"ha":806,"x_min":0,"x_max":0,"o":"m 540 528 b 469 454 540 482 518 458 l 411 449 b 90 215 196 429 90 354 b 332 -14 90 81 190 -14 b 544 108 429 -14 503 31 l 551 108 b 574 0 556 65 564 29 l 710 0 b 682 268 692 71 682 160 l 682 528 b 403 764 682 669 569 764 b 118 550 240 764 121 674 l 256 550 b 401 644 263 607 322 644 b 540 528 488 644 540 600 z m 360 100 b 233 218 283 100 233 147 b 425 351 233 294 290 335 l 479 358 b 540 378 504 361 524 368 l 540 288 b 360 100 540 182 461 100 z m 144 982 b 250 876 144 924 192 876 b 356 982 310 876 356 924 b 250 1088 356 1042 310 1088 b 144 982 192 1088 144 1042 z m 442 982 b 547 876 442 924 489 876 b 653 982 607 876 653 924 b 547 1088 653 1042 607 1088 b 442 982 489 1088 442 1042 z "},"æ":{"ha":806,"x_min":0,"x_max":0,"o":"m 199 -14 b 392 138 289 -14 357 42 l 397 138 b 582 -14 433 40 497 -14 b 796 200 692 -14 781 76 l 679 200 b 581 103 669 142 628 103 b 458 338 510 103 465 190 l 801 338 l 801 393 b 575 764 801 613 710 764 b 401 624 497 764 439 714 l 396 624 b 218 764 364 713 301 764 b 15 550 108 764 21 674 l 136 550 b 225 647 142 607 182 647 b 325 482 283 647 325 576 l 325 447 l 265 447 b 4 206 107 447 4 353 b 199 -14 4 76 83 -14 z m 460 447 b 571 649 469 575 508 649 b 676 447 632 649 672 572 z m 325 338 l 325 306 b 208 103 325 189 276 103 b 129 210 161 103 129 146 b 265 338 129 290 181 338 z "},"ǽ":{"ha":806,"x_min":0,"x_max":0,"o":"m 199 -14 b 392 138 289 -14 357 42 l 397 138 b 582 -14 433 40 497 -14 b 796 200 692 -14 781 76 l 679 200 b 581 103 669 142 628 103 b 458 338 510 103 465 190 l 801 338 l 801 393 b 575 764 801 613 710 764 b 401 624 497 764 439 714 l 396 624 b 218 764 364 713 301 764 b 15 550 108 764 21 674 l 136 550 b 225 647 142 607 182 647 b 325 482 283 647 325 576 l 325 447 l 265 447 b 4 206 107 447 4 353 b 199 -14 4 76 83 -14 z m 460 447 b 571 649 469 575 508 649 b 676 447 632 649 672 572 z m 325 338 l 325 306 b 208 103 325 189 276 103 b 129 210 161 103 129 146 b 265 338 129 290 181 338 z m 603 1140 l 421 1140 l 313 872 l 433 872 z "},"à":{"ha":806,"x_min":0,"x_max":0,"o":"m 540 528 b 469 454 540 482 518 458 l 411 449 b 90 215 196 429 90 354 b 332 -14 90 81 190 -14 b 544 108 429 -14 503 31 l 551 108 b 574 0 556 65 564 29 l 710 0 b 682 268 692 71 682 160 l 682 528 b 403 764 682 669 569 764 b 118 550 240 764 121 674 l 256 550 b 401 644 263 607 322 644 b 540 528 488 644 540 600 z m 360 100 b 233 218 283 100 233 147 b 425 351 233 294 290 335 l 479 358 b 540 378 504 361 524 368 l 540 288 b 360 100 540 182 461 100 z m 489 869 l 381 1138 l 199 1138 l 368 869 z "},"α":{"ha":806,"x_min":0,"x_max":0,"o":"m 350 764 b 47 375 176 764 47 599 b 350 -14 47 153 176 -14 b 581 160 453 -14 531 44 l 614 0 l 757 0 l 678 375 l 757 750 l 614 750 l 581 590 b 350 764 531 706 453 764 z m 532 306 b 367 115 506 182 449 115 b 189 375 264 115 189 225 b 367 635 189 525 264 635 b 532 444 447 635 506 568 l 547 375 z "},"ά":{"ha":806,"x_min":0,"x_max":0,"o":"m 350 764 b 47 375 176 764 47 599 b 350 -14 47 153 176 -14 b 581 160 453 -14 531 44 l 614 0 l 757 0 l 678 375 l 757 750 l 614 750 l 581 590 b 350 764 531 706 453 764 z m 532 306 b 367 115 506 182 449 115 b 189 375 264 115 189 225 b 367 635 189 525 264 635 b 532 444 447 635 506 568 l 547 375 z m 526 1151 l 360 1151 l 317 858 l 425 858 z "},"⎇":{"ha":806,"x_min":0,"x_max":0,"o":"m 582 856 l 815 856 l 815 976 l 501 976 l 144 122 l -10 122 l -10 1 l 225 1 z m 815 1 l 815 122 l 463 122 l 463 1 z "},"ā":{"ha":806,"x_min":0,"x_max":0,"o":"m 540 528 b 469 454 540 482 518 458 l 411 449 b 90 215 196 429 90 354 b 332 -14 90 81 190 -14 b 544 108 429 -14 503 31 l 551 108 b 574 0 556 65 564 29 l 710 0 b 682 268 692 71 682 160 l 682 528 b 403 764 682 669 569 764 b 118 550 240 764 121 674 l 256 550 b 401 644 263 607 322 644 b 540 528 488 644 540 600 z m 360 100 b 233 218 283 100 233 147 b 425 351 233 294 290 335 l 479 358 b 540 378 504 361 524 368 l 540 288 b 360 100 540 182 461 100 z m 181 910 l 617 910 l 617 1028 l 181 1028 z "},"&":{"ha":806,"x_min":0,"x_max":0,"o":"m 625 0 l 804 0 l 622 210 b 744 493 674 288 715 383 l 603 493 b 531 314 585 428 560 367 l 374 496 l 392 508 b 549 761 493 579 549 667 b 307 986 549 890 447 986 b 67 758 167 986 67 889 b 165 529 67 682 100 604 l 178 515 b 13 229 69 431 13 335 b 268 -19 13 86 119 -19 b 535 103 364 -19 456 25 z m 278 110 b 154 238 206 110 154 163 b 263 417 154 301 192 361 l 450 201 b 278 110 396 143 336 110 z m 208 754 b 311 857 208 814 250 857 b 411 758 369 857 411 815 b 315 613 411 706 378 657 l 289 593 l 278 606 b 208 754 232 658 208 708 z "},"ą":{"ha":806,"x_min":0,"x_max":0,"o":"m 707 -278 l 707 -178 b 674 -182 697 -181 683 -182 b 593 -114 626 -182 593 -156 b 710 0 593 -69 631 -32 b 682 268 692 71 682 160 l 682 528 b 403 764 682 669 569 764 b 118 550 240 764 121 674 l 256 550 b 401 644 263 607 322 644 b 540 528 488 644 540 600 b 469 454 540 482 518 458 l 411 449 b 90 215 196 429 90 354 b 332 -14 90 81 190 -14 b 544 108 429 -14 503 31 l 551 108 b 569 13 556 71 561 39 b 472 -137 506 -28 472 -79 b 649 -285 472 -225 544 -285 b 707 -278 671 -285 692 -282 z m 360 100 b 233 218 283 100 233 147 b 425 351 233 294 290 335 l 479 358 b 540 378 504 361 524 368 l 540 288 b 360 100 540 182 461 100 z "},"":{"ha":806,"x_min":0,"x_max":0,"o":"m -14 0 l 819 0 l 819 972 l -14 972 z m 486 243 l 425 243 l 425 729 l 518 729 l 604 425 l 607 425 l 694 729 l 786 729 l 786 243 l 726 243 l 726 654 l 724 654 l 635 347 l 576 347 l 489 654 l 486 654 z m 372 368 b 215 236 361 292 296 236 b 29 486 106 236 29 339 b 215 736 29 635 106 736 b 367 611 293 736 356 685 l 304 611 b 215 678 296 651 260 678 b 94 486 142 678 94 601 b 217 296 94 371 143 296 b 310 368 264 296 300 325 z "},"≈":{"ha":806,"x_min":0,"x_max":0,"o":"m 58 468 l 185 468 l 186 510 b 256 625 189 588 213 625 b 546 440 350 625 368 440 b 747 667 668 440 747 529 l 747 718 l 621 718 l 619 676 b 550 561 617 599 593 561 b 260 746 454 561 438 746 b 58 519 138 746 58 657 z m 58 143 l 185 143 l 186 185 b 256 300 189 263 213 300 b 546 115 350 300 368 115 b 747 342 668 115 747 204 l 747 393 l 621 393 l 619 351 b 550 236 617 274 593 236 b 260 421 454 236 438 421 b 58 194 138 421 58 332 z "},"å":{"ha":806,"x_min":0,"x_max":0,"o":"m 540 528 b 469 454 540 482 518 458 l 411 449 b 90 215 196 429 90 354 b 332 -14 90 81 190 -14 b 544 108 429 -14 503 31 l 551 108 b 574 0 556 65 564 29 l 710 0 b 682 268 692 71 682 160 l 682 528 b 403 764 682 669 569 764 b 118 550 240 764 121 674 l 256 550 b 401 644 263 607 322 644 b 540 528 488 644 540 600 z m 360 100 b 233 218 283 100 233 147 b 425 351 233 294 290 335 l 479 358 b 540 378 504 361 524 368 l 540 288 b 360 100 540 182 461 100 z m 225 1013 b 400 840 225 915 303 840 b 572 1011 496 840 572 915 b 399 1178 572 1107 497 1178 b 225 1013 300 1178 225 1107 z m 399 932 b 324 1010 356 932 324 965 b 399 1086 324 1053 356 1086 b 474 1010 442 1086 474 1053 b 399 932 474 965 442 932 z "},"ǻ":{"ha":806,"x_min":0,"x_max":0,"o":"m 540 528 b 469 454 540 482 518 458 l 411 449 b 90 215 196 429 90 354 b 332 -14 90 81 190 -14 b 544 108 429 -14 503 31 l 551 108 b 574 0 556 65 564 29 l 710 0 b 682 268 692 71 682 160 l 682 528 b 403 764 682 669 569 764 b 118 550 240 764 121 674 l 256 550 b 401 644 263 607 322 644 b 540 528 488 644 540 600 z m 603 1360 l 421 1360 l 343 1169 b 229 1011 276 1147 229 1086 b 403 840 229 915 307 840 b 576 1011 500 840 576 915 b 478 1163 576 1081 538 1136 z m 360 100 b 233 218 283 100 233 147 b 425 351 233 294 290 335 l 479 358 b 540 378 504 361 524 368 l 540 288 b 360 100 540 182 461 100 z m 403 932 b 328 1010 360 932 328 965 b 403 1086 328 1053 360 1086 b 478 1010 446 1086 478 1053 b 403 932 478 965 446 932 z "},"↔":{"ha":806,"x_min":0,"x_max":0,"o":"m 225 421 l 581 421 l 583 415 l 464 297 l 554 207 l 833 486 l 554 765 l 464 675 l 583 557 l 581 551 l 225 551 l 222 557 l 342 675 l 251 765 l -28 486 l 251 207 l 342 297 l 222 415 z "},"⇒":{"ha":806,"x_min":0,"x_max":0,"o":"m 292 69 l 382 -21 l 833 431 l 382 882 l 292 792 l 457 628 l -21 628 l -21 504 l 581 504 l 653 431 l 581 357 l -21 357 l -21 233 l 457 233 z "},"↓":{"ha":806,"x_min":0,"x_max":0,"o":"m 469 240 l 469 972 l 338 972 l 338 240 l 332 238 l 167 403 l 76 313 l 403 -14 l 729 313 l 639 403 l 475 238 z "},"⌤":{"ha":806,"x_min":0,"x_max":0,"o":"m 125 324 l 269 324 l 403 533 l 536 324 l 681 324 l 474 650 l 332 650 z m -10 650 l -10 529 l 213 529 l 213 650 z m 590 650 l 590 529 l 813 529 l 813 650 z "},"←":{"ha":806,"x_min":0,"x_max":0,"o":"m 225 421 l 826 421 l 826 551 l 225 551 l 222 557 l 389 722 l 299 813 l -28 486 l 299 160 l 389 250 l 222 415 z "},"→":{"ha":806,"x_min":0,"x_max":0,"o":"m 583 415 l 417 250 l 507 160 l 833 486 l 507 813 l 417 722 l 583 557 l 581 551 l -21 551 l -21 421 l 581 421 z "},"➜":{"ha":806,"x_min":0,"x_max":0,"o":"m 583 415 l 417 250 l 507 160 l 833 486 l 507 813 l 417 722 l 583 557 l 581 551 l -21 551 l -21 421 l 581 421 z "},"↑":{"ha":806,"x_min":0,"x_max":0,"o":"m 338 732 l 338 0 l 469 0 l 469 732 l 475 735 l 639 569 l 729 660 l 403 986 l 76 660 l 167 569 l 332 735 z "},"↕":{"ha":806,"x_min":0,"x_max":0,"o":"m 338 732 l 338 240 l 332 238 l 186 383 l 96 293 l 403 -14 l 710 293 l 619 383 l 474 238 l 468 240 l 468 732 l 474 735 l 619 589 l 710 679 l 403 986 l 96 679 l 186 589 l 332 735 z "},"↨":{"ha":806,"x_min":0,"x_max":0,"o":"m 338 732 l 338 240 l 332 238 l 186 383 l 96 293 l 403 -14 l 710 293 l 619 383 l 474 238 l 468 240 l 468 732 l 474 735 l 619 589 l 710 679 l 403 986 l 96 679 l 186 589 l 332 735 z m 83 -189 l 722 -189 l 722 -60 l 83 -60 z "},"^":{"ha":806,"x_min":0,"x_max":0,"o":"m 82 503 l 225 503 l 403 844 l 581 503 l 724 503 l 481 972 l 325 972 z "},"~":{"ha":806,"x_min":0,"x_max":0,"o":"m 58 306 l 185 306 l 186 347 b 256 463 189 425 213 463 b 546 278 350 463 368 278 b 747 504 668 278 747 367 l 747 556 l 621 556 l 619 514 b 550 399 617 436 593 399 b 260 583 454 399 438 583 b 58 357 138 583 58 494 z "},"*":{"ha":806,"x_min":0,"x_max":0,"o":"m 465 496 l 465 751 l 342 751 l 342 496 l 97 575 l 60 458 l 303 379 l 153 172 l 253 99 l 403 306 l 553 99 l 653 172 l 503 379 l 746 458 l 708 575 z "},"∗":{"ha":806,"x_min":0,"x_max":0,"o":"m 465 551 l 465 807 l 342 807 l 342 551 l 97 631 l 60 514 l 303 435 l 153 228 l 253 154 l 403 361 l 553 154 l 653 228 l 503 435 l 746 514 l 708 631 z "},"@":{"ha":806,"x_min":0,"x_max":0,"o":"m 482 176 b 635 260 544 176 597 207 l 640 260 l 636 186 l 758 186 l 779 583 b 463 931 790 792 663 931 b 18 417 210 931 18 710 b 454 -69 18 132 199 -69 b 729 40 567 -69 664 -31 l 653 117 b 457 42 604 68 533 42 b 139 421 269 42 139 200 b 463 821 139 647 279 821 b 667 603 593 821 674 733 l 661 603 b 507 703 631 665 576 703 b 289 426 383 703 289 583 b 482 176 289 282 369 176 z m 526 289 b 417 429 463 289 417 347 b 542 590 417 519 472 590 b 649 449 604 590 649 532 b 526 289 649 357 596 289 z "},"ã":{"ha":806,"x_min":0,"x_max":0,"o":"m 540 528 b 469 454 540 482 518 458 l 411 449 b 90 215 196 429 90 354 b 332 -14 90 81 190 -14 b 544 108 429 -14 503 31 l 551 108 b 574 0 556 65 564 29 l 710 0 b 682 268 692 71 682 160 l 682 528 b 403 764 682 669 569 764 b 118 550 240 764 121 674 l 256 550 b 401 644 263 607 322 644 b 540 528 488 644 540 600 z m 360 100 b 233 218 283 100 233 147 b 425 351 233 294 290 335 l 479 358 b 540 378 504 361 524 368 l 540 288 b 360 100 540 182 461 100 z m 149 904 l 269 904 l 269 933 b 304 1008 271 985 283 1008 b 496 885 350 1008 367 885 b 649 1057 590 885 649 951 l 649 1100 l 529 1100 l 528 1071 b 496 996 526 1019 517 996 b 301 1119 449 996 431 1119 b 149 947 207 1119 149 1054 z "},"b":{"ha":806,"x_min":0,"x_max":0,"o":"m 99 0 l 233 0 l 233 133 l 239 133 b 457 -14 283 38 357 -14 b 760 375 633 -14 760 149 b 457 764 760 601 633 764 b 246 632 363 764 290 717 l 240 632 l 240 1028 l 99 1028 z m 428 115 b 238 375 315 115 238 222 b 428 635 238 528 315 635 b 617 375 539 635 617 529 b 428 115 617 222 539 115 z "},"\\":{"ha":806,"x_min":0,"x_max":0,"o":"m 204 1097 l 64 1097 l 601 -236 l 743 -236 z "},"␈":{"ha":806,"x_min":0,"x_max":0,"o":"m 149 556 l 322 556 b 471 696 408 556 471 615 b 404 810 471 746 444 788 l 404 813 b 456 913 436 835 456 869 b 315 1042 456 986 396 1042 l 149 1042 z m 240 847 l 240 961 l 315 961 b 367 904 346 961 367 936 b 315 847 367 872 346 847 z m 240 636 l 240 768 l 322 768 b 378 701 356 768 378 740 b 322 636 378 664 356 636 z m 375 -69 l 668 -69 l 668 11 l 467 11 l 467 143 l 643 143 l 643 222 l 467 222 l 467 336 l 668 336 l 668 417 l 375 417 z "},"✗":{"ha":806,"x_min":0,"x_max":0,"o":"m 100 -37 b 396 396 181 104 278 246 b 728 -7 507 268 615 136 l 829 69 b 482 501 708 225 596 367 b 829 885 583 622 699 750 l 740 974 b 397 601 614 846 500 721 b 71 963 292 722 185 842 l -24 861 b 310 496 93 738 203 618 b -24 32 175 332 64 176 z "},"|":{"ha":806,"x_min":0,"x_max":0,"o":"m 338 -236 l 468 -236 l 468 1097 l 338 1097 z "},"␇":{"ha":806,"x_min":0,"x_max":0,"o":"m 44 868 l 218 868 b 367 1008 304 868 367 928 b 300 1122 367 1058 340 1100 l 300 1125 b 351 1225 332 1147 351 1182 b 211 1354 351 1299 292 1354 l 44 1354 z m 136 1160 l 136 1274 l 211 1274 b 263 1217 242 1274 263 1249 b 211 1160 263 1185 242 1160 z m 136 949 l 136 1081 l 218 1081 b 274 1014 251 1081 274 1053 b 218 949 274 976 251 949 z m 271 243 l 564 243 l 564 324 l 363 324 l 363 456 l 539 456 l 539 535 l 363 535 l 363 649 l 564 649 l 564 729 l 271 729 z m 482 -382 l 769 -382 l 769 -301 l 574 -301 l 574 104 l 482 104 z "},"β":{"ha":806,"x_min":0,"x_max":0,"o":"m 251 82 l 257 82 b 454 -14 303 21 372 -14 b 739 297 617 -14 739 119 b 572 567 739 425 675 522 b 685 783 642 608 685 686 b 400 1056 685 943 568 1056 b 110 750 226 1056 110 935 l 110 -278 l 251 -278 z m 251 294 l 251 764 b 406 926 251 861 313 926 b 549 775 494 926 549 869 b 406 613 549 679 492 613 l 351 613 l 351 483 l 425 483 b 597 301 526 483 597 407 b 422 115 597 193 524 115 b 251 294 324 115 251 189 z "},"␢":{"ha":806,"x_min":0,"x_max":0,"o":"m -14 656 l 99 715 l 99 0 l 233 0 l 233 133 l 239 133 b 457 -14 283 38 357 -14 b 760 375 633 -14 760 149 b 457 764 760 601 633 764 b 246 632 363 764 290 717 l 240 632 l 240 790 l 428 890 l 428 1001 l 240 901 l 240 1028 l 99 1028 l 99 826 l -14 767 z m 428 115 b 238 375 315 115 238 222 b 428 635 238 528 315 635 b 617 375 539 635 617 529 b 428 115 617 222 539 115 z "},"█":{"ha":806,"x_min":0,"x_max":0,"o":"m -14 -278 l 819 -278 l 819 1250 l -14 1250 z "},"⌨":{"ha":806,"x_min":0,"x_max":0,"o":"m 819 194 l 819 778 l -14 778 l -14 194 z m 69 272 l 69 700 l 736 700 l 736 272 z m 125 561 l 208 561 l 208 644 l 125 644 z m 264 561 l 347 561 l 347 644 l 264 644 z m 403 561 l 486 561 l 486 644 l 403 644 z m 597 436 l 681 436 l 681 644 l 542 644 l 542 561 l 597 561 z m 181 436 l 264 436 l 264 519 l 181 519 z m 319 436 l 403 436 l 403 519 l 319 519 z m 458 436 l 542 436 l 542 519 l 458 519 z m 264 319 l 542 319 l 542 389 l 264 389 z "},"{":{"ha":806,"x_min":0,"x_max":0,"o":"m 301 433 b 464 689 404 450 471 554 l 457 835 b 588 968 453 919 500 968 l 688 968 l 688 1097 l 582 1097 b 314 828 403 1097 306 999 l 322 686 b 156 497 328 569 264 497 l 92 497 l 92 365 l 156 365 b 322 176 264 365 328 292 l 314 35 b 582 -236 306 -137 403 -236 l 697 -236 l 697 -107 l 588 -107 b 457 26 500 -107 453 -58 l 464 172 b 301 428 471 307 404 413 z "},"}":{"ha":806,"x_min":0,"x_max":0,"o":"m 504 428 b 342 172 401 413 335 307 l 349 26 b 218 -107 353 -58 307 -107 l 108 -107 l 108 -236 l 225 -236 b 492 35 403 -236 501 -137 l 485 176 b 650 365 479 292 542 365 l 714 365 l 714 497 l 650 497 b 485 686 542 497 479 569 l 492 828 b 225 1097 501 999 403 1097 l 118 1097 l 118 968 l 218 968 b 349 835 307 968 353 919 l 342 689 b 504 433 335 554 401 450 z "},"[":{"ha":806,"x_min":0,"x_max":0,"o":"m 240 -236 l 672 -236 l 672 -107 l 382 -107 l 382 968 l 672 968 l 672 1097 l 240 1097 z "},"]":{"ha":806,"x_min":0,"x_max":0,"o":"m 565 1097 l 133 1097 l 133 968 l 424 968 l 424 -107 l 133 -107 l 133 -236 l 565 -236 z "},"⟦":{"ha":806,"x_min":0,"x_max":0,"o":"m 118 -236 l 757 -236 l 757 -107 l 517 -107 l 517 968 l 757 968 l 757 1097 l 118 1097 z m 260 -107 l 260 968 l 375 968 l 375 -107 z "},"⟧":{"ha":806,"x_min":0,"x_max":0,"o":"m 688 -236 l 688 1097 l 49 1097 l 49 968 l 289 968 l 289 -107 l 49 -107 l 49 -236 z m 546 -107 l 431 -107 l 431 968 l 546 968 z "},"⠀":{"ha":806,"x_min":0,"x_max":0,"o":""},"˘":{"ha":806,"x_min":0,"x_max":0,"o":"m 319 1067 l 204 1067 b 403 863 204 947 288 863 b 601 1067 518 863 601 947 l 488 1067 b 403 969 482 1008 449 969 b 319 1067 357 969 325 1007 z "},"¦":{"ha":806,"x_min":0,"x_max":0,"o":"m 338 -236 l 468 -236 l 468 329 l 338 329 z m 338 532 l 468 532 l 468 1097 l 338 1097 z "},"⎋":{"ha":806,"x_min":0,"x_max":0,"o":"m 28 486 b 403 111 28 279 196 111 b 778 486 610 111 778 279 b 403 861 778 693 610 861 l 403 778 b 694 486 564 778 694 647 b 403 194 694 325 564 194 b 111 486 242 194 111 325 z m 371 460 l 431 519 l 190 760 l 306 875 l 14 875 l 14 583 l 131 700 z "},"•":{"ha":806,"x_min":0,"x_max":0,"o":"m 215 431 b 403 243 215 326 299 243 b 590 431 507 243 590 326 b 403 618 590 535 507 618 b 215 431 299 618 215 535 z "},"∙":{"ha":806,"x_min":0,"x_max":0,"o":"m 215 431 b 403 243 215 326 299 243 b 590 431 507 243 590 326 b 403 618 590 535 507 618 b 215 431 299 618 215 535 z "},"c":{"ha":806,"x_min":0,"x_max":0,"o":"m 579 200 b 438 115 561 147 507 115 b 231 379 311 115 231 221 b 429 635 231 533 308 635 b 571 550 497 635 551 603 l 711 550 b 429 764 690 676 575 764 b 89 378 232 764 89 601 b 432 -14 89 153 235 -14 b 721 200 575 -14 694 74 z "},"ć":{"ha":806,"x_min":0,"x_max":0,"o":"m 579 200 b 438 115 561 147 507 115 b 231 379 311 115 231 221 b 429 635 231 533 308 635 b 571 550 497 635 551 603 l 711 550 b 429 764 690 676 575 764 b 89 378 232 764 89 601 b 432 -14 89 153 235 -14 b 721 200 575 -14 694 74 z m 628 1138 l 446 1138 l 338 869 l 458 869 z "},"␘":{"ha":806,"x_min":0,"x_max":0,"o":"m 281 1001 b 213 946 275 968 249 946 b 114 1111 153 946 114 1010 b 211 1276 114 1213 153 1276 b 278 1228 243 1276 269 1258 l 369 1228 b 213 1361 358 1306 294 1361 b 22 1111 100 1361 22 1258 b 214 861 22 964 101 861 b 374 1001 299 861 365 919 z m 299 243 l 329 367 l 475 367 l 506 243 l 596 243 l 467 729 l 339 729 l 210 243 z m 351 447 l 401 638 l 404 638 l 453 447 z m 699 -247 l 696 -247 l 578 104 l 440 104 l 440 -382 l 524 -382 l 524 17 l 526 17 l 661 -382 l 783 -382 l 783 104 l 699 104 z "},"℅":{"ha":806,"x_min":0,"x_max":0,"o":"m 599 -14 b 803 213 715 -14 803 82 b 599 438 803 343 715 438 b 394 213 481 438 394 343 b 599 -14 394 82 481 -14 z m 599 83 b 503 213 542 83 503 136 b 599 340 503 289 542 340 b 693 213 654 340 693 289 b 599 83 693 136 654 83 z m 24 0 l 163 0 l 783 972 l 643 972 z m 281 699 b 217 665 272 678 247 665 b 114 796 154 665 114 717 b 211 919 114 872 151 919 b 275 886 242 919 265 907 l 390 886 b 213 1018 378 965 304 1018 b 4 796 92 1018 4 925 b 214 567 4 665 93 567 b 396 699 304 567 379 621 z "},"ˇ":{"ha":806,"x_min":0,"x_max":0,"o":"m 333 858 l 472 858 l 631 1119 l 515 1119 l 403 978 l 292 1119 l 175 1119 z "},"␍":{"ha":806,"x_min":0,"x_max":0,"o":"m 385 689 b 317 633 379 656 353 633 b 218 799 257 633 218 697 b 315 964 218 900 257 964 b 382 915 347 964 374 946 l 474 915 b 317 1049 463 993 399 1049 b 126 799 204 1049 126 946 b 318 549 126 651 206 549 b 478 689 403 549 469 607 z m 446 210 l 446 336 l 531 336 b 596 272 569 336 596 310 b 531 210 596 235 569 210 z m 354 -69 l 446 -69 l 446 131 l 501 131 l 599 -69 l 700 -69 l 596 142 b 683 272 650 164 683 211 b 528 417 683 357 619 417 l 354 417 z "},"č":{"ha":806,"x_min":0,"x_max":0,"o":"m 579 200 b 438 115 561 147 507 115 b 231 379 311 115 231 221 b 429 635 231 533 308 635 b 571 550 497 635 551 603 l 711 550 b 429 764 690 676 575 764 b 89 378 232 764 89 601 b 432 -14 89 153 235 -14 b 721 200 575 -14 694 74 z m 358 858 l 497 858 l 656 1119 l 540 1119 l 428 978 l 317 1119 l 200 1119 z "},"ç":{"ha":806,"x_min":0,"x_max":0,"o":"m 378 -225 l 268 -225 b 451 -379 271 -314 349 -379 b 635 -218 556 -379 635 -310 b 460 -74 635 -126 556 -60 l 469 -11 b 721 200 596 3 697 85 l 579 200 b 438 115 561 147 507 115 b 231 379 311 115 231 221 b 429 635 231 533 308 635 b 571 550 497 635 551 603 l 711 550 b 429 764 690 676 575 764 b 89 378 232 764 89 601 b 354 -4 89 183 197 33 l 328 -149 l 403 -169 b 453 -153 415 -158 433 -153 b 525 -219 494 -153 525 -181 b 453 -286 525 -258 496 -286 b 378 -225 413 -286 382 -261 z "},"ĉ":{"ha":806,"x_min":0,"x_max":0,"o":"m 579 200 b 438 115 561 147 507 115 b 231 379 311 115 231 221 b 429 635 231 533 308 635 b 571 550 497 635 551 603 l 711 550 b 429 764 690 676 575 764 b 89 378 232 764 89 601 b 432 -14 89 153 235 -14 b 721 200 575 -14 694 74 z m 200 858 l 317 858 l 428 1001 l 540 858 l 656 858 l 497 1119 l 358 1119 z "},"ċ":{"ha":806,"x_min":0,"x_max":0,"o":"m 579 200 b 438 115 561 147 507 115 b 231 379 311 115 231 221 b 429 635 231 533 308 635 b 571 550 497 635 551 603 l 711 550 b 429 764 690 676 575 764 b 89 378 232 764 89 601 b 432 -14 89 153 235 -14 b 721 200 575 -14 694 74 z m 314 982 b 428 868 314 919 365 868 b 542 982 492 868 542 919 b 428 1097 542 1047 492 1097 b 314 982 365 1097 314 1047 z "},"¸":{"ha":806,"x_min":0,"x_max":0,"o":"m 338 -225 l 228 -225 b 410 -379 231 -314 308 -379 b 594 -218 515 -379 594 -310 b 419 -74 594 -126 515 -60 l 439 44 l 322 44 l 288 -149 l 363 -169 b 413 -153 375 -158 393 -153 b 485 -219 454 -153 485 -181 b 413 -286 485 -258 456 -286 b 338 -225 372 -286 342 -261 z "},"¢":{"ha":806,"x_min":0,"x_max":0,"o":"m 361 -167 l 460 -167 l 460 -12 b 721 200 590 -3 697 81 l 575 200 b 460 117 558 154 515 124 l 460 632 b 567 550 511 624 550 593 l 711 550 b 460 763 692 668 590 751 l 460 917 l 361 917 l 361 757 b 89 378 200 725 89 575 b 361 -7 89 181 200 29 z m 231 379 b 361 624 231 503 281 593 l 361 129 b 231 379 281 163 231 254 z "},"✓":{"ha":806,"x_min":0,"x_max":0,"o":"m 275 0 l 413 0 l 829 935 l 708 988 l 340 158 l 335 158 l 90 592 l -24 531 z "},"χ":{"ha":806,"x_min":0,"x_max":0,"o":"m 54 -278 l 201 -278 l 388 101 l 479 -99 b 706 -285 533 -218 586 -285 b 775 -274 729 -285 751 -282 l 775 -153 b 726 -162 760 -160 743 -162 b 613 -61 668 -162 643 -129 l 482 228 l 739 750 l 592 750 l 411 383 l 326 571 b 100 757 272 690 219 757 b 31 746 76 757 54 754 l 31 625 b 79 635 46 632 63 635 b 193 533 138 635 163 601 l 318 257 z "},"○":{"ha":806,"x_min":0,"x_max":0,"o":"m 28 486 b 403 111 28 279 196 111 b 778 486 610 111 778 279 b 403 861 778 693 610 861 b 28 486 196 861 28 693 z m 111 486 b 403 778 111 647 242 778 b 694 486 564 778 694 647 b 403 194 694 325 564 194 b 111 486 242 194 111 325 z "},"ˆ":{"ha":806,"x_min":0,"x_max":0,"o":"m 175 858 l 292 858 l 403 1001 l 515 858 l 631 858 l 472 1119 l 333 1119 z "},":":{"ha":806,"x_min":0,"x_max":0,"o":"m 283 107 b 403 -12 283 42 338 -12 b 522 107 469 -12 522 42 b 403 226 522 174 469 226 b 283 107 338 226 283 174 z m 283 643 b 403 524 283 578 338 524 b 522 643 469 524 522 578 b 403 763 522 710 469 763 b 283 643 338 763 283 710 z "},",":{"ha":806,"x_min":0,"x_max":0,"o":"m 158 -221 l 290 -221 l 519 181 l 324 181 z "},"̦":{"ha":806,"x_min":0,"x_max":0,"o":"m 546 -100 l 364 -100 l 256 -367 l 376 -367 z "},"≅":{"ha":806,"x_min":0,"x_max":0,"o":"m 58 658 l 185 658 l 186 700 b 256 815 189 778 213 815 b 546 631 350 815 368 631 b 747 857 668 631 747 719 l 747 908 l 621 908 l 619 867 b 550 751 617 789 593 751 b 260 936 454 751 438 936 b 58 710 138 936 58 847 z m 88 421 l 718 421 l 718 551 l 88 551 z m 88 124 l 718 124 l 718 254 l 88 254 z "},"©":{"ha":806,"x_min":0,"x_max":0,"o":"m 403 83 b 806 486 628 83 806 261 b 403 889 806 711 628 889 b 0 486 178 889 0 711 b 403 83 0 261 178 83 z m 403 150 b 74 486 214 150 74 293 b 403 822 74 679 214 822 b 732 486 592 822 732 679 b 403 150 732 293 592 150 z m 494 400 b 414 342 486 364 457 342 b 303 486 347 342 303 397 b 410 631 303 574 346 631 b 492 578 450 631 481 608 l 576 578 b 410 711 563 656 497 711 b 215 486 297 711 215 618 b 410 261 215 353 296 261 b 578 400 501 261 569 319 z "},"¤":{"ha":806,"x_min":0,"x_max":0,"o":"m 161 486 b 193 363 161 440 172 399 l 81 250 l 168 163 l 281 276 b 403 244 317 256 358 244 b 526 276 449 244 490 256 l 639 163 l 726 250 l 613 364 b 644 486 633 399 644 440 b 613 608 644 532 633 574 l 726 722 l 639 810 l 525 696 b 403 728 490 717 449 728 b 281 696 358 728 317 717 l 168 810 l 81 722 l 193 610 b 161 486 172 574 161 532 z m 404 356 b 279 486 335 356 279 414 b 404 617 279 558 335 617 b 526 486 471 617 526 558 b 404 356 526 414 471 356 z "},"d":{"ha":806,"x_min":0,"x_max":0,"o":"m 581 0 l 717 0 b 707 250 711 88 707 179 l 707 1028 l 565 1028 l 565 632 l 558 632 b 350 764 514 717 442 764 b 47 375 176 764 47 599 b 349 -14 47 151 175 -14 b 564 129 446 -14 519 38 l 571 129 b 581 0 572 86 576 46 z m 381 115 b 189 375 269 115 189 226 b 381 635 189 525 271 635 b 568 375 490 635 568 526 b 381 115 568 224 489 115 z "},"†":{"ha":806,"x_min":0,"x_max":0,"o":"m 347 389 l 458 389 l 458 742 l 592 742 l 592 839 l 458 839 l 458 972 l 347 972 l 347 839 l 214 839 l 214 742 l 347 742 z "},"‡":{"ha":806,"x_min":0,"x_max":0,"o":"m 347 389 l 458 389 l 458 517 l 592 517 l 592 614 l 458 614 l 458 747 l 592 747 l 592 844 l 458 844 l 458 972 l 347 972 l 347 844 l 214 844 l 214 747 l 347 747 l 347 614 l 214 614 l 214 517 l 347 517 z "},"␐":{"ha":806,"x_min":0,"x_max":0,"o":"m 36 868 l 179 868 b 382 1111 300 868 382 967 b 179 1354 382 1256 300 1354 l 36 1354 z m 128 949 l 128 1274 l 179 1274 b 289 1111 247 1274 289 1211 b 179 949 289 1011 247 949 z m 274 243 l 561 243 l 561 324 l 365 324 l 365 729 l 274 729 z m 479 -382 l 772 -382 l 772 -301 l 571 -301 l 571 -169 l 747 -169 l 747 -90 l 571 -90 l 571 24 l 772 24 l 772 104 l 479 104 z "},"⇟":{"ha":806,"x_min":0,"x_max":0,"o":"m 199 721 l 338 721 l 338 607 l 199 607 l 199 506 l 338 506 l 338 240 l 332 238 l 167 403 l 76 313 l 403 -14 l 729 313 l 639 403 l 475 238 l 469 240 l 469 506 l 607 506 l 607 607 l 469 607 l 469 721 l 607 721 l 607 822 l 469 822 l 469 972 l 338 972 l 338 822 l 199 822 z "},"⇞":{"ha":806,"x_min":0,"x_max":0,"o":"m 338 746 l 338 481 l 199 481 l 199 379 l 338 379 l 338 265 l 199 265 l 199 164 l 338 164 l 338 14 l 469 14 l 469 164 l 607 164 l 607 265 l 469 265 l 469 379 l 607 379 l 607 481 l 469 481 l 469 746 l 475 749 l 639 583 l 729 674 l 403 1000 l 76 674 l 167 583 l 332 749 z "},"ď":{"ha":806,"x_min":0,"x_max":0,"o":"m 581 0 l 717 0 b 707 250 711 88 707 179 l 707 1028 l 565 1028 l 565 632 l 558 632 b 350 764 514 717 442 764 b 47 375 176 764 47 599 b 349 -14 47 151 175 -14 b 564 129 446 -14 519 38 l 571 129 b 581 0 572 86 576 46 z m 739 714 l 739 613 b 1039 899 910 608 1039 732 b 897 1090 1039 1010 981 1090 b 785 979 833 1090 785 1043 b 875 875 785 922 824 875 b 925 893 894 875 911 882 b 739 714 925 781 849 715 z m 381 115 b 189 375 269 115 189 226 b 381 635 189 525 271 635 b 568 375 490 635 568 526 b 381 115 568 224 489 115 z "},"đ":{"ha":806,"x_min":0,"x_max":0,"o":"m 581 0 l 717 0 b 707 250 711 88 707 179 l 707 833 l 788 833 l 788 932 l 707 932 l 707 1028 l 565 1028 l 565 932 l 379 932 l 379 833 l 565 833 l 565 632 l 558 632 b 350 764 514 717 442 764 b 47 375 176 764 47 599 b 349 -14 47 151 175 -14 b 564 129 446 -14 519 38 l 571 129 b 581 0 572 86 576 46 z m 381 115 b 189 375 269 115 189 226 b 381 635 189 525 271 635 b 568 375 490 635 568 526 b 381 115 568 224 489 115 z "},"°":{"ha":806,"x_min":0,"x_max":0,"o":"m 163 750 b 404 513 163 617 268 513 b 643 750 539 513 643 617 b 404 986 643 882 539 986 b 163 750 268 986 163 882 z m 404 625 b 283 750 335 625 283 679 b 404 874 283 819 335 874 b 524 750 472 874 524 821 b 404 625 524 678 472 625 z "},"␡":{"ha":806,"x_min":0,"x_max":0,"o":"m 36 868 l 179 868 b 382 1111 300 868 382 967 b 179 1354 382 1256 300 1354 l 36 1354 z m 128 949 l 128 1274 l 179 1274 b 289 1111 247 1274 289 1211 b 179 949 289 1011 247 949 z m 271 243 l 564 243 l 564 324 l 363 324 l 363 456 l 539 456 l 539 535 l 363 535 l 363 649 l 564 649 l 564 729 l 271 729 z m 482 -382 l 769 -382 l 769 -301 l 574 -301 l 574 104 l 482 104 z "},"␥":{"ha":806,"x_min":0,"x_max":0,"o":"m -14 319 l -14 192 l 654 972 l 544 972 z m -14 65 l -14 0 l 40 0 l 819 907 l 819 972 l 765 972 z m 151 0 l 261 0 l 819 653 l 819 781 z "},"δ":{"ha":806,"x_min":0,"x_max":0,"o":"m 465 922 b 608 893 518 922 561 913 l 608 1011 b 451 1042 565 1032 514 1042 b 140 815 264 1042 140 950 b 244 636 140 742 178 679 b 68 324 138 576 68 463 b 403 -14 68 128 208 -14 b 736 350 600 -14 736 135 b 476 693 736 526 644 647 l 415 710 b 282 817 324 736 282 768 b 465 922 282 881 353 922 z m 365 586 l 417 572 b 594 349 535 539 594 465 b 400 115 594 213 514 115 b 204 346 288 115 204 213 b 365 586 204 464 271 558 z "},"␔":{"ha":806,"x_min":0,"x_max":0,"o":"m 36 868 l 179 868 b 382 1111 300 868 382 967 b 179 1354 382 1256 300 1354 l 36 1354 z m 128 949 l 128 1274 l 179 1274 b 289 1111 247 1274 289 1211 b 179 949 289 1011 247 949 z m 489 376 b 421 321 483 343 457 321 b 322 486 361 321 322 385 b 419 651 322 588 361 651 b 486 603 451 651 478 633 l 578 603 b 421 736 567 681 503 736 b 231 486 308 736 231 633 b 422 236 231 339 310 236 b 582 376 507 236 574 294 z m 419 -279 l 625 -279 l 625 -382 l 714 -382 l 714 -279 l 792 -279 l 792 -199 l 714 -199 l 714 104 l 588 104 l 419 -192 z m 622 24 l 625 24 l 625 -199 l 500 -199 z "},"␑":{"ha":806,"x_min":0,"x_max":0,"o":"m 36 868 l 179 868 b 382 1111 300 868 382 967 b 179 1354 382 1256 300 1354 l 36 1354 z m 128 949 l 128 1274 l 179 1274 b 289 1111 247 1274 289 1211 b 179 949 289 1011 247 949 z m 489 376 b 421 321 483 343 457 321 b 322 486 361 321 322 385 b 419 651 322 588 361 651 b 486 603 451 651 478 633 l 578 603 b 421 736 567 681 503 736 b 231 486 308 736 231 633 b 422 236 231 339 310 236 b 582 376 507 236 574 294 z m 454 -382 l 782 -382 l 782 -301 l 668 -301 l 668 104 l 593 104 b 460 6 586 32 553 6 l 460 -67 l 575 -68 l 575 -301 l 454 -301 z "},"␓":{"ha":806,"x_min":0,"x_max":0,"o":"m 36 868 l 179 868 b 382 1111 300 868 382 967 b 179 1354 382 1256 300 1354 l 36 1354 z m 128 949 l 128 1274 l 179 1274 b 289 1111 247 1274 289 1211 b 179 949 289 1011 247 949 z m 489 376 b 421 321 483 343 457 321 b 322 486 361 321 322 385 b 419 651 322 588 361 651 b 486 603 451 651 478 633 l 578 603 b 421 736 567 681 503 736 b 231 486 308 736 231 633 b 422 236 231 339 310 236 b 582 376 507 236 574 294 z m 538 -22 b 604 32 539 10 567 32 b 671 -28 642 32 671 8 b 606 -85 671 -61 644 -85 l 565 -85 l 565 -169 l 613 -169 b 688 -239 657 -169 688 -197 b 613 -308 688 -281 657 -308 b 533 -249 569 -308 535 -282 l 446 -249 b 608 -389 446 -329 514 -389 b 776 -240 706 -389 776 -326 b 692 -122 776 -183 746 -142 l 692 -119 b 758 -21 733 -101 758 -68 b 604 111 758 56 694 111 b 451 -22 514 111 451 57 z "},"␒":{"ha":806,"x_min":0,"x_max":0,"o":"m 36 868 l 179 868 b 382 1111 300 868 382 967 b 179 1354 382 1256 300 1354 l 36 1354 z m 128 949 l 128 1274 l 179 1274 b 289 1111 247 1274 289 1211 b 179 949 289 1011 247 949 z m 489 376 b 421 321 483 343 457 321 b 322 486 361 321 322 385 b 419 651 322 588 361 651 b 486 603 451 651 478 633 l 578 603 b 421 736 567 681 503 736 b 231 486 308 736 231 633 b 422 236 231 339 310 236 b 582 376 507 236 574 294 z m 460 -382 l 775 -382 l 775 -301 l 564 -301 b 642 -217 576 -276 600 -251 b 763 -31 726 -146 763 -93 b 604 111 763 53 697 111 b 444 -22 511 111 444 53 l 538 -22 b 606 31 539 7 568 31 b 671 -33 643 31 671 6 b 578 -162 671 -72 644 -108 b 460 -342 490 -232 460 -282 z "},"¨":{"ha":806,"x_min":0,"x_max":0,"o":"m 149 982 b 254 876 149 924 196 876 b 360 982 314 876 360 924 b 254 1088 360 1042 314 1088 b 149 982 196 1088 149 1042 z m 446 982 b 551 876 446 924 493 876 b 657 982 611 876 657 924 b 551 1088 657 1042 611 1088 b 446 982 493 1088 446 1042 z "},"΅":{"ha":806,"x_min":0,"x_max":0,"o":"m 86 982 b 200 868 86 919 138 868 b 314 982 264 868 314 919 b 200 1097 314 1047 264 1097 b 86 982 138 1097 86 1047 z m 492 982 b 606 868 492 919 543 868 b 719 982 669 868 719 919 b 606 1097 719 1047 669 1097 b 492 982 543 1097 492 1047 z m 547 1247 l 381 1247 l 338 954 l 446 954 z "},"÷":{"ha":806,"x_min":0,"x_max":0,"o":"m 88 365 l 718 365 l 718 496 l 88 496 z m 283 676 b 403 557 283 611 338 557 b 522 676 469 557 522 611 b 403 796 522 743 469 796 b 283 676 338 796 283 743 z m 283 185 b 403 65 283 119 338 65 b 522 185 469 65 522 119 b 403 304 522 251 469 304 b 283 185 338 304 283 251 z "},"∕":{"ha":806,"x_min":0,"x_max":0,"o":"m 153 0 l 294 0 l 688 972 l 546 972 z "},"▓":{"ha":806,"x_min":0,"x_max":0,"o":"m 403 1021 l 403 1097 l 486 1097 l 486 1021 z m 569 1021 l 569 1097 l 653 1097 l 653 1021 z m 236 1021 l 236 1097 l 319 1097 l 319 1021 z m 69 1021 l 69 1097 l 153 1097 l 153 1021 z m 153 868 l 153 944 l 236 944 l 236 868 z m 319 868 l 319 944 l 403 944 l 403 868 z m 486 868 l 486 944 l 569 944 l 569 868 z m 653 868 l 653 944 l 736 944 l 736 868 z m 69 715 l 69 792 l 153 792 l 153 715 z m 236 715 l 236 792 l 319 792 l 319 715 z m 403 715 l 403 792 l 486 792 l 486 715 z m 569 715 l 569 792 l 653 792 l 653 715 z m 653 563 l 653 639 l 736 639 l 736 563 z m 153 563 l 153 639 l 236 639 l 236 563 z m 319 563 l 319 639 l 403 639 l 403 563 z m 486 563 l 486 639 l 569 639 l 569 563 z m 236 410 l 236 486 l 319 486 l 319 410 z m 569 410 l 569 486 l 653 486 l 653 410 z m 69 410 l 69 486 l 153 486 l 153 410 z m 403 410 l 403 486 l 486 486 l 486 410 z m 153 257 l 153 333 l 236 333 l 236 257 z m 319 257 l 319 333 l 403 333 l 403 257 z m 486 257 l 486 333 l 569 333 l 569 257 z m 653 257 l 653 333 l 736 333 l 736 257 z m 69 104 l 69 181 l 153 181 l 153 104 z m 236 104 l 236 181 l 319 181 l 319 104 z m 403 104 l 403 181 l 486 181 l 486 104 z m 569 104 l 569 181 l 653 181 l 653 104 z m -14 1174 l -14 944 l 69 944 l 69 868 l -14 868 l -14 639 l 69 639 l 69 563 l -14 563 l -14 333 l 69 333 l 69 257 l -14 257 l -14 28 l 69 28 l 69 -49 l -14 -49 l -14 -278 l 819 -278 l 819 -201 l 736 -201 l 736 -125 l 819 -125 l 819 104 l 736 104 l 736 181 l 819 181 l 819 410 l 736 410 l 736 486 l 819 486 l 819 715 l 736 715 l 736 792 l 819 792 l 819 1021 l 736 1021 l 736 1097 l 819 1097 l 819 1250 l 736 1250 l 736 1174 l 653 1174 l 653 1250 l 569 1250 l 569 1174 l 486 1174 l 486 1250 l 403 1250 l 403 1174 l 319 1174 l 319 1250 l 236 1250 l 236 1174 l 153 1174 l 153 1250 l 69 1250 l 69 1174 z m 153 -49 l 153 28 l 236 28 l 236 -49 z m 319 -49 l 319 28 l 403 28 l 403 -49 z m 486 -49 l 486 28 l 569 28 l 569 -49 z m 653 -49 l 653 28 l 736 28 l 736 -49 z m 69 -201 l 69 -125 l 153 -125 l 153 -201 z m 236 -201 l 236 -125 l 319 -125 l 319 -201 z m 403 -201 l 403 -125 l 486 -125 l 486 -201 z m 569 -201 l 569 -125 l 653 -125 l 653 -201 z "},"$":{"ha":806,"x_min":0,"x_max":0,"o":"m 74 251 b 360 -17 79 108 196 1 l 360 -181 l 460 -181 l 460 -17 b 732 272 624 3 732 115 b 460 547 732 417 640 508 l 460 864 b 597 736 533 849 588 799 l 721 736 b 460 982 714 864 606 961 l 460 1153 l 360 1153 l 360 983 b 99 706 203 967 99 860 b 360 440 99 564 186 476 l 360 101 b 197 251 271 117 206 174 z m 603 267 b 460 104 603 183 546 122 l 460 419 b 603 267 554 392 603 342 z m 228 714 b 360 865 228 793 279 850 l 360 569 b 228 714 271 593 228 640 z "},"˙":{"ha":806,"x_min":0,"x_max":0,"o":"m 289 982 b 403 868 289 919 340 868 b 517 982 467 868 517 919 b 403 1097 517 1047 467 1097 b 289 982 340 1097 289 1047 z "},"ı":{"ha":806,"x_min":0,"x_max":0,"o":"m 132 0 l 707 0 l 707 129 l 490 129 l 490 750 l 139 750 l 139 621 l 349 621 l 349 129 l 132 129 z "},"ȷ":{"ha":806,"x_min":0,"x_max":0,"o":"m 567 -18 l 567 750 l 167 750 l 167 621 l 425 621 l 425 -18 b 285 -172 425 -122 379 -172 b 160 -143 243 -172 200 -162 l 160 -261 b 307 -292 200 -282 253 -292 b 567 -18 478 -292 567 -197 z "},"⠁":{"ha":806,"x_min":0,"x_max":0,"o":"m 349 792 b 250 890 349 847 306 890 b 151 792 194 890 151 847 b 250 693 151 736 194 693 b 349 792 306 693 349 736 z "},"⠃":{"ha":806,"x_min":0,"x_max":0,"o":"m 349 792 b 250 890 349 847 306 890 b 151 792 194 890 151 847 b 250 693 151 736 194 693 b 349 792 306 693 349 736 z m 349 486 b 250 585 349 542 306 585 b 151 486 194 585 151 542 b 250 388 151 431 194 388 b 349 486 306 388 349 431 z "},"⠇":{"ha":806,"x_min":0,"x_max":0,"o":"m 349 792 b 250 890 349 847 306 890 b 151 792 194 890 151 847 b 250 693 151 736 194 693 b 349 792 306 693 349 736 z m 349 486 b 250 585 349 542 306 585 b 151 486 194 585 151 542 b 250 388 151 431 194 388 b 349 486 306 388 349 431 z m 349 181 b 250 279 349 236 306 279 b 151 181 194 279 151 236 b 250 82 151 125 194 82 b 349 181 306 82 349 125 z "},"⠏":{"ha":806,"x_min":0,"x_max":0,"o":"m 349 792 b 250 890 349 847 306 890 b 151 792 194 890 151 847 b 250 693 151 736 194 693 b 349 792 306 693 349 736 z m 349 486 b 250 585 349 542 306 585 b 151 486 194 585 151 542 b 250 388 151 431 194 388 b 349 486 306 388 349 431 z m 349 181 b 250 279 349 236 306 279 b 151 181 194 279 151 236 b 250 82 151 125 194 82 b 349 181 306 82 349 125 z m 654 792 b 556 890 654 847 611 890 b 457 792 500 890 457 847 b 556 693 457 736 500 693 b 654 792 611 693 654 736 z "},"⠟":{"ha":806,"x_min":0,"x_max":0,"o":"m 349 792 b 250 890 349 847 306 890 b 151 792 194 890 151 847 b 250 693 151 736 194 693 b 349 792 306 693 349 736 z m 349 486 b 250 585 349 542 306 585 b 151 486 194 585 151 542 b 250 388 151 431 194 388 b 349 486 306 388 349 431 z m 349 181 b 250 279 349 236 306 279 b 151 181 194 279 151 236 b 250 82 151 125 194 82 b 349 181 306 82 349 125 z m 654 792 b 556 890 654 847 611 890 b 457 792 500 890 457 847 b 556 693 457 736 500 693 b 654 792 611 693 654 736 z m 654 486 b 556 585 654 542 611 585 b 457 486 500 585 457 542 b 556 388 457 431 500 388 b 654 486 611 388 654 431 z "},"⠿":{"ha":806,"x_min":0,"x_max":0,"o":"m 349 792 b 250 890 349 847 306 890 b 151 792 194 890 151 847 b 250 693 151 736 194 693 b 349 792 306 693 349 736 z m 349 486 b 250 585 349 542 306 585 b 151 486 194 585 151 542 b 250 388 151 431 194 388 b 349 486 306 388 349 431 z m 349 181 b 250 279 349 236 306 279 b 151 181 194 279 151 236 b 250 82 151 125 194 82 b 349 181 306 82 349 125 z m 654 792 b 556 890 654 847 611 890 b 457 792 500 890 457 847 b 556 693 457 736 500 693 b 654 792 611 693 654 736 z m 654 486 b 556 585 654 542 611 585 b 457 486 500 585 457 542 b 556 388 457 431 500 388 b 654 486 611 388 654 431 z m 654 181 b 556 279 654 236 611 279 b 457 181 500 279 457 236 b 556 82 457 125 500 82 b 654 181 611 82 654 125 z "},"⡿":{"ha":806,"x_min":0,"x_max":0,"o":"m 349 792 b 250 890 349 847 306 890 b 151 792 194 890 151 847 b 250 693 151 736 194 693 b 349 792 306 693 349 736 z m 349 486 b 250 585 349 542 306 585 b 151 486 194 585 151 542 b 250 388 151 431 194 388 b 349 486 306 388 349 431 z m 349 181 b 250 279 349 236 306 279 b 151 181 194 279 151 236 b 250 82 151 125 194 82 b 349 181 306 82 349 125 z m 654 792 b 556 890 654 847 611 890 b 457 792 500 890 457 847 b 556 693 457 736 500 693 b 654 792 611 693 654 736 z m 654 486 b 556 585 654 542 611 585 b 457 486 500 585 457 542 b 556 388 457 431 500 388 b 654 486 611 388 654 431 z m 654 181 b 556 279 654 236 611 279 b 457 181 500 279 457 236 b 556 82 457 125 500 82 b 654 181 611 82 654 125 z m 349 -125 b 250 -26 349 -69 306 -26 b 151 -125 194 -26 151 -69 b 250 -224 151 -181 194 -224 b 349 -125 306 -224 349 -181 z "},"⣿":{"ha":806,"x_min":0,"x_max":0,"o":"m 349 792 b 250 890 349 847 306 890 b 151 792 194 890 151 847 b 250 693 151 736 194 693 b 349 792 306 693 349 736 z m 349 486 b 250 585 349 542 306 585 b 151 486 194 585 151 542 b 250 388 151 431 194 388 b 349 486 306 388 349 431 z m 349 181 b 250 279 349 236 306 279 b 151 181 194 279 151 236 b 250 82 151 125 194 82 b 349 181 306 82 349 125 z m 654 792 b 556 890 654 847 611 890 b 457 792 500 890 457 847 b 556 693 457 736 500 693 b 654 792 611 693 654 736 z m 654 486 b 556 585 654 542 611 585 b 457 486 500 585 457 542 b 556 388 457 431 500 388 b 654 486 611 388 654 431 z m 654 181 b 556 279 654 236 611 279 b 457 181 500 279 457 236 b 556 82 457 125 500 82 b 654 181 611 82 654 125 z m 349 -125 b 250 -26 349 -69 306 -26 b 151 -125 194 -26 151 -69 b 250 -224 151 -181 194 -224 b 349 -125 306 -224 349 -181 z m 654 -125 b 556 -26 654 -69 611 -26 b 457 -125 500 -26 457 -69 b 556 -224 457 -181 500 -224 b 654 -125 611 -224 654 -181 z "},"⢿":{"ha":806,"x_min":0,"x_max":0,"o":"m 349 792 b 250 890 349 847 306 890 b 151 792 194 890 151 847 b 250 693 151 736 194 693 b 349 792 306 693 349 736 z m 349 486 b 250 585 349 542 306 585 b 151 486 194 585 151 542 b 250 388 151 431 194 388 b 349 486 306 388 349 431 z m 349 181 b 250 279 349 236 306 279 b 151 181 194 279 151 236 b 250 82 151 125 194 82 b 349 181 306 82 349 125 z m 654 792 b 556 890 654 847 611 890 b 457 792 500 890 457 847 b 556 693 457 736 500 693 b 654 792 611 693 654 736 z m 654 486 b 556 585 654 542 611 585 b 457 486 500 585 457 542 b 556 388 457 431 500 388 b 654 486 611 388 654 431 z m 654 181 b 556 279 654 236 611 279 b 457 181 500 279 457 236 b 556 82 457 125 500 82 b 654 181 611 82 654 125 z m 654 -125 b 556 -26 654 -69 611 -26 b 457 -125 500 -26 457 -69 b 556 -224 457 -181 500 -224 b 654 -125 611 -224 654 -181 z "},"⡟":{"ha":806,"x_min":0,"x_max":0,"o":"m 349 792 b 250 890 349 847 306 890 b 151 792 194 890 151 847 b 250 693 151 736 194 693 b 349 792 306 693 349 736 z m 349 486 b 250 585 349 542 306 585 b 151 486 194 585 151 542 b 250 388 151 431 194 388 b 349 486 306 388 349 431 z m 349 181 b 250 279 349 236 306 279 b 151 181 194 279 151 236 b 250 82 151 125 194 82 b 349 181 306 82 349 125 z m 654 792 b 556 890 654 847 611 890 b 457 792 500 890 457 847 b 556 693 457 736 500 693 b 654 792 611 693 654 736 z m 654 486 b 556 585 654 542 611 585 b 457 486 500 585 457 542 b 556 388 457 431 500 388 b 654 486 611 388 654 431 z m 349 -125 b 250 -26 349 -69 306 -26 b 151 -125 194 -26 151 -69 b 250 -224 151 -181 194 -224 b 349 -125 306 -224 349 -181 z "},"⣟":{"ha":806,"x_min":0,"x_max":0,"o":"m 349 792 b 250 890 349 847 306 890 b 151 792 194 890 151 847 b 250 693 151 736 194 693 b 349 792 306 693 349 736 z m 349 486 b 250 585 349 542 306 585 b 151 486 194 585 151 542 b 250 388 151 431 194 388 b 349 486 306 388 349 431 z m 349 181 b 250 279 349 236 306 279 b 151 181 194 279 151 236 b 250 82 151 125 194 82 b 349 181 306 82 349 125 z m 654 792 b 556 890 654 847 611 890 b 457 792 500 890 457 847 b 556 693 457 736 500 693 b 654 792 611 693 654 736 z m 654 486 b 556 585 654 542 611 585 b 457 486 500 585 457 542 b 556 388 457 431 500 388 b 654 486 611 388 654 431 z m 349 -125 b 250 -26 349 -69 306 -26 b 151 -125 194 -26 151 -69 b 250 -224 151 -181 194 -224 b 349 -125 306 -224 349 -181 z m 654 -125 b 556 -26 654 -69 611 -26 b 457 -125 500 -26 457 -69 b 556 -224 457 -181 500 -224 b 654 -125 611 -224 654 -181 z "},"⢟":{"ha":806,"x_min":0,"x_max":0,"o":"m 349 792 b 250 890 349 847 306 890 b 151 792 194 890 151 847 b 250 693 151 736 194 693 b 349 792 306 693 349 736 z m 349 486 b 250 585 349 542 306 585 b 151 486 194 585 151 542 b 250 388 151 431 194 388 b 349 486 306 388 349 431 z m 349 181 b 250 279 349 236 306 279 b 151 181 194 279 151 236 b 250 82 151 125 194 82 b 349 181 306 82 349 125 z m 654 792 b 556 890 654 847 611 890 b 457 792 500 890 457 847 b 556 693 457 736 500 693 b 654 792 611 693 654 736 z m 654 486 b 556 585 654 542 611 585 b 457 486 500 585 457 542 b 556 388 457 431 500 388 b 654 486 611 388 654 431 z m 654 -125 b 556 -26 654 -69 611 -26 b 457 -125 500 -26 457 -69 b 556 -224 457 -181 500 -224 b 654 -125 611 -224 654 -181 z "},"⠯":{"ha":806,"x_min":0,"x_max":0,"o":"m 349 792 b 250 890 349 847 306 890 b 151 792 194 890 151 847 b 250 693 151 736 194 693 b 349 792 306 693 349 736 z m 349 486 b 250 585 349 542 306 585 b 151 486 194 585 151 542 b 250 388 151 431 194 388 b 349 486 306 388 349 431 z m 349 181 b 250 279 349 236 306 279 b 151 181 194 279 151 236 b 250 82 151 125 194 82 b 349 181 306 82 349 125 z m 654 792 b 556 890 654 847 611 890 b 457 792 500 890 457 847 b 556 693 457 736 500 693 b 654 792 611 693 654 736 z m 654 181 b 556 279 654 236 611 279 b 457 181 500 279 457 236 b 556 82 457 125 500 82 b 654 181 611 82 654 125 z "},"⡯":{"ha":806,"x_min":0,"x_max":0,"o":"m 349 792 b 250 890 349 847 306 890 b 151 792 194 890 151 847 b 250 693 151 736 194 693 b 349 792 306 693 349 736 z m 349 486 b 250 585 349 542 306 585 b 151 486 194 585 151 542 b 250 388 151 431 194 388 b 349 486 306 388 349 431 z m 349 181 b 250 279 349 236 306 279 b 151 181 194 279 151 236 b 250 82 151 125 194 82 b 349 181 306 82 349 125 z m 654 792 b 556 890 654 847 611 890 b 457 792 500 890 457 847 b 556 693 457 736 500 693 b 654 792 611 693 654 736 z m 654 181 b 556 279 654 236 611 279 b 457 181 500 279 457 236 b 556 82 457 125 500 82 b 654 181 611 82 654 125 z m 349 -125 b 250 -26 349 -69 306 -26 b 151 -125 194 -26 151 -69 b 250 -224 151 -181 194 -224 b 349 -125 306 -224 349 -181 z "},"⣯":{"ha":806,"x_min":0,"x_max":0,"o":"m 349 792 b 250 890 349 847 306 890 b 151 792 194 890 151 847 b 250 693 151 736 194 693 b 349 792 306 693 349 736 z m 349 486 b 250 585 349 542 306 585 b 151 486 194 585 151 542 b 250 388 151 431 194 388 b 349 486 306 388 349 431 z m 349 181 b 250 279 349 236 306 279 b 151 181 194 279 151 236 b 250 82 151 125 194 82 b 349 181 306 82 349 125 z m 654 792 b 556 890 654 847 611 890 b 457 792 500 890 457 847 b 556 693 457 736 500 693 b 654 792 611 693 654 736 z m 654 181 b 556 279 654 236 611 279 b 457 181 500 279 457 236 b 556 82 457 125 500 82 b 654 181 611 82 654 125 z m 349 -125 b 250 -26 349 -69 306 -26 b 151 -125 194 -26 151 -69 b 250 -224 151 -181 194 -224 b 349 -125 306 -224 349 -181 z m 654 -125 b 556 -26 654 -69 611 -26 b 457 -125 500 -26 457 -69 b 556 -224 457 -181 500 -224 b 654 -125 611 -224 654 -181 z "},"⢯":{"ha":806,"x_min":0,"x_max":0,"o":"m 349 792 b 250 890 349 847 306 890 b 151 792 194 890 151 847 b 250 693 151 736 194 693 b 349 792 306 693 349 736 z m 349 486 b 250 585 349 542 306 585 b 151 486 194 585 151 542 b 250 388 151 431 194 388 b 349 486 306 388 349 431 z m 349 181 b 250 279 349 236 306 279 b 151 181 194 279 151 236 b 250 82 151 125 194 82 b 349 181 306 82 349 125 z m 654 792 b 556 890 654 847 611 890 b 457 792 500 890 457 847 b 556 693 457 736 500 693 b 654 792 611 693 654 736 z m 654 181 b 556 279 654 236 611 279 b 457 181 500 279 457 236 b 556 82 457 125 500 82 b 654 181 611 82 654 125 z m 654 -125 b 556 -26 654 -69 611 -26 b 457 -125 500 -26 457 -69 b 556 -224 457 -181 500 -224 b 654 -125 611 -224 654 -181 z "},"⡏":{"ha":806,"x_min":0,"x_max":0,"o":"m 349 792 b 250 890 349 847 306 890 b 151 792 194 890 151 847 b 250 693 151 736 194 693 b 349 792 306 693 349 736 z m 349 486 b 250 585 349 542 306 585 b 151 486 194 585 151 542 b 250 388 151 431 194 388 b 349 486 306 388 349 431 z m 349 181 b 250 279 349 236 306 279 b 151 181 194 279 151 236 b 250 82 151 125 194 82 b 349 181 306 82 349 125 z m 654 792 b 556 890 654 847 611 890 b 457 792 500 890 457 847 b 556 693 457 736 500 693 b 654 792 611 693 654 736 z m 349 -125 b 250 -26 349 -69 306 -26 b 151 -125 194 -26 151 -69 b 250 -224 151 -181 194 -224 b 349 -125 306 -224 349 -181 z "},"⣏":{"ha":806,"x_min":0,"x_max":0,"o":"m 349 792 b 250 890 349 847 306 890 b 151 792 194 890 151 847 b 250 693 151 736 194 693 b 349 792 306 693 349 736 z m 349 486 b 250 585 349 542 306 585 b 151 486 194 585 151 542 b 250 388 151 431 194 388 b 349 486 306 388 349 431 z m 349 181 b 250 279 349 236 306 279 b 151 181 194 279 151 236 b 250 82 151 125 194 82 b 349 181 306 82 349 125 z m 654 792 b 556 890 654 847 611 890 b 457 792 500 890 457 847 b 556 693 457 736 500 693 b 654 792 611 693 654 736 z m 349 -125 b 250 -26 349 -69 306 -26 b 151 -125 194 -26 151 -69 b 250 -224 151 -181 194 -224 b 349 -125 306 -224 349 -181 z m 654 -125 b 556 -26 654 -69 611 -26 b 457 -125 500 -26 457 -69 b 556 -224 457 -181 500 -224 b 654 -125 611 -224 654 -181 z "},"⢏":{"ha":806,"x_min":0,"x_max":0,"o":"m 349 792 b 250 890 349 847 306 890 b 151 792 194 890 151 847 b 250 693 151 736 194 693 b 349 792 306 693 349 736 z m 349 486 b 250 585 349 542 306 585 b 151 486 194 585 151 542 b 250 388 151 431 194 388 b 349 486 306 388 349 431 z m 349 181 b 250 279 349 236 306 279 b 151 181 194 279 151 236 b 250 82 151 125 194 82 b 349 181 306 82 349 125 z m 654 792 b 556 890 654 847 611 890 b 457 792 500 890 457 847 b 556 693 457 736 500 693 b 654 792 611 693 654 736 z m 654 -125 b 556 -26 654 -69 611 -26 b 457 -125 500 -26 457 -69 b 556 -224 457 -181 500 -224 b 654 -125 611 -224 654 -181 z "},"⠗":{"ha":806,"x_min":0,"x_max":0,"o":"m 349 792 b 250 890 349 847 306 890 b 151 792 194 890 151 847 b 250 693 151 736 194 693 b 349 792 306 693 349 736 z m 349 486 b 250 585 349 542 306 585 b 151 486 194 585 151 542 b 250 388 151 431 194 388 b 349 486 306 388 349 431 z m 349 181 b 250 279 349 236 306 279 b 151 181 194 279 151 236 b 250 82 151 125 194 82 b 349 181 306 82 349 125 z m 654 486 b 556 585 654 542 611 585 b 457 486 500 585 457 542 b 556 388 457 431 500 388 b 654 486 611 388 654 431 z "},"⠷":{"ha":806,"x_min":0,"x_max":0,"o":"m 349 792 b 250 890 349 847 306 890 b 151 792 194 890 151 847 b 250 693 151 736 194 693 b 349 792 306 693 349 736 z m 349 486 b 250 585 349 542 306 585 b 151 486 194 585 151 542 b 250 388 151 431 194 388 b 349 486 306 388 349 431 z m 349 181 b 250 279 349 236 306 279 b 151 181 194 279 151 236 b 250 82 151 125 194 82 b 349 181 306 82 349 125 z m 654 486 b 556 585 654 542 611 585 b 457 486 500 585 457 542 b 556 388 457 431 500 388 b 654 486 611 388 654 431 z m 654 181 b 556 279 654 236 611 279 b 457 181 500 279 457 236 b 556 82 457 125 500 82 b 654 181 611 82 654 125 z "},"⡷":{"ha":806,"x_min":0,"x_max":0,"o":"m 349 792 b 250 890 349 847 306 890 b 151 792 194 890 151 847 b 250 693 151 736 194 693 b 349 792 306 693 349 736 z m 349 486 b 250 585 349 542 306 585 b 151 486 194 585 151 542 b 250 388 151 431 194 388 b 349 486 306 388 349 431 z m 349 181 b 250 279 349 236 306 279 b 151 181 194 279 151 236 b 250 82 151 125 194 82 b 349 181 306 82 349 125 z m 654 486 b 556 585 654 542 611 585 b 457 486 500 585 457 542 b 556 388 457 431 500 388 b 654 486 611 388 654 431 z m 654 181 b 556 279 654 236 611 279 b 457 181 500 279 457 236 b 556 82 457 125 500 82 b 654 181 611 82 654 125 z m 349 -125 b 250 -26 349 -69 306 -26 b 151 -125 194 -26 151 -69 b 250 -224 151 -181 194 -224 b 349 -125 306 -224 349 -181 z "},"⣷":{"ha":806,"x_min":0,"x_max":0,"o":"m 349 792 b 250 890 349 847 306 890 b 151 792 194 890 151 847 b 250 693 151 736 194 693 b 349 792 306 693 349 736 z m 349 486 b 250 585 349 542 306 585 b 151 486 194 585 151 542 b 250 388 151 431 194 388 b 349 486 306 388 349 431 z m 349 181 b 250 279 349 236 306 279 b 151 181 194 279 151 236 b 250 82 151 125 194 82 b 349 181 306 82 349 125 z m 654 486 b 556 585 654 542 611 585 b 457 486 500 585 457 542 b 556 388 457 431 500 388 b 654 486 611 388 654 431 z m 654 181 b 556 279 654 236 611 279 b 457 181 500 279 457 236 b 556 82 457 125 500 82 b 654 181 611 82 654 125 z m 349 -125 b 250 -26 349 -69 306 -26 b 151 -125 194 -26 151 -69 b 250 -224 151 -181 194 -224 b 349 -125 306 -224 349 -181 z m 654 -125 b 556 -26 654 -69 611 -26 b 457 -125 500 -26 457 -69 b 556 -224 457 -181 500 -224 b 654 -125 611 -224 654 -181 z "},"⢷":{"ha":806,"x_min":0,"x_max":0,"o":"m 349 792 b 250 890 349 847 306 890 b 151 792 194 890 151 847 b 250 693 151 736 194 693 b 349 792 306 693 349 736 z m 349 486 b 250 585 349 542 306 585 b 151 486 194 585 151 542 b 250 388 151 431 194 388 b 349 486 306 388 349 431 z m 349 181 b 250 279 349 236 306 279 b 151 181 194 279 151 236 b 250 82 151 125 194 82 b 349 181 306 82 349 125 z m 654 486 b 556 585 654 542 611 585 b 457 486 500 585 457 542 b 556 388 457 431 500 388 b 654 486 611 388 654 431 z m 654 181 b 556 279 654 236 611 279 b 457 181 500 279 457 236 b 556 82 457 125 500 82 b 654 181 611 82 654 125 z m 654 -125 b 556 -26 654 -69 611 -26 b 457 -125 500 -26 457 -69 b 556 -224 457 -181 500 -224 b 654 -125 611 -224 654 -181 z "},"⡗":{"ha":806,"x_min":0,"x_max":0,"o":"m 349 792 b 250 890 349 847 306 890 b 151 792 194 890 151 847 b 250 693 151 736 194 693 b 349 792 306 693 349 736 z m 349 486 b 250 585 349 542 306 585 b 151 486 194 585 151 542 b 250 388 151 431 194 388 b 349 486 306 388 349 431 z m 349 181 b 250 279 349 236 306 279 b 151 181 194 279 151 236 b 250 82 151 125 194 82 b 349 181 306 82 349 125 z m 654 486 b 556 585 654 542 611 585 b 457 486 500 585 457 542 b 556 388 457 431 500 388 b 654 486 611 388 654 431 z m 349 -125 b 250 -26 349 -69 306 -26 b 151 -125 194 -26 151 -69 b 250 -224 151 -181 194 -224 b 349 -125 306 -224 349 -181 z "},"⣗":{"ha":806,"x_min":0,"x_max":0,"o":"m 349 792 b 250 890 349 847 306 890 b 151 792 194 890 151 847 b 250 693 151 736 194 693 b 349 792 306 693 349 736 z m 349 486 b 250 585 349 542 306 585 b 151 486 194 585 151 542 b 250 388 151 431 194 388 b 349 486 306 388 349 431 z m 349 181 b 250 279 349 236 306 279 b 151 181 194 279 151 236 b 250 82 151 125 194 82 b 349 181 306 82 349 125 z m 654 486 b 556 585 654 542 611 585 b 457 486 500 585 457 542 b 556 388 457 431 500 388 b 654 486 611 388 654 431 z m 349 -125 b 250 -26 349 -69 306 -26 b 151 -125 194 -26 151 -69 b 250 -224 151 -181 194 -224 b 349 -125 306 -224 349 -181 z m 654 -125 b 556 -26 654 -69 611 -26 b 457 -125 500 -26 457 -69 b 556 -224 457 -181 500 -224 b 654 -125 611 -224 654 -181 z "},"⢗":{"ha":806,"x_min":0,"x_max":0,"o":"m 349 792 b 250 890 349 847 306 890 b 151 792 194 890 151 847 b 250 693 151 736 194 693 b 349 792 306 693 349 736 z m 349 486 b 250 585 349 542 306 585 b 151 486 194 585 151 542 b 250 388 151 431 194 388 b 349 486 306 388 349 431 z m 349 181 b 250 279 349 236 306 279 b 151 181 194 279 151 236 b 250 82 151 125 194 82 b 349 181 306 82 349 125 z m 654 486 b 556 585 654 542 611 585 b 457 486 500 585 457 542 b 556 388 457 431 500 388 b 654 486 611 388 654 431 z m 654 -125 b 556 -26 654 -69 611 -26 b 457 -125 500 -26 457 -69 b 556 -224 457 -181 500 -224 b 654 -125 611 -224 654 -181 z "},"⠧":{"ha":806,"x_min":0,"x_max":0,"o":"m 349 792 b 250 890 349 847 306 890 b 151 792 194 890 151 847 b 250 693 151 736 194 693 b 349 792 306 693 349 736 z m 349 486 b 250 585 349 542 306 585 b 151 486 194 585 151 542 b 250 388 151 431 194 388 b 349 486 306 388 349 431 z m 349 181 b 250 279 349 236 306 279 b 151 181 194 279 151 236 b 250 82 151 125 194 82 b 349 181 306 82 349 125 z m 654 181 b 556 279 654 236 611 279 b 457 181 500 279 457 236 b 556 82 457 125 500 82 b 654 181 611 82 654 125 z "},"⡧":{"ha":806,"x_min":0,"x_max":0,"o":"m 349 792 b 250 890 349 847 306 890 b 151 792 194 890 151 847 b 250 693 151 736 194 693 b 349 792 306 693 349 736 z m 349 486 b 250 585 349 542 306 585 b 151 486 194 585 151 542 b 250 388 151 431 194 388 b 349 486 306 388 349 431 z m 349 181 b 250 279 349 236 306 279 b 151 181 194 279 151 236 b 250 82 151 125 194 82 b 349 181 306 82 349 125 z m 654 181 b 556 279 654 236 611 279 b 457 181 500 279 457 236 b 556 82 457 125 500 82 b 654 181 611 82 654 125 z m 349 -125 b 250 -26 349 -69 306 -26 b 151 -125 194 -26 151 -69 b 250 -224 151 -181 194 -224 b 349 -125 306 -224 349 -181 z "},"⣧":{"ha":806,"x_min":0,"x_max":0,"o":"m 349 792 b 250 890 349 847 306 890 b 151 792 194 890 151 847 b 250 693 151 736 194 693 b 349 792 306 693 349 736 z m 349 486 b 250 585 349 542 306 585 b 151 486 194 585 151 542 b 250 388 151 431 194 388 b 349 486 306 388 349 431 z m 349 181 b 250 279 349 236 306 279 b 151 181 194 279 151 236 b 250 82 151 125 194 82 b 349 181 306 82 349 125 z m 654 181 b 556 279 654 236 611 279 b 457 181 500 279 457 236 b 556 82 457 125 500 82 b 654 181 611 82 654 125 z m 349 -125 b 250 -26 349 -69 306 -26 b 151 -125 194 -26 151 -69 b 250 -224 151 -181 194 -224 b 349 -125 306 -224 349 -181 z m 654 -125 b 556 -26 654 -69 611 -26 b 457 -125 500 -26 457 -69 b 556 -224 457 -181 500 -224 b 654 -125 611 -224 654 -181 z "},"⢧":{"ha":806,"x_min":0,"x_max":0,"o":"m 349 792 b 250 890 349 847 306 890 b 151 792 194 890 151 847 b 250 693 151 736 194 693 b 349 792 306 693 349 736 z m 349 486 b 250 585 349 542 306 585 b 151 486 194 585 151 542 b 250 388 151 431 194 388 b 349 486 306 388 349 431 z m 349 181 b 250 279 349 236 306 279 b 151 181 194 279 151 236 b 250 82 151 125 194 82 b 349 181 306 82 349 125 z m 654 181 b 556 279 654 236 611 279 b 457 181 500 279 457 236 b 556 82 457 125 500 82 b 654 181 611 82 654 125 z m 654 -125 b 556 -26 654 -69 611 -26 b 457 -125 500 -26 457 -69 b 556 -224 457 -181 500 -224 b 654 -125 611 -224 654 -181 z "},"⡇":{"ha":806,"x_min":0,"x_max":0,"o":"m 349 792 b 250 890 349 847 306 890 b 151 792 194 890 151 847 b 250 693 151 736 194 693 b 349 792 306 693 349 736 z m 349 486 b 250 585 349 542 306 585 b 151 486 194 585 151 542 b 250 388 151 431 194 388 b 349 486 306 388 349 431 z m 349 181 b 250 279 349 236 306 279 b 151 181 194 279 151 236 b 250 82 151 125 194 82 b 349 181 306 82 349 125 z m 349 -125 b 250 -26 349 -69 306 -26 b 151 -125 194 -26 151 -69 b 250 -224 151 -181 194 -224 b 349 -125 306 -224 349 -181 z "},"⣇":{"ha":806,"x_min":0,"x_max":0,"o":"m 349 792 b 250 890 349 847 306 890 b 151 792 194 890 151 847 b 250 693 151 736 194 693 b 349 792 306 693 349 736 z m 349 486 b 250 585 349 542 306 585 b 151 486 194 585 151 542 b 250 388 151 431 194 388 b 349 486 306 388 349 431 z m 349 181 b 250 279 349 236 306 279 b 151 181 194 279 151 236 b 250 82 151 125 194 82 b 349 181 306 82 349 125 z m 349 -125 b 250 -26 349 -69 306 -26 b 151 -125 194 -26 151 -69 b 250 -224 151 -181 194 -224 b 349 -125 306 -224 349 -181 z m 654 -125 b 556 -26 654 -69 611 -26 b 457 -125 500 -26 457 -69 b 556 -224 457 -181 500 -224 b 654 -125 611 -224 654 -181 z "},"⢇":{"ha":806,"x_min":0,"x_max":0,"o":"m 349 792 b 250 890 349 847 306 890 b 151 792 194 890 151 847 b 250 693 151 736 194 693 b 349 792 306 693 349 736 z m 349 486 b 250 585 349 542 306 585 b 151 486 194 585 151 542 b 250 388 151 431 194 388 b 349 486 306 388 349 431 z m 349 181 b 250 279 349 236 306 279 b 151 181 194 279 151 236 b 250 82 151 125 194 82 b 349 181 306 82 349 125 z m 654 -125 b 556 -26 654 -69 611 -26 b 457 -125 500 -26 457 -69 b 556 -224 457 -181 500 -224 b 654 -125 611 -224 654 -181 z "},"⠋":{"ha":806,"x_min":0,"x_max":0,"o":"m 349 792 b 250 890 349 847 306 890 b 151 792 194 890 151 847 b 250 693 151 736 194 693 b 349 792 306 693 349 736 z m 349 486 b 250 585 349 542 306 585 b 151 486 194 585 151 542 b 250 388 151 431 194 388 b 349 486 306 388 349 431 z m 654 792 b 556 890 654 847 611 890 b 457 792 500 890 457 847 b 556 693 457 736 500 693 b 654 792 611 693 654 736 z "},"⠛":{"ha":806,"x_min":0,"x_max":0,"o":"m 349 792 b 250 890 349 847 306 890 b 151 792 194 890 151 847 b 250 693 151 736 194 693 b 349 792 306 693 349 736 z m 349 486 b 250 585 349 542 306 585 b 151 486 194 585 151 542 b 250 388 151 431 194 388 b 349 486 306 388 349 431 z m 654 792 b 556 890 654 847 611 890 b 457 792 500 890 457 847 b 556 693 457 736 500 693 b 654 792 611 693 654 736 z m 654 486 b 556 585 654 542 611 585 b 457 486 500 585 457 542 b 556 388 457 431 500 388 b 654 486 611 388 654 431 z "},"⠻":{"ha":806,"x_min":0,"x_max":0,"o":"m 349 792 b 250 890 349 847 306 890 b 151 792 194 890 151 847 b 250 693 151 736 194 693 b 349 792 306 693 349 736 z m 349 486 b 250 585 349 542 306 585 b 151 486 194 585 151 542 b 250 388 151 431 194 388 b 349 486 306 388 349 431 z m 654 792 b 556 890 654 847 611 890 b 457 792 500 890 457 847 b 556 693 457 736 500 693 b 654 792 611 693 654 736 z m 654 486 b 556 585 654 542 611 585 b 457 486 500 585 457 542 b 556 388 457 431 500 388 b 654 486 611 388 654 431 z m 654 181 b 556 279 654 236 611 279 b 457 181 500 279 457 236 b 556 82 457 125 500 82 b 654 181 611 82 654 125 z "},"⡻":{"ha":806,"x_min":0,"x_max":0,"o":"m 349 792 b 250 890 349 847 306 890 b 151 792 194 890 151 847 b 250 693 151 736 194 693 b 349 792 306 693 349 736 z m 349 486 b 250 585 349 542 306 585 b 151 486 194 585 151 542 b 250 388 151 431 194 388 b 349 486 306 388 349 431 z m 654 792 b 556 890 654 847 611 890 b 457 792 500 890 457 847 b 556 693 457 736 500 693 b 654 792 611 693 654 736 z m 654 486 b 556 585 654 542 611 585 b 457 486 500 585 457 542 b 556 388 457 431 500 388 b 654 486 611 388 654 431 z m 654 181 b 556 279 654 236 611 279 b 457 181 500 279 457 236 b 556 82 457 125 500 82 b 654 181 611 82 654 125 z m 349 -125 b 250 -26 349 -69 306 -26 b 151 -125 194 -26 151 -69 b 250 -224 151 -181 194 -224 b 349 -125 306 -224 349 -181 z "},"⣻":{"ha":806,"x_min":0,"x_max":0,"o":"m 349 792 b 250 890 349 847 306 890 b 151 792 194 890 151 847 b 250 693 151 736 194 693 b 349 792 306 693 349 736 z m 349 486 b 250 585 349 542 306 585 b 151 486 194 585 151 542 b 250 388 151 431 194 388 b 349 486 306 388 349 431 z m 654 792 b 556 890 654 847 611 890 b 457 792 500 890 457 847 b 556 693 457 736 500 693 b 654 792 611 693 654 736 z m 654 486 b 556 585 654 542 611 585 b 457 486 500 585 457 542 b 556 388 457 431 500 388 b 654 486 611 388 654 431 z m 654 181 b 556 279 654 236 611 279 b 457 181 500 279 457 236 b 556 82 457 125 500 82 b 654 181 611 82 654 125 z m 349 -125 b 250 -26 349 -69 306 -26 b 151 -125 194 -26 151 -69 b 250 -224 151 -181 194 -224 b 349 -125 306 -224 349 -181 z m 654 -125 b 556 -26 654 -69 611 -26 b 457 -125 500 -26 457 -69 b 556 -224 457 -181 500 -224 b 654 -125 611 -224 654 -181 z "},"⢻":{"ha":806,"x_min":0,"x_max":0,"o":"m 349 792 b 250 890 349 847 306 890 b 151 792 194 890 151 847 b 250 693 151 736 194 693 b 349 792 306 693 349 736 z m 349 486 b 250 585 349 542 306 585 b 151 486 194 585 151 542 b 250 388 151 431 194 388 b 349 486 306 388 349 431 z m 654 792 b 556 890 654 847 611 890 b 457 792 500 890 457 847 b 556 693 457 736 500 693 b 654 792 611 693 654 736 z m 654 486 b 556 585 654 542 611 585 b 457 486 500 585 457 542 b 556 388 457 431 500 388 b 654 486 611 388 654 431 z m 654 181 b 556 279 654 236 611 279 b 457 181 500 279 457 236 b 556 82 457 125 500 82 b 654 181 611 82 654 125 z m 654 -125 b 556 -26 654 -69 611 -26 b 457 -125 500 -26 457 -69 b 556 -224 457 -181 500 -224 b 654 -125 611 -224 654 -181 z "},"⡛":{"ha":806,"x_min":0,"x_max":0,"o":"m 349 792 b 250 890 349 847 306 890 b 151 792 194 890 151 847 b 250 693 151 736 194 693 b 349 792 306 693 349 736 z m 349 486 b 250 585 349 542 306 585 b 151 486 194 585 151 542 b 250 388 151 431 194 388 b 349 486 306 388 349 431 z m 654 792 b 556 890 654 847 611 890 b 457 792 500 890 457 847 b 556 693 457 736 500 693 b 654 792 611 693 654 736 z m 654 486 b 556 585 654 542 611 585 b 457 486 500 585 457 542 b 556 388 457 431 500 388 b 654 486 611 388 654 431 z m 349 -125 b 250 -26 349 -69 306 -26 b 151 -125 194 -26 151 -69 b 250 -224 151 -181 194 -224 b 349 -125 306 -224 349 -181 z "},"⣛":{"ha":806,"x_min":0,"x_max":0,"o":"m 349 792 b 250 890 349 847 306 890 b 151 792 194 890 151 847 b 250 693 151 736 194 693 b 349 792 306 693 349 736 z m 349 486 b 250 585 349 542 306 585 b 151 486 194 585 151 542 b 250 388 151 431 194 388 b 349 486 306 388 349 431 z m 654 792 b 556 890 654 847 611 890 b 457 792 500 890 457 847 b 556 693 457 736 500 693 b 654 792 611 693 654 736 z m 654 486 b 556 585 654 542 611 585 b 457 486 500 585 457 542 b 556 388 457 431 500 388 b 654 486 611 388 654 431 z m 349 -125 b 250 -26 349 -69 306 -26 b 151 -125 194 -26 151 -69 b 250 -224 151 -181 194 -224 b 349 -125 306 -224 349 -181 z m 654 -125 b 556 -26 654 -69 611 -26 b 457 -125 500 -26 457 -69 b 556 -224 457 -181 500 -224 b 654 -125 611 -224 654 -181 z "},"⢛":{"ha":806,"x_min":0,"x_max":0,"o":"m 349 792 b 250 890 349 847 306 890 b 151 792 194 890 151 847 b 250 693 151 736 194 693 b 349 792 306 693 349 736 z m 349 486 b 250 585 349 542 306 585 b 151 486 194 585 151 542 b 250 388 151 431 194 388 b 349 486 306 388 349 431 z m 654 792 b 556 890 654 847 611 890 b 457 792 500 890 457 847 b 556 693 457 736 500 693 b 654 792 611 693 654 736 z m 654 486 b 556 585 654 542 611 585 b 457 486 500 585 457 542 b 556 388 457 431 500 388 b 654 486 611 388 654 431 z m 654 -125 b 556 -26 654 -69 611 -26 b 457 -125 500 -26 457 -69 b 556 -224 457 -181 500 -224 b 654 -125 611 -224 654 -181 z "},"⠫":{"ha":806,"x_min":0,"x_max":0,"o":"m 349 792 b 250 890 349 847 306 890 b 151 792 194 890 151 847 b 250 693 151 736 194 693 b 349 792 306 693 349 736 z m 349 486 b 250 585 349 542 306 585 b 151 486 194 585 151 542 b 250 388 151 431 194 388 b 349 486 306 388 349 431 z m 654 792 b 556 890 654 847 611 890 b 457 792 500 890 457 847 b 556 693 457 736 500 693 b 654 792 611 693 654 736 z m 654 181 b 556 279 654 236 611 279 b 457 181 500 279 457 236 b 556 82 457 125 500 82 b 654 181 611 82 654 125 z "},"⡫":{"ha":806,"x_min":0,"x_max":0,"o":"m 349 792 b 250 890 349 847 306 890 b 151 792 194 890 151 847 b 250 693 151 736 194 693 b 349 792 306 693 349 736 z m 349 486 b 250 585 349 542 306 585 b 151 486 194 585 151 542 b 250 388 151 431 194 388 b 349 486 306 388 349 431 z m 654 792 b 556 890 654 847 611 890 b 457 792 500 890 457 847 b 556 693 457 736 500 693 b 654 792 611 693 654 736 z m 654 181 b 556 279 654 236 611 279 b 457 181 500 279 457 236 b 556 82 457 125 500 82 b 654 181 611 82 654 125 z m 349 -125 b 250 -26 349 -69 306 -26 b 151 -125 194 -26 151 -69 b 250 -224 151 -181 194 -224 b 349 -125 306 -224 349 -181 z "},"⣫":{"ha":806,"x_min":0,"x_max":0,"o":"m 349 792 b 250 890 349 847 306 890 b 151 792 194 890 151 847 b 250 693 151 736 194 693 b 349 792 306 693 349 736 z m 349 486 b 250 585 349 542 306 585 b 151 486 194 585 151 542 b 250 388 151 431 194 388 b 349 486 306 388 349 431 z m 654 792 b 556 890 654 847 611 890 b 457 792 500 890 457 847 b 556 693 457 736 500 693 b 654 792 611 693 654 736 z m 654 181 b 556 279 654 236 611 279 b 457 181 500 279 457 236 b 556 82 457 125 500 82 b 654 181 611 82 654 125 z m 349 -125 b 250 -26 349 -69 306 -26 b 151 -125 194 -26 151 -69 b 250 -224 151 -181 194 -224 b 349 -125 306 -224 349 -181 z m 654 -125 b 556 -26 654 -69 611 -26 b 457 -125 500 -26 457 -69 b 556 -224 457 -181 500 -224 b 654 -125 611 -224 654 -181 z "},"⢫":{"ha":806,"x_min":0,"x_max":0,"o":"m 349 792 b 250 890 349 847 306 890 b 151 792 194 890 151 847 b 250 693 151 736 194 693 b 349 792 306 693 349 736 z m 349 486 b 250 585 349 542 306 585 b 151 486 194 585 151 542 b 250 388 151 431 194 388 b 349 486 306 388 349 431 z m 654 792 b 556 890 654 847 611 890 b 457 792 500 890 457 847 b 556 693 457 736 500 693 b 654 792 611 693 654 736 z m 654 181 b 556 279 654 236 611 279 b 457 181 500 279 457 236 b 556 82 457 125 500 82 b 654 181 611 82 654 125 z m 654 -125 b 556 -26 654 -69 611 -26 b 457 -125 500 -26 457 -69 b 556 -224 457 -181 500 -224 b 654 -125 611 -224 654 -181 z "},"⡋":{"ha":806,"x_min":0,"x_max":0,"o":"m 349 792 b 250 890 349 847 306 890 b 151 792 194 890 151 847 b 250 693 151 736 194 693 b 349 792 306 693 349 736 z m 349 486 b 250 585 349 542 306 585 b 151 486 194 585 151 542 b 250 388 151 431 194 388 b 349 486 306 388 349 431 z m 654 792 b 556 890 654 847 611 890 b 457 792 500 890 457 847 b 556 693 457 736 500 693 b 654 792 611 693 654 736 z m 349 -125 b 250 -26 349 -69 306 -26 b 151 -125 194 -26 151 -69 b 250 -224 151 -181 194 -224 b 349 -125 306 -224 349 -181 z "},"⣋":{"ha":806,"x_min":0,"x_max":0,"o":"m 349 792 b 250 890 349 847 306 890 b 151 792 194 890 151 847 b 250 693 151 736 194 693 b 349 792 306 693 349 736 z m 349 486 b 250 585 349 542 306 585 b 151 486 194 585 151 542 b 250 388 151 431 194 388 b 349 486 306 388 349 431 z m 654 792 b 556 890 654 847 611 890 b 457 792 500 890 457 847 b 556 693 457 736 500 693 b 654 792 611 693 654 736 z m 349 -125 b 250 -26 349 -69 306 -26 b 151 -125 194 -26 151 -69 b 250 -224 151 -181 194 -224 b 349 -125 306 -224 349 -181 z m 654 -125 b 556 -26 654 -69 611 -26 b 457 -125 500 -26 457 -69 b 556 -224 457 -181 500 -224 b 654 -125 611 -224 654 -181 z "},"⢋":{"ha":806,"x_min":0,"x_max":0,"o":"m 349 792 b 250 890 349 847 306 890 b 151 792 194 890 151 847 b 250 693 151 736 194 693 b 349 792 306 693 349 736 z m 349 486 b 250 585 349 542 306 585 b 151 486 194 585 151 542 b 250 388 151 431 194 388 b 349 486 306 388 349 431 z m 654 792 b 556 890 654 847 611 890 b 457 792 500 890 457 847 b 556 693 457 736 500 693 b 654 792 611 693 654 736 z m 654 -125 b 556 -26 654 -69 611 -26 b 457 -125 500 -26 457 -69 b 556 -224 457 -181 500 -224 b 654 -125 611 -224 654 -181 z "},"⠓":{"ha":806,"x_min":0,"x_max":0,"o":"m 349 792 b 250 890 349 847 306 890 b 151 792 194 890 151 847 b 250 693 151 736 194 693 b 349 792 306 693 349 736 z m 349 486 b 250 585 349 542 306 585 b 151 486 194 585 151 542 b 250 388 151 431 194 388 b 349 486 306 388 349 431 z m 654 486 b 556 585 654 542 611 585 b 457 486 500 585 457 542 b 556 388 457 431 500 388 b 654 486 611 388 654 431 z "},"⠳":{"ha":806,"x_min":0,"x_max":0,"o":"m 349 792 b 250 890 349 847 306 890 b 151 792 194 890 151 847 b 250 693 151 736 194 693 b 349 792 306 693 349 736 z m 349 486 b 250 585 349 542 306 585 b 151 486 194 585 151 542 b 250 388 151 431 194 388 b 349 486 306 388 349 431 z m 654 486 b 556 585 654 542 611 585 b 457 486 500 585 457 542 b 556 388 457 431 500 388 b 654 486 611 388 654 431 z m 654 181 b 556 279 654 236 611 279 b 457 181 500 279 457 236 b 556 82 457 125 500 82 b 654 181 611 82 654 125 z "},"⡳":{"ha":806,"x_min":0,"x_max":0,"o":"m 349 792 b 250 890 349 847 306 890 b 151 792 194 890 151 847 b 250 693 151 736 194 693 b 349 792 306 693 349 736 z m 349 486 b 250 585 349 542 306 585 b 151 486 194 585 151 542 b 250 388 151 431 194 388 b 349 486 306 388 349 431 z m 654 486 b 556 585 654 542 611 585 b 457 486 500 585 457 542 b 556 388 457 431 500 388 b 654 486 611 388 654 431 z m 654 181 b 556 279 654 236 611 279 b 457 181 500 279 457 236 b 556 82 457 125 500 82 b 654 181 611 82 654 125 z m 349 -125 b 250 -26 349 -69 306 -26 b 151 -125 194 -26 151 -69 b 250 -224 151 -181 194 -224 b 349 -125 306 -224 349 -181 z "},"⣳":{"ha":806,"x_min":0,"x_max":0,"o":"m 349 792 b 250 890 349 847 306 890 b 151 792 194 890 151 847 b 250 693 151 736 194 693 b 349 792 306 693 349 736 z m 349 486 b 250 585 349 542 306 585 b 151 486 194 585 151 542 b 250 388 151 431 194 388 b 349 486 306 388 349 431 z m 654 486 b 556 585 654 542 611 585 b 457 486 500 585 457 542 b 556 388 457 431 500 388 b 654 486 611 388 654 431 z m 654 181 b 556 279 654 236 611 279 b 457 181 500 279 457 236 b 556 82 457 125 500 82 b 654 181 611 82 654 125 z m 349 -125 b 250 -26 349 -69 306 -26 b 151 -125 194 -26 151 -69 b 250 -224 151 -181 194 -224 b 349 -125 306 -224 349 -181 z m 654 -125 b 556 -26 654 -69 611 -26 b 457 -125 500 -26 457 -69 b 556 -224 457 -181 500 -224 b 654 -125 611 -224 654 -181 z "},"⢳":{"ha":806,"x_min":0,"x_max":0,"o":"m 349 792 b 250 890 349 847 306 890 b 151 792 194 890 151 847 b 250 693 151 736 194 693 b 349 792 306 693 349 736 z m 349 486 b 250 585 349 542 306 585 b 151 486 194 585 151 542 b 250 388 151 431 194 388 b 349 486 306 388 349 431 z m 654 486 b 556 585 654 542 611 585 b 457 486 500 585 457 542 b 556 388 457 431 500 388 b 654 486 611 388 654 431 z m 654 181 b 556 279 654 236 611 279 b 457 181 500 279 457 236 b 556 82 457 125 500 82 b 654 181 611 82 654 125 z m 654 -125 b 556 -26 654 -69 611 -26 b 457 -125 500 -26 457 -69 b 556 -224 457 -181 500 -224 b 654 -125 611 -224 654 -181 z "},"⡓":{"ha":806,"x_min":0,"x_max":0,"o":"m 349 792 b 250 890 349 847 306 890 b 151 792 194 890 151 847 b 250 693 151 736 194 693 b 349 792 306 693 349 736 z m 349 486 b 250 585 349 542 306 585 b 151 486 194 585 151 542 b 250 388 151 431 194 388 b 349 486 306 388 349 431 z m 654 486 b 556 585 654 542 611 585 b 457 486 500 585 457 542 b 556 388 457 431 500 388 b 654 486 611 388 654 431 z m 349 -125 b 250 -26 349 -69 306 -26 b 151 -125 194 -26 151 -69 b 250 -224 151 -181 194 -224 b 349 -125 306 -224 349 -181 z "},"⣓":{"ha":806,"x_min":0,"x_max":0,"o":"m 349 792 b 250 890 349 847 306 890 b 151 792 194 890 151 847 b 250 693 151 736 194 693 b 349 792 306 693 349 736 z m 349 486 b 250 585 349 542 306 585 b 151 486 194 585 151 542 b 250 388 151 431 194 388 b 349 486 306 388 349 431 z m 654 486 b 556 585 654 542 611 585 b 457 486 500 585 457 542 b 556 388 457 431 500 388 b 654 486 611 388 654 431 z m 349 -125 b 250 -26 349 -69 306 -26 b 151 -125 194 -26 151 -69 b 250 -224 151 -181 194 -224 b 349 -125 306 -224 349 -181 z m 654 -125 b 556 -26 654 -69 611 -26 b 457 -125 500 -26 457 -69 b 556 -224 457 -181 500 -224 b 654 -125 611 -224 654 -181 z "},"⢓":{"ha":806,"x_min":0,"x_max":0,"o":"m 349 792 b 250 890 349 847 306 890 b 151 792 194 890 151 847 b 250 693 151 736 194 693 b 349 792 306 693 349 736 z m 349 486 b 250 585 349 542 306 585 b 151 486 194 585 151 542 b 250 388 151 431 194 388 b 349 486 306 388 349 431 z m 654 486 b 556 585 654 542 611 585 b 457 486 500 585 457 542 b 556 388 457 431 500 388 b 654 486 611 388 654 431 z m 654 -125 b 556 -26 654 -69 611 -26 b 457 -125 500 -26 457 -69 b 556 -224 457 -181 500 -224 b 654 -125 611 -224 654 -181 z "},"⠣":{"ha":806,"x_min":0,"x_max":0,"o":"m 349 792 b 250 890 349 847 306 890 b 151 792 194 890 151 847 b 250 693 151 736 194 693 b 349 792 306 693 349 736 z m 349 486 b 250 585 349 542 306 585 b 151 486 194 585 151 542 b 250 388 151 431 194 388 b 349 486 306 388 349 431 z m 654 181 b 556 279 654 236 611 279 b 457 181 500 279 457 236 b 556 82 457 125 500 82 b 654 181 611 82 654 125 z "},"⡣":{"ha":806,"x_min":0,"x_max":0,"o":"m 349 792 b 250 890 349 847 306 890 b 151 792 194 890 151 847 b 250 693 151 736 194 693 b 349 792 306 693 349 736 z m 349 486 b 250 585 349 542 306 585 b 151 486 194 585 151 542 b 250 388 151 431 194 388 b 349 486 306 388 349 431 z m 654 181 b 556 279 654 236 611 279 b 457 181 500 279 457 236 b 556 82 457 125 500 82 b 654 181 611 82 654 125 z m 349 -125 b 250 -26 349 -69 306 -26 b 151 -125 194 -26 151 -69 b 250 -224 151 -181 194 -224 b 349 -125 306 -224 349 -181 z "},"⣣":{"ha":806,"x_min":0,"x_max":0,"o":"m 349 792 b 250 890 349 847 306 890 b 151 792 194 890 151 847 b 250 693 151 736 194 693 b 349 792 306 693 349 736 z m 349 486 b 250 585 349 542 306 585 b 151 486 194 585 151 542 b 250 388 151 431 194 388 b 349 486 306 388 349 431 z m 654 181 b 556 279 654 236 611 279 b 457 181 500 279 457 236 b 556 82 457 125 500 82 b 654 181 611 82 654 125 z m 349 -125 b 250 -26 349 -69 306 -26 b 151 -125 194 -26 151 -69 b 250 -224 151 -181 194 -224 b 349 -125 306 -224 349 -181 z m 654 -125 b 556 -26 654 -69 611 -26 b 457 -125 500 -26 457 -69 b 556 -224 457 -181 500 -224 b 654 -125 611 -224 654 -181 z "},"⢣":{"ha":806,"x_min":0,"x_max":0,"o":"m 349 792 b 250 890 349 847 306 890 b 151 792 194 890 151 847 b 250 693 151 736 194 693 b 349 792 306 693 349 736 z m 349 486 b 250 585 349 542 306 585 b 151 486 194 585 151 542 b 250 388 151 431 194 388 b 349 486 306 388 349 431 z m 654 181 b 556 279 654 236 611 279 b 457 181 500 279 457 236 b 556 82 457 125 500 82 b 654 181 611 82 654 125 z m 654 -125 b 556 -26 654 -69 611 -26 b 457 -125 500 -26 457 -69 b 556 -224 457 -181 500 -224 b 654 -125 611 -224 654 -181 z "},"⡃":{"ha":806,"x_min":0,"x_max":0,"o":"m 349 792 b 250 890 349 847 306 890 b 151 792 194 890 151 847 b 250 693 151 736 194 693 b 349 792 306 693 349 736 z m 349 486 b 250 585 349 542 306 585 b 151 486 194 585 151 542 b 250 388 151 431 194 388 b 349 486 306 388 349 431 z m 349 -125 b 250 -26 349 -69 306 -26 b 151 -125 194 -26 151 -69 b 250 -224 151 -181 194 -224 b 349 -125 306 -224 349 -181 z "},"⣃":{"ha":806,"x_min":0,"x_max":0,"o":"m 349 792 b 250 890 349 847 306 890 b 151 792 194 890 151 847 b 250 693 151 736 194 693 b 349 792 306 693 349 736 z m 349 486 b 250 585 349 542 306 585 b 151 486 194 585 151 542 b 250 388 151 431 194 388 b 349 486 306 388 349 431 z m 349 -125 b 250 -26 349 -69 306 -26 b 151 -125 194 -26 151 -69 b 250 -224 151 -181 194 -224 b 349 -125 306 -224 349 -181 z m 654 -125 b 556 -26 654 -69 611 -26 b 457 -125 500 -26 457 -69 b 556 -224 457 -181 500 -224 b 654 -125 611 -224 654 -181 z "},"⢃":{"ha":806,"x_min":0,"x_max":0,"o":"m 349 792 b 250 890 349 847 306 890 b 151 792 194 890 151 847 b 250 693 151 736 194 693 b 349 792 306 693 349 736 z m 349 486 b 250 585 349 542 306 585 b 151 486 194 585 151 542 b 250 388 151 431 194 388 b 349 486 306 388 349 431 z m 654 -125 b 556 -26 654 -69 611 -26 b 457 -125 500 -26 457 -69 b 556 -224 457 -181 500 -224 b 654 -125 611 -224 654 -181 z "},"⠅":{"ha":806,"x_min":0,"x_max":0,"o":"m 349 792 b 250 890 349 847 306 890 b 151 792 194 890 151 847 b 250 693 151 736 194 693 b 349 792 306 693 349 736 z m 349 181 b 250 279 349 236 306 279 b 151 181 194 279 151 236 b 250 82 151 125 194 82 b 349 181 306 82 349 125 z "},"⠍":{"ha":806,"x_min":0,"x_max":0,"o":"m 349 792 b 250 890 349 847 306 890 b 151 792 194 890 151 847 b 250 693 151 736 194 693 b 349 792 306 693 349 736 z m 349 181 b 250 279 349 236 306 279 b 151 181 194 279 151 236 b 250 82 151 125 194 82 b 349 181 306 82 349 125 z m 654 792 b 556 890 654 847 611 890 b 457 792 500 890 457 847 b 556 693 457 736 500 693 b 654 792 611 693 654 736 z "},"⠝":{"ha":806,"x_min":0,"x_max":0,"o":"m 349 792 b 250 890 349 847 306 890 b 151 792 194 890 151 847 b 250 693 151 736 194 693 b 349 792 306 693 349 736 z m 349 181 b 250 279 349 236 306 279 b 151 181 194 279 151 236 b 250 82 151 125 194 82 b 349 181 306 82 349 125 z m 654 792 b 556 890 654 847 611 890 b 457 792 500 890 457 847 b 556 693 457 736 500 693 b 654 792 611 693 654 736 z m 654 486 b 556 585 654 542 611 585 b 457 486 500 585 457 542 b 556 388 457 431 500 388 b 654 486 611 388 654 431 z "},"⠽":{"ha":806,"x_min":0,"x_max":0,"o":"m 349 792 b 250 890 349 847 306 890 b 151 792 194 890 151 847 b 250 693 151 736 194 693 b 349 792 306 693 349 736 z m 349 181 b 250 279 349 236 306 279 b 151 181 194 279 151 236 b 250 82 151 125 194 82 b 349 181 306 82 349 125 z m 654 792 b 556 890 654 847 611 890 b 457 792 500 890 457 847 b 556 693 457 736 500 693 b 654 792 611 693 654 736 z m 654 486 b 556 585 654 542 611 585 b 457 486 500 585 457 542 b 556 388 457 431 500 388 b 654 486 611 388 654 431 z m 654 181 b 556 279 654 236 611 279 b 457 181 500 279 457 236 b 556 82 457 125 500 82 b 654 181 611 82 654 125 z "},"⡽":{"ha":806,"x_min":0,"x_max":0,"o":"m 349 792 b 250 890 349 847 306 890 b 151 792 194 890 151 847 b 250 693 151 736 194 693 b 349 792 306 693 349 736 z m 349 181 b 250 279 349 236 306 279 b 151 181 194 279 151 236 b 250 82 151 125 194 82 b 349 181 306 82 349 125 z m 654 792 b 556 890 654 847 611 890 b 457 792 500 890 457 847 b 556 693 457 736 500 693 b 654 792 611 693 654 736 z m 654 486 b 556 585 654 542 611 585 b 457 486 500 585 457 542 b 556 388 457 431 500 388 b 654 486 611 388 654 431 z m 654 181 b 556 279 654 236 611 279 b 457 181 500 279 457 236 b 556 82 457 125 500 82 b 654 181 611 82 654 125 z m 349 -125 b 250 -26 349 -69 306 -26 b 151 -125 194 -26 151 -69 b 250 -224 151 -181 194 -224 b 349 -125 306 -224 349 -181 z "},"⣽":{"ha":806,"x_min":0,"x_max":0,"o":"m 349 792 b 250 890 349 847 306 890 b 151 792 194 890 151 847 b 250 693 151 736 194 693 b 349 792 306 693 349 736 z m 349 181 b 250 279 349 236 306 279 b 151 181 194 279 151 236 b 250 82 151 125 194 82 b 349 181 306 82 349 125 z m 654 792 b 556 890 654 847 611 890 b 457 792 500 890 457 847 b 556 693 457 736 500 693 b 654 792 611 693 654 736 z m 654 486 b 556 585 654 542 611 585 b 457 486 500 585 457 542 b 556 388 457 431 500 388 b 654 486 611 388 654 431 z m 654 181 b 556 279 654 236 611 279 b 457 181 500 279 457 236 b 556 82 457 125 500 82 b 654 181 611 82 654 125 z m 349 -125 b 250 -26 349 -69 306 -26 b 151 -125 194 -26 151 -69 b 250 -224 151 -181 194 -224 b 349 -125 306 -224 349 -181 z m 654 -125 b 556 -26 654 -69 611 -26 b 457 -125 500 -26 457 -69 b 556 -224 457 -181 500 -224 b 654 -125 611 -224 654 -181 z "},"⢽":{"ha":806,"x_min":0,"x_max":0,"o":"m 349 792 b 250 890 349 847 306 890 b 151 792 194 890 151 847 b 250 693 151 736 194 693 b 349 792 306 693 349 736 z m 349 181 b 250 279 349 236 306 279 b 151 181 194 279 151 236 b 250 82 151 125 194 82 b 349 181 306 82 349 125 z m 654 792 b 556 890 654 847 611 890 b 457 792 500 890 457 847 b 556 693 457 736 500 693 b 654 792 611 693 654 736 z m 654 486 b 556 585 654 542 611 585 b 457 486 500 585 457 542 b 556 388 457 431 500 388 b 654 486 611 388 654 431 z m 654 181 b 556 279 654 236 611 279 b 457 181 500 279 457 236 b 556 82 457 125 500 82 b 654 181 611 82 654 125 z m 654 -125 b 556 -26 654 -69 611 -26 b 457 -125 500 -26 457 -69 b 556 -224 457 -181 500 -224 b 654 -125 611 -224 654 -181 z "},"⡝":{"ha":806,"x_min":0,"x_max":0,"o":"m 349 792 b 250 890 349 847 306 890 b 151 792 194 890 151 847 b 250 693 151 736 194 693 b 349 792 306 693 349 736 z m 349 181 b 250 279 349 236 306 279 b 151 181 194 279 151 236 b 250 82 151 125 194 82 b 349 181 306 82 349 125 z m 654 792 b 556 890 654 847 611 890 b 457 792 500 890 457 847 b 556 693 457 736 500 693 b 654 792 611 693 654 736 z m 654 486 b 556 585 654 542 611 585 b 457 486 500 585 457 542 b 556 388 457 431 500 388 b 654 486 611 388 654 431 z m 349 -125 b 250 -26 349 -69 306 -26 b 151 -125 194 -26 151 -69 b 250 -224 151 -181 194 -224 b 349 -125 306 -224 349 -181 z "},"⣝":{"ha":806,"x_min":0,"x_max":0,"o":"m 349 792 b 250 890 349 847 306 890 b 151 792 194 890 151 847 b 250 693 151 736 194 693 b 349 792 306 693 349 736 z m 349 181 b 250 279 349 236 306 279 b 151 181 194 279 151 236 b 250 82 151 125 194 82 b 349 181 306 82 349 125 z m 654 792 b 556 890 654 847 611 890 b 457 792 500 890 457 847 b 556 693 457 736 500 693 b 654 792 611 693 654 736 z m 654 486 b 556 585 654 542 611 585 b 457 486 500 585 457 542 b 556 388 457 431 500 388 b 654 486 611 388 654 431 z m 349 -125 b 250 -26 349 -69 306 -26 b 151 -125 194 -26 151 -69 b 250 -224 151 -181 194 -224 b 349 -125 306 -224 349 -181 z m 654 -125 b 556 -26 654 -69 611 -26 b 457 -125 500 -26 457 -69 b 556 -224 457 -181 500 -224 b 654 -125 611 -224 654 -181 z "},"⢝":{"ha":806,"x_min":0,"x_max":0,"o":"m 349 792 b 250 890 349 847 306 890 b 151 792 194 890 151 847 b 250 693 151 736 194 693 b 349 792 306 693 349 736 z m 349 181 b 250 279 349 236 306 279 b 151 181 194 279 151 236 b 250 82 151 125 194 82 b 349 181 306 82 349 125 z m 654 792 b 556 890 654 847 611 890 b 457 792 500 890 457 847 b 556 693 457 736 500 693 b 654 792 611 693 654 736 z m 654 486 b 556 585 654 542 611 585 b 457 486 500 585 457 542 b 556 388 457 431 500 388 b 654 486 611 388 654 431 z m 654 -125 b 556 -26 654 -69 611 -26 b 457 -125 500 -26 457 -69 b 556 -224 457 -181 500 -224 b 654 -125 611 -224 654 -181 z "},"⠭":{"ha":806,"x_min":0,"x_max":0,"o":"m 349 792 b 250 890 349 847 306 890 b 151 792 194 890 151 847 b 250 693 151 736 194 693 b 349 792 306 693 349 736 z m 349 181 b 250 279 349 236 306 279 b 151 181 194 279 151 236 b 250 82 151 125 194 82 b 349 181 306 82 349 125 z m 654 792 b 556 890 654 847 611 890 b 457 792 500 890 457 847 b 556 693 457 736 500 693 b 654 792 611 693 654 736 z m 654 181 b 556 279 654 236 611 279 b 457 181 500 279 457 236 b 556 82 457 125 500 82 b 654 181 611 82 654 125 z "},"⡭":{"ha":806,"x_min":0,"x_max":0,"o":"m 349 792 b 250 890 349 847 306 890 b 151 792 194 890 151 847 b 250 693 151 736 194 693 b 349 792 306 693 349 736 z m 349 181 b 250 279 349 236 306 279 b 151 181 194 279 151 236 b 250 82 151 125 194 82 b 349 181 306 82 349 125 z m 654 792 b 556 890 654 847 611 890 b 457 792 500 890 457 847 b 556 693 457 736 500 693 b 654 792 611 693 654 736 z m 654 181 b 556 279 654 236 611 279 b 457 181 500 279 457 236 b 556 82 457 125 500 82 b 654 181 611 82 654 125 z m 349 -125 b 250 -26 349 -69 306 -26 b 151 -125 194 -26 151 -69 b 250 -224 151 -181 194 -224 b 349 -125 306 -224 349 -181 z "},"⣭":{"ha":806,"x_min":0,"x_max":0,"o":"m 349 792 b 250 890 349 847 306 890 b 151 792 194 890 151 847 b 250 693 151 736 194 693 b 349 792 306 693 349 736 z m 349 181 b 250 279 349 236 306 279 b 151 181 194 279 151 236 b 250 82 151 125 194 82 b 349 181 306 82 349 125 z m 654 792 b 556 890 654 847 611 890 b 457 792 500 890 457 847 b 556 693 457 736 500 693 b 654 792 611 693 654 736 z m 654 181 b 556 279 654 236 611 279 b 457 181 500 279 457 236 b 556 82 457 125 500 82 b 654 181 611 82 654 125 z m 349 -125 b 250 -26 349 -69 306 -26 b 151 -125 194 -26 151 -69 b 250 -224 151 -181 194 -224 b 349 -125 306 -224 349 -181 z m 654 -125 b 556 -26 654 -69 611 -26 b 457 -125 500 -26 457 -69 b 556 -224 457 -181 500 -224 b 654 -125 611 -224 654 -181 z "},"⢭":{"ha":806,"x_min":0,"x_max":0,"o":"m 349 792 b 250 890 349 847 306 890 b 151 792 194 890 151 847 b 250 693 151 736 194 693 b 349 792 306 693 349 736 z m 349 181 b 250 279 349 236 306 279 b 151 181 194 279 151 236 b 250 82 151 125 194 82 b 349 181 306 82 349 125 z m 654 792 b 556 890 654 847 611 890 b 457 792 500 890 457 847 b 556 693 457 736 500 693 b 654 792 611 693 654 736 z m 654 181 b 556 279 654 236 611 279 b 457 181 500 279 457 236 b 556 82 457 125 500 82 b 654 181 611 82 654 125 z m 654 -125 b 556 -26 654 -69 611 -26 b 457 -125 500 -26 457 -69 b 556 -224 457 -181 500 -224 b 654 -125 611 -224 654 -181 z "},"⡍":{"ha":806,"x_min":0,"x_max":0,"o":"m 349 792 b 250 890 349 847 306 890 b 151 792 194 890 151 847 b 250 693 151 736 194 693 b 349 792 306 693 349 736 z m 349 181 b 250 279 349 236 306 279 b 151 181 194 279 151 236 b 250 82 151 125 194 82 b 349 181 306 82 349 125 z m 654 792 b 556 890 654 847 611 890 b 457 792 500 890 457 847 b 556 693 457 736 500 693 b 654 792 611 693 654 736 z m 349 -125 b 250 -26 349 -69 306 -26 b 151 -125 194 -26 151 -69 b 250 -224 151 -181 194 -224 b 349 -125 306 -224 349 -181 z "},"⣍":{"ha":806,"x_min":0,"x_max":0,"o":"m 349 792 b 250 890 349 847 306 890 b 151 792 194 890 151 847 b 250 693 151 736 194 693 b 349 792 306 693 349 736 z m 349 181 b 250 279 349 236 306 279 b 151 181 194 279 151 236 b 250 82 151 125 194 82 b 349 181 306 82 349 125 z m 654 792 b 556 890 654 847 611 890 b 457 792 500 890 457 847 b 556 693 457 736 500 693 b 654 792 611 693 654 736 z m 349 -125 b 250 -26 349 -69 306 -26 b 151 -125 194 -26 151 -69 b 250 -224 151 -181 194 -224 b 349 -125 306 -224 349 -181 z m 654 -125 b 556 -26 654 -69 611 -26 b 457 -125 500 -26 457 -69 b 556 -224 457 -181 500 -224 b 654 -125 611 -224 654 -181 z "},"⢍":{"ha":806,"x_min":0,"x_max":0,"o":"m 349 792 b 250 890 349 847 306 890 b 151 792 194 890 151 847 b 250 693 151 736 194 693 b 349 792 306 693 349 736 z m 349 181 b 250 279 349 236 306 279 b 151 181 194 279 151 236 b 250 82 151 125 194 82 b 349 181 306 82 349 125 z m 654 792 b 556 890 654 847 611 890 b 457 792 500 890 457 847 b 556 693 457 736 500 693 b 654 792 611 693 654 736 z m 654 -125 b 556 -26 654 -69 611 -26 b 457 -125 500 -26 457 -69 b 556 -224 457 -181 500 -224 b 654 -125 611 -224 654 -181 z "},"⠕":{"ha":806,"x_min":0,"x_max":0,"o":"m 349 792 b 250 890 349 847 306 890 b 151 792 194 890 151 847 b 250 693 151 736 194 693 b 349 792 306 693 349 736 z m 349 181 b 250 279 349 236 306 279 b 151 181 194 279 151 236 b 250 82 151 125 194 82 b 349 181 306 82 349 125 z m 654 486 b 556 585 654 542 611 585 b 457 486 500 585 457 542 b 556 388 457 431 500 388 b 654 486 611 388 654 431 z "},"⠵":{"ha":806,"x_min":0,"x_max":0,"o":"m 349 792 b 250 890 349 847 306 890 b 151 792 194 890 151 847 b 250 693 151 736 194 693 b 349 792 306 693 349 736 z m 349 181 b 250 279 349 236 306 279 b 151 181 194 279 151 236 b 250 82 151 125 194 82 b 349 181 306 82 349 125 z m 654 486 b 556 585 654 542 611 585 b 457 486 500 585 457 542 b 556 388 457 431 500 388 b 654 486 611 388 654 431 z m 654 181 b 556 279 654 236 611 279 b 457 181 500 279 457 236 b 556 82 457 125 500 82 b 654 181 611 82 654 125 z "},"⡵":{"ha":806,"x_min":0,"x_max":0,"o":"m 349 792 b 250 890 349 847 306 890 b 151 792 194 890 151 847 b 250 693 151 736 194 693 b 349 792 306 693 349 736 z m 349 181 b 250 279 349 236 306 279 b 151 181 194 279 151 236 b 250 82 151 125 194 82 b 349 181 306 82 349 125 z m 654 486 b 556 585 654 542 611 585 b 457 486 500 585 457 542 b 556 388 457 431 500 388 b 654 486 611 388 654 431 z m 654 181 b 556 279 654 236 611 279 b 457 181 500 279 457 236 b 556 82 457 125 500 82 b 654 181 611 82 654 125 z m 349 -125 b 250 -26 349 -69 306 -26 b 151 -125 194 -26 151 -69 b 250 -224 151 -181 194 -224 b 349 -125 306 -224 349 -181 z "},"⣵":{"ha":806,"x_min":0,"x_max":0,"o":"m 349 792 b 250 890 349 847 306 890 b 151 792 194 890 151 847 b 250 693 151 736 194 693 b 349 792 306 693 349 736 z m 349 181 b 250 279 349 236 306 279 b 151 181 194 279 151 236 b 250 82 151 125 194 82 b 349 181 306 82 349 125 z m 654 486 b 556 585 654 542 611 585 b 457 486 500 585 457 542 b 556 388 457 431 500 388 b 654 486 611 388 654 431 z m 654 181 b 556 279 654 236 611 279 b 457 181 500 279 457 236 b 556 82 457 125 500 82 b 654 181 611 82 654 125 z m 349 -125 b 250 -26 349 -69 306 -26 b 151 -125 194 -26 151 -69 b 250 -224 151 -181 194 -224 b 349 -125 306 -224 349 -181 z m 654 -125 b 556 -26 654 -69 611 -26 b 457 -125 500 -26 457 -69 b 556 -224 457 -181 500 -224 b 654 -125 611 -224 654 -181 z "},"⢵":{"ha":806,"x_min":0,"x_max":0,"o":"m 349 792 b 250 890 349 847 306 890 b 151 792 194 890 151 847 b 250 693 151 736 194 693 b 349 792 306 693 349 736 z m 349 181 b 250 279 349 236 306 279 b 151 181 194 279 151 236 b 250 82 151 125 194 82 b 349 181 306 82 349 125 z m 654 486 b 556 585 654 542 611 585 b 457 486 500 585 457 542 b 556 388 457 431 500 388 b 654 486 611 388 654 431 z m 654 181 b 556 279 654 236 611 279 b 457 181 500 279 457 236 b 556 82 457 125 500 82 b 654 181 611 82 654 125 z m 654 -125 b 556 -26 654 -69 611 -26 b 457 -125 500 -26 457 -69 b 556 -224 457 -181 500 -224 b 654 -125 611 -224 654 -181 z "},"⡕":{"ha":806,"x_min":0,"x_max":0,"o":"m 349 792 b 250 890 349 847 306 890 b 151 792 194 890 151 847 b 250 693 151 736 194 693 b 349 792 306 693 349 736 z m 349 181 b 250 279 349 236 306 279 b 151 181 194 279 151 236 b 250 82 151 125 194 82 b 349 181 306 82 349 125 z m 654 486 b 556 585 654 542 611 585 b 457 486 500 585 457 542 b 556 388 457 431 500 388 b 654 486 611 388 654 431 z m 349 -125 b 250 -26 349 -69 306 -26 b 151 -125 194 -26 151 -69 b 250 -224 151 -181 194 -224 b 349 -125 306 -224 349 -181 z "},"⣕":{"ha":806,"x_min":0,"x_max":0,"o":"m 349 792 b 250 890 349 847 306 890 b 151 792 194 890 151 847 b 250 693 151 736 194 693 b 349 792 306 693 349 736 z m 349 181 b 250 279 349 236 306 279 b 151 181 194 279 151 236 b 250 82 151 125 194 82 b 349 181 306 82 349 125 z m 654 486 b 556 585 654 542 611 585 b 457 486 500 585 457 542 b 556 388 457 431 500 388 b 654 486 611 388 654 431 z m 349 -125 b 250 -26 349 -69 306 -26 b 151 -125 194 -26 151 -69 b 250 -224 151 -181 194 -224 b 349 -125 306 -224 349 -181 z m 654 -125 b 556 -26 654 -69 611 -26 b 457 -125 500 -26 457 -69 b 556 -224 457 -181 500 -224 b 654 -125 611 -224 654 -181 z "},"⢕":{"ha":806,"x_min":0,"x_max":0,"o":"m 349 792 b 250 890 349 847 306 890 b 151 792 194 890 151 847 b 250 693 151 736 194 693 b 349 792 306 693 349 736 z m 349 181 b 250 279 349 236 306 279 b 151 181 194 279 151 236 b 250 82 151 125 194 82 b 349 181 306 82 349 125 z m 654 486 b 556 585 654 542 611 585 b 457 486 500 585 457 542 b 556 388 457 431 500 388 b 654 486 611 388 654 431 z m 654 -125 b 556 -26 654 -69 611 -26 b 457 -125 500 -26 457 -69 b 556 -224 457 -181 500 -224 b 654 -125 611 -224 654 -181 z "},"⠥":{"ha":806,"x_min":0,"x_max":0,"o":"m 349 792 b 250 890 349 847 306 890 b 151 792 194 890 151 847 b 250 693 151 736 194 693 b 349 792 306 693 349 736 z m 349 181 b 250 279 349 236 306 279 b 151 181 194 279 151 236 b 250 82 151 125 194 82 b 349 181 306 82 349 125 z m 654 181 b 556 279 654 236 611 279 b 457 181 500 279 457 236 b 556 82 457 125 500 82 b 654 181 611 82 654 125 z "},"⡥":{"ha":806,"x_min":0,"x_max":0,"o":"m 349 792 b 250 890 349 847 306 890 b 151 792 194 890 151 847 b 250 693 151 736 194 693 b 349 792 306 693 349 736 z m 349 181 b 250 279 349 236 306 279 b 151 181 194 279 151 236 b 250 82 151 125 194 82 b 349 181 306 82 349 125 z m 654 181 b 556 279 654 236 611 279 b 457 181 500 279 457 236 b 556 82 457 125 500 82 b 654 181 611 82 654 125 z m 349 -125 b 250 -26 349 -69 306 -26 b 151 -125 194 -26 151 -69 b 250 -224 151 -181 194 -224 b 349 -125 306 -224 349 -181 z "},"⣥":{"ha":806,"x_min":0,"x_max":0,"o":"m 349 792 b 250 890 349 847 306 890 b 151 792 194 890 151 847 b 250 693 151 736 194 693 b 349 792 306 693 349 736 z m 349 181 b 250 279 349 236 306 279 b 151 181 194 279 151 236 b 250 82 151 125 194 82 b 349 181 306 82 349 125 z m 654 181 b 556 279 654 236 611 279 b 457 181 500 279 457 236 b 556 82 457 125 500 82 b 654 181 611 82 654 125 z m 349 -125 b 250 -26 349 -69 306 -26 b 151 -125 194 -26 151 -69 b 250 -224 151 -181 194 -224 b 349 -125 306 -224 349 -181 z m 654 -125 b 556 -26 654 -69 611 -26 b 457 -125 500 -26 457 -69 b 556 -224 457 -181 500 -224 b 654 -125 611 -224 654 -181 z "},"⢥":{"ha":806,"x_min":0,"x_max":0,"o":"m 349 792 b 250 890 349 847 306 890 b 151 792 194 890 151 847 b 250 693 151 736 194 693 b 349 792 306 693 349 736 z m 349 181 b 250 279 349 236 306 279 b 151 181 194 279 151 236 b 250 82 151 125 194 82 b 349 181 306 82 349 125 z m 654 181 b 556 279 654 236 611 279 b 457 181 500 279 457 236 b 556 82 457 125 500 82 b 654 181 611 82 654 125 z m 654 -125 b 556 -26 654 -69 611 -26 b 457 -125 500 -26 457 -69 b 556 -224 457 -181 500 -224 b 654 -125 611 -224 654 -181 z "},"⡅":{"ha":806,"x_min":0,"x_max":0,"o":"m 349 792 b 250 890 349 847 306 890 b 151 792 194 890 151 847 b 250 693 151 736 194 693 b 349 792 306 693 349 736 z m 349 181 b 250 279 349 236 306 279 b 151 181 194 279 151 236 b 250 82 151 125 194 82 b 349 181 306 82 349 125 z m 349 -125 b 250 -26 349 -69 306 -26 b 151 -125 194 -26 151 -69 b 250 -224 151 -181 194 -224 b 349 -125 306 -224 349 -181 z "},"⣅":{"ha":806,"x_min":0,"x_max":0,"o":"m 349 792 b 250 890 349 847 306 890 b 151 792 194 890 151 847 b 250 693 151 736 194 693 b 349 792 306 693 349 736 z m 349 181 b 250 279 349 236 306 279 b 151 181 194 279 151 236 b 250 82 151 125 194 82 b 349 181 306 82 349 125 z m 349 -125 b 250 -26 349 -69 306 -26 b 151 -125 194 -26 151 -69 b 250 -224 151 -181 194 -224 b 349 -125 306 -224 349 -181 z m 654 -125 b 556 -26 654 -69 611 -26 b 457 -125 500 -26 457 -69 b 556 -224 457 -181 500 -224 b 654 -125 611 -224 654 -181 z "},"⢅":{"ha":806,"x_min":0,"x_max":0,"o":"m 349 792 b 250 890 349 847 306 890 b 151 792 194 890 151 847 b 250 693 151 736 194 693 b 349 792 306 693 349 736 z m 349 181 b 250 279 349 236 306 279 b 151 181 194 279 151 236 b 250 82 151 125 194 82 b 349 181 306 82 349 125 z m 654 -125 b 556 -26 654 -69 611 -26 b 457 -125 500 -26 457 -69 b 556 -224 457 -181 500 -224 b 654 -125 611 -224 654 -181 z "},"⠉":{"ha":806,"x_min":0,"x_max":0,"o":"m 349 792 b 250 890 349 847 306 890 b 151 792 194 890 151 847 b 250 693 151 736 194 693 b 349 792 306 693 349 736 z m 654 792 b 556 890 654 847 611 890 b 457 792 500 890 457 847 b 556 693 457 736 500 693 b 654 792 611 693 654 736 z "},"⠙":{"ha":806,"x_min":0,"x_max":0,"o":"m 349 792 b 250 890 349 847 306 890 b 151 792 194 890 151 847 b 250 693 151 736 194 693 b 349 792 306 693 349 736 z m 654 792 b 556 890 654 847 611 890 b 457 792 500 890 457 847 b 556 693 457 736 500 693 b 654 792 611 693 654 736 z m 654 486 b 556 585 654 542 611 585 b 457 486 500 585 457 542 b 556 388 457 431 500 388 b 654 486 611 388 654 431 z "},"⠹":{"ha":806,"x_min":0,"x_max":0,"o":"m 349 792 b 250 890 349 847 306 890 b 151 792 194 890 151 847 b 250 693 151 736 194 693 b 349 792 306 693 349 736 z m 654 792 b 556 890 654 847 611 890 b 457 792 500 890 457 847 b 556 693 457 736 500 693 b 654 792 611 693 654 736 z m 654 486 b 556 585 654 542 611 585 b 457 486 500 585 457 542 b 556 388 457 431 500 388 b 654 486 611 388 654 431 z m 654 181 b 556 279 654 236 611 279 b 457 181 500 279 457 236 b 556 82 457 125 500 82 b 654 181 611 82 654 125 z "},"⡹":{"ha":806,"x_min":0,"x_max":0,"o":"m 349 792 b 250 890 349 847 306 890 b 151 792 194 890 151 847 b 250 693 151 736 194 693 b 349 792 306 693 349 736 z m 654 792 b 556 890 654 847 611 890 b 457 792 500 890 457 847 b 556 693 457 736 500 693 b 654 792 611 693 654 736 z m 654 486 b 556 585 654 542 611 585 b 457 486 500 585 457 542 b 556 388 457 431 500 388 b 654 486 611 388 654 431 z m 654 181 b 556 279 654 236 611 279 b 457 181 500 279 457 236 b 556 82 457 125 500 82 b 654 181 611 82 654 125 z m 349 -125 b 250 -26 349 -69 306 -26 b 151 -125 194 -26 151 -69 b 250 -224 151 -181 194 -224 b 349 -125 306 -224 349 -181 z "},"⣹":{"ha":806,"x_min":0,"x_max":0,"o":"m 349 792 b 250 890 349 847 306 890 b 151 792 194 890 151 847 b 250 693 151 736 194 693 b 349 792 306 693 349 736 z m 654 792 b 556 890 654 847 611 890 b 457 792 500 890 457 847 b 556 693 457 736 500 693 b 654 792 611 693 654 736 z m 654 486 b 556 585 654 542 611 585 b 457 486 500 585 457 542 b 556 388 457 431 500 388 b 654 486 611 388 654 431 z m 654 181 b 556 279 654 236 611 279 b 457 181 500 279 457 236 b 556 82 457 125 500 82 b 654 181 611 82 654 125 z m 349 -125 b 250 -26 349 -69 306 -26 b 151 -125 194 -26 151 -69 b 250 -224 151 -181 194 -224 b 349 -125 306 -224 349 -181 z m 654 -125 b 556 -26 654 -69 611 -26 b 457 -125 500 -26 457 -69 b 556 -224 457 -181 500 -224 b 654 -125 611 -224 654 -181 z "},"⢹":{"ha":806,"x_min":0,"x_max":0,"o":"m 349 792 b 250 890 349 847 306 890 b 151 792 194 890 151 847 b 250 693 151 736 194 693 b 349 792 306 693 349 736 z m 654 792 b 556 890 654 847 611 890 b 457 792 500 890 457 847 b 556 693 457 736 500 693 b 654 792 611 693 654 736 z m 654 486 b 556 585 654 542 611 585 b 457 486 500 585 457 542 b 556 388 457 431 500 388 b 654 486 611 388 654 431 z m 654 181 b 556 279 654 236 611 279 b 457 181 500 279 457 236 b 556 82 457 125 500 82 b 654 181 611 82 654 125 z m 654 -125 b 556 -26 654 -69 611 -26 b 457 -125 500 -26 457 -69 b 556 -224 457 -181 500 -224 b 654 -125 611 -224 654 -181 z "},"⡙":{"ha":806,"x_min":0,"x_max":0,"o":"m 349 792 b 250 890 349 847 306 890 b 151 792 194 890 151 847 b 250 693 151 736 194 693 b 349 792 306 693 349 736 z m 654 792 b 556 890 654 847 611 890 b 457 792 500 890 457 847 b 556 693 457 736 500 693 b 654 792 611 693 654 736 z m 654 486 b 556 585 654 542 611 585 b 457 486 500 585 457 542 b 556 388 457 431 500 388 b 654 486 611 388 654 431 z m 349 -125 b 250 -26 349 -69 306 -26 b 151 -125 194 -26 151 -69 b 250 -224 151 -181 194 -224 b 349 -125 306 -224 349 -181 z "},"⣙":{"ha":806,"x_min":0,"x_max":0,"o":"m 349 792 b 250 890 349 847 306 890 b 151 792 194 890 151 847 b 250 693 151 736 194 693 b 349 792 306 693 349 736 z m 654 792 b 556 890 654 847 611 890 b 457 792 500 890 457 847 b 556 693 457 736 500 693 b 654 792 611 693 654 736 z m 654 486 b 556 585 654 542 611 585 b 457 486 500 585 457 542 b 556 388 457 431 500 388 b 654 486 611 388 654 431 z m 349 -125 b 250 -26 349 -69 306 -26 b 151 -125 194 -26 151 -69 b 250 -224 151 -181 194 -224 b 349 -125 306 -224 349 -181 z m 654 -125 b 556 -26 654 -69 611 -26 b 457 -125 500 -26 457 -69 b 556 -224 457 -181 500 -224 b 654 -125 611 -224 654 -181 z "},"⢙":{"ha":806,"x_min":0,"x_max":0,"o":"m 349 792 b 250 890 349 847 306 890 b 151 792 194 890 151 847 b 250 693 151 736 194 693 b 349 792 306 693 349 736 z m 654 792 b 556 890 654 847 611 890 b 457 792 500 890 457 847 b 556 693 457 736 500 693 b 654 792 611 693 654 736 z m 654 486 b 556 585 654 542 611 585 b 457 486 500 585 457 542 b 556 388 457 431 500 388 b 654 486 611 388 654 431 z m 654 -125 b 556 -26 654 -69 611 -26 b 457 -125 500 -26 457 -69 b 556 -224 457 -181 500 -224 b 654 -125 611 -224 654 -181 z "},"⠩":{"ha":806,"x_min":0,"x_max":0,"o":"m 349 792 b 250 890 349 847 306 890 b 151 792 194 890 151 847 b 250 693 151 736 194 693 b 349 792 306 693 349 736 z m 654 792 b 556 890 654 847 611 890 b 457 792 500 890 457 847 b 556 693 457 736 500 693 b 654 792 611 693 654 736 z m 654 181 b 556 279 654 236 611 279 b 457 181 500 279 457 236 b 556 82 457 125 500 82 b 654 181 611 82 654 125 z "},"⡩":{"ha":806,"x_min":0,"x_max":0,"o":"m 349 792 b 250 890 349 847 306 890 b 151 792 194 890 151 847 b 250 693 151 736 194 693 b 349 792 306 693 349 736 z m 654 792 b 556 890 654 847 611 890 b 457 792 500 890 457 847 b 556 693 457 736 500 693 b 654 792 611 693 654 736 z m 654 181 b 556 279 654 236 611 279 b 457 181 500 279 457 236 b 556 82 457 125 500 82 b 654 181 611 82 654 125 z m 349 -125 b 250 -26 349 -69 306 -26 b 151 -125 194 -26 151 -69 b 250 -224 151 -181 194 -224 b 349 -125 306 -224 349 -181 z "},"⣩":{"ha":806,"x_min":0,"x_max":0,"o":"m 349 792 b 250 890 349 847 306 890 b 151 792 194 890 151 847 b 250 693 151 736 194 693 b 349 792 306 693 349 736 z m 654 792 b 556 890 654 847 611 890 b 457 792 500 890 457 847 b 556 693 457 736 500 693 b 654 792 611 693 654 736 z m 654 181 b 556 279 654 236 611 279 b 457 181 500 279 457 236 b 556 82 457 125 500 82 b 654 181 611 82 654 125 z m 349 -125 b 250 -26 349 -69 306 -26 b 151 -125 194 -26 151 -69 b 250 -224 151 -181 194 -224 b 349 -125 306 -224 349 -181 z m 654 -125 b 556 -26 654 -69 611 -26 b 457 -125 500 -26 457 -69 b 556 -224 457 -181 500 -224 b 654 -125 611 -224 654 -181 z "},"⢩":{"ha":806,"x_min":0,"x_max":0,"o":"m 349 792 b 250 890 349 847 306 890 b 151 792 194 890 151 847 b 250 693 151 736 194 693 b 349 792 306 693 349 736 z m 654 792 b 556 890 654 847 611 890 b 457 792 500 890 457 847 b 556 693 457 736 500 693 b 654 792 611 693 654 736 z m 654 181 b 556 279 654 236 611 279 b 457 181 500 279 457 236 b 556 82 457 125 500 82 b 654 181 611 82 654 125 z m 654 -125 b 556 -26 654 -69 611 -26 b 457 -125 500 -26 457 -69 b 556 -224 457 -181 500 -224 b 654 -125 611 -224 654 -181 z "},"⡉":{"ha":806,"x_min":0,"x_max":0,"o":"m 349 792 b 250 890 349 847 306 890 b 151 792 194 890 151 847 b 250 693 151 736 194 693 b 349 792 306 693 349 736 z m 654 792 b 556 890 654 847 611 890 b 457 792 500 890 457 847 b 556 693 457 736 500 693 b 654 792 611 693 654 736 z m 349 -125 b 250 -26 349 -69 306 -26 b 151 -125 194 -26 151 -69 b 250 -224 151 -181 194 -224 b 349 -125 306 -224 349 -181 z "},"⣉":{"ha":806,"x_min":0,"x_max":0,"o":"m 349 792 b 250 890 349 847 306 890 b 151 792 194 890 151 847 b 250 693 151 736 194 693 b 349 792 306 693 349 736 z m 654 792 b 556 890 654 847 611 890 b 457 792 500 890 457 847 b 556 693 457 736 500 693 b 654 792 611 693 654 736 z m 349 -125 b 250 -26 349 -69 306 -26 b 151 -125 194 -26 151 -69 b 250 -224 151 -181 194 -224 b 349 -125 306 -224 349 -181 z m 654 -125 b 556 -26 654 -69 611 -26 b 457 -125 500 -26 457 -69 b 556 -224 457 -181 500 -224 b 654 -125 611 -224 654 -181 z "},"⢉":{"ha":806,"x_min":0,"x_max":0,"o":"m 349 792 b 250 890 349 847 306 890 b 151 792 194 890 151 847 b 250 693 151 736 194 693 b 349 792 306 693 349 736 z m 654 792 b 556 890 654 847 611 890 b 457 792 500 890 457 847 b 556 693 457 736 500 693 b 654 792 611 693 654 736 z m 654 -125 b 556 -26 654 -69 611 -26 b 457 -125 500 -26 457 -69 b 556 -224 457 -181 500 -224 b 654 -125 611 -224 654 -181 z "},"⠑":{"ha":806,"x_min":0,"x_max":0,"o":"m 349 792 b 250 890 349 847 306 890 b 151 792 194 890 151 847 b 250 693 151 736 194 693 b 349 792 306 693 349 736 z m 654 486 b 556 585 654 542 611 585 b 457 486 500 585 457 542 b 556 388 457 431 500 388 b 654 486 611 388 654 431 z "},"⠱":{"ha":806,"x_min":0,"x_max":0,"o":"m 349 792 b 250 890 349 847 306 890 b 151 792 194 890 151 847 b 250 693 151 736 194 693 b 349 792 306 693 349 736 z m 654 486 b 556 585 654 542 611 585 b 457 486 500 585 457 542 b 556 388 457 431 500 388 b 654 486 611 388 654 431 z m 654 181 b 556 279 654 236 611 279 b 457 181 500 279 457 236 b 556 82 457 125 500 82 b 654 181 611 82 654 125 z "},"⡱":{"ha":806,"x_min":0,"x_max":0,"o":"m 349 792 b 250 890 349 847 306 890 b 151 792 194 890 151 847 b 250 693 151 736 194 693 b 349 792 306 693 349 736 z m 654 486 b 556 585 654 542 611 585 b 457 486 500 585 457 542 b 556 388 457 431 500 388 b 654 486 611 388 654 431 z m 654 181 b 556 279 654 236 611 279 b 457 181 500 279 457 236 b 556 82 457 125 500 82 b 654 181 611 82 654 125 z m 349 -125 b 250 -26 349 -69 306 -26 b 151 -125 194 -26 151 -69 b 250 -224 151 -181 194 -224 b 349 -125 306 -224 349 -181 z "},"⣱":{"ha":806,"x_min":0,"x_max":0,"o":"m 349 792 b 250 890 349 847 306 890 b 151 792 194 890 151 847 b 250 693 151 736 194 693 b 349 792 306 693 349 736 z m 654 486 b 556 585 654 542 611 585 b 457 486 500 585 457 542 b 556 388 457 431 500 388 b 654 486 611 388 654 431 z m 654 181 b 556 279 654 236 611 279 b 457 181 500 279 457 236 b 556 82 457 125 500 82 b 654 181 611 82 654 125 z m 349 -125 b 250 -26 349 -69 306 -26 b 151 -125 194 -26 151 -69 b 250 -224 151 -181 194 -224 b 349 -125 306 -224 349 -181 z m 654 -125 b 556 -26 654 -69 611 -26 b 457 -125 500 -26 457 -69 b 556 -224 457 -181 500 -224 b 654 -125 611 -224 654 -181 z "},"⢱":{"ha":806,"x_min":0,"x_max":0,"o":"m 349 792 b 250 890 349 847 306 890 b 151 792 194 890 151 847 b 250 693 151 736 194 693 b 349 792 306 693 349 736 z m 654 486 b 556 585 654 542 611 585 b 457 486 500 585 457 542 b 556 388 457 431 500 388 b 654 486 611 388 654 431 z m 654 181 b 556 279 654 236 611 279 b 457 181 500 279 457 236 b 556 82 457 125 500 82 b 654 181 611 82 654 125 z m 654 -125 b 556 -26 654 -69 611 -26 b 457 -125 500 -26 457 -69 b 556 -224 457 -181 500 -224 b 654 -125 611 -224 654 -181 z "},"⡑":{"ha":806,"x_min":0,"x_max":0,"o":"m 349 792 b 250 890 349 847 306 890 b 151 792 194 890 151 847 b 250 693 151 736 194 693 b 349 792 306 693 349 736 z m 654 486 b 556 585 654 542 611 585 b 457 486 500 585 457 542 b 556 388 457 431 500 388 b 654 486 611 388 654 431 z m 349 -125 b 250 -26 349 -69 306 -26 b 151 -125 194 -26 151 -69 b 250 -224 151 -181 194 -224 b 349 -125 306 -224 349 -181 z "},"⣑":{"ha":806,"x_min":0,"x_max":0,"o":"m 349 792 b 250 890 349 847 306 890 b 151 792 194 890 151 847 b 250 693 151 736 194 693 b 349 792 306 693 349 736 z m 654 486 b 556 585 654 542 611 585 b 457 486 500 585 457 542 b 556 388 457 431 500 388 b 654 486 611 388 654 431 z m 349 -125 b 250 -26 349 -69 306 -26 b 151 -125 194 -26 151 -69 b 250 -224 151 -181 194 -224 b 349 -125 306 -224 349 -181 z m 654 -125 b 556 -26 654 -69 611 -26 b 457 -125 500 -26 457 -69 b 556 -224 457 -181 500 -224 b 654 -125 611 -224 654 -181 z "},"⢑":{"ha":806,"x_min":0,"x_max":0,"o":"m 349 792 b 250 890 349 847 306 890 b 151 792 194 890 151 847 b 250 693 151 736 194 693 b 349 792 306 693 349 736 z m 654 486 b 556 585 654 542 611 585 b 457 486 500 585 457 542 b 556 388 457 431 500 388 b 654 486 611 388 654 431 z m 654 -125 b 556 -26 654 -69 611 -26 b 457 -125 500 -26 457 -69 b 556 -224 457 -181 500 -224 b 654 -125 611 -224 654 -181 z "},"⠡":{"ha":806,"x_min":0,"x_max":0,"o":"m 349 792 b 250 890 349 847 306 890 b 151 792 194 890 151 847 b 250 693 151 736 194 693 b 349 792 306 693 349 736 z m 654 181 b 556 279 654 236 611 279 b 457 181 500 279 457 236 b 556 82 457 125 500 82 b 654 181 611 82 654 125 z "},"⡡":{"ha":806,"x_min":0,"x_max":0,"o":"m 349 792 b 250 890 349 847 306 890 b 151 792 194 890 151 847 b 250 693 151 736 194 693 b 349 792 306 693 349 736 z m 654 181 b 556 279 654 236 611 279 b 457 181 500 279 457 236 b 556 82 457 125 500 82 b 654 181 611 82 654 125 z m 349 -125 b 250 -26 349 -69 306 -26 b 151 -125 194 -26 151 -69 b 250 -224 151 -181 194 -224 b 349 -125 306 -224 349 -181 z "},"⣡":{"ha":806,"x_min":0,"x_max":0,"o":"m 349 792 b 250 890 349 847 306 890 b 151 792 194 890 151 847 b 250 693 151 736 194 693 b 349 792 306 693 349 736 z m 654 181 b 556 279 654 236 611 279 b 457 181 500 279 457 236 b 556 82 457 125 500 82 b 654 181 611 82 654 125 z m 349 -125 b 250 -26 349 -69 306 -26 b 151 -125 194 -26 151 -69 b 250 -224 151 -181 194 -224 b 349 -125 306 -224 349 -181 z m 654 -125 b 556 -26 654 -69 611 -26 b 457 -125 500 -26 457 -69 b 556 -224 457 -181 500 -224 b 654 -125 611 -224 654 -181 z "},"⢡":{"ha":806,"x_min":0,"x_max":0,"o":"m 349 792 b 250 890 349 847 306 890 b 151 792 194 890 151 847 b 250 693 151 736 194 693 b 349 792 306 693 349 736 z m 654 181 b 556 279 654 236 611 279 b 457 181 500 279 457 236 b 556 82 457 125 500 82 b 654 181 611 82 654 125 z m 654 -125 b 556 -26 654 -69 611 -26 b 457 -125 500 -26 457 -69 b 556 -224 457 -181 500 -224 b 654 -125 611 -224 654 -181 z "},"⡁":{"ha":806,"x_min":0,"x_max":0,"o":"m 349 792 b 250 890 349 847 306 890 b 151 792 194 890 151 847 b 250 693 151 736 194 693 b 349 792 306 693 349 736 z m 349 -125 b 250 -26 349 -69 306 -26 b 151 -125 194 -26 151 -69 b 250 -224 151 -181 194 -224 b 349 -125 306 -224 349 -181 z "},"⣁":{"ha":806,"x_min":0,"x_max":0,"o":"m 349 792 b 250 890 349 847 306 890 b 151 792 194 890 151 847 b 250 693 151 736 194 693 b 349 792 306 693 349 736 z m 349 -125 b 250 -26 349 -69 306 -26 b 151 -125 194 -26 151 -69 b 250 -224 151 -181 194 -224 b 349 -125 306 -224 349 -181 z m 654 -125 b 556 -26 654 -69 611 -26 b 457 -125 500 -26 457 -69 b 556 -224 457 -181 500 -224 b 654 -125 611 -224 654 -181 z "},"⢁":{"ha":806,"x_min":0,"x_max":0,"o":"m 349 792 b 250 890 349 847 306 890 b 151 792 194 890 151 847 b 250 693 151 736 194 693 b 349 792 306 693 349 736 z m 654 -125 b 556 -26 654 -69 611 -26 b 457 -125 500 -26 457 -69 b 556 -224 457 -181 500 -224 b 654 -125 611 -224 654 -181 z "},"⠂":{"ha":806,"x_min":0,"x_max":0,"o":"m 349 486 b 250 585 349 542 306 585 b 151 486 194 585 151 542 b 250 388 151 431 194 388 b 349 486 306 388 349 431 z "},"⠆":{"ha":806,"x_min":0,"x_max":0,"o":"m 349 486 b 250 585 349 542 306 585 b 151 486 194 585 151 542 b 250 388 151 431 194 388 b 349 486 306 388 349 431 z m 349 181 b 250 279 349 236 306 279 b 151 181 194 279 151 236 b 250 82 151 125 194 82 b 349 181 306 82 349 125 z "},"⠎":{"ha":806,"x_min":0,"x_max":0,"o":"m 349 486 b 250 585 349 542 306 585 b 151 486 194 585 151 542 b 250 388 151 431 194 388 b 349 486 306 388 349 431 z m 349 181 b 250 279 349 236 306 279 b 151 181 194 279 151 236 b 250 82 151 125 194 82 b 349 181 306 82 349 125 z m 654 792 b 556 890 654 847 611 890 b 457 792 500 890 457 847 b 556 693 457 736 500 693 b 654 792 611 693 654 736 z "},"⠞":{"ha":806,"x_min":0,"x_max":0,"o":"m 349 486 b 250 585 349 542 306 585 b 151 486 194 585 151 542 b 250 388 151 431 194 388 b 349 486 306 388 349 431 z m 349 181 b 250 279 349 236 306 279 b 151 181 194 279 151 236 b 250 82 151 125 194 82 b 349 181 306 82 349 125 z m 654 792 b 556 890 654 847 611 890 b 457 792 500 890 457 847 b 556 693 457 736 500 693 b 654 792 611 693 654 736 z m 654 486 b 556 585 654 542 611 585 b 457 486 500 585 457 542 b 556 388 457 431 500 388 b 654 486 611 388 654 431 z "},"⠾":{"ha":806,"x_min":0,"x_max":0,"o":"m 349 486 b 250 585 349 542 306 585 b 151 486 194 585 151 542 b 250 388 151 431 194 388 b 349 486 306 388 349 431 z m 349 181 b 250 279 349 236 306 279 b 151 181 194 279 151 236 b 250 82 151 125 194 82 b 349 181 306 82 349 125 z m 654 792 b 556 890 654 847 611 890 b 457 792 500 890 457 847 b 556 693 457 736 500 693 b 654 792 611 693 654 736 z m 654 486 b 556 585 654 542 611 585 b 457 486 500 585 457 542 b 556 388 457 431 500 388 b 654 486 611 388 654 431 z m 654 181 b 556 279 654 236 611 279 b 457 181 500 279 457 236 b 556 82 457 125 500 82 b 654 181 611 82 654 125 z "},"⡾":{"ha":806,"x_min":0,"x_max":0,"o":"m 349 486 b 250 585 349 542 306 585 b 151 486 194 585 151 542 b 250 388 151 431 194 388 b 349 486 306 388 349 431 z m 349 181 b 250 279 349 236 306 279 b 151 181 194 279 151 236 b 250 82 151 125 194 82 b 349 181 306 82 349 125 z m 654 792 b 556 890 654 847 611 890 b 457 792 500 890 457 847 b 556 693 457 736 500 693 b 654 792 611 693 654 736 z m 654 486 b 556 585 654 542 611 585 b 457 486 500 585 457 542 b 556 388 457 431 500 388 b 654 486 611 388 654 431 z m 654 181 b 556 279 654 236 611 279 b 457 181 500 279 457 236 b 556 82 457 125 500 82 b 654 181 611 82 654 125 z m 349 -125 b 250 -26 349 -69 306 -26 b 151 -125 194 -26 151 -69 b 250 -224 151 -181 194 -224 b 349 -125 306 -224 349 -181 z "},"⣾":{"ha":806,"x_min":0,"x_max":0,"o":"m 349 486 b 250 585 349 542 306 585 b 151 486 194 585 151 542 b 250 388 151 431 194 388 b 349 486 306 388 349 431 z m 349 181 b 250 279 349 236 306 279 b 151 181 194 279 151 236 b 250 82 151 125 194 82 b 349 181 306 82 349 125 z m 654 792 b 556 890 654 847 611 890 b 457 792 500 890 457 847 b 556 693 457 736 500 693 b 654 792 611 693 654 736 z m 654 486 b 556 585 654 542 611 585 b 457 486 500 585 457 542 b 556 388 457 431 500 388 b 654 486 611 388 654 431 z m 654 181 b 556 279 654 236 611 279 b 457 181 500 279 457 236 b 556 82 457 125 500 82 b 654 181 611 82 654 125 z m 349 -125 b 250 -26 349 -69 306 -26 b 151 -125 194 -26 151 -69 b 250 -224 151 -181 194 -224 b 349 -125 306 -224 349 -181 z m 654 -125 b 556 -26 654 -69 611 -26 b 457 -125 500 -26 457 -69 b 556 -224 457 -181 500 -224 b 654 -125 611 -224 654 -181 z "},"⢾":{"ha":806,"x_min":0,"x_max":0,"o":"m 349 486 b 250 585 349 542 306 585 b 151 486 194 585 151 542 b 250 388 151 431 194 388 b 349 486 306 388 349 431 z m 349 181 b 250 279 349 236 306 279 b 151 181 194 279 151 236 b 250 82 151 125 194 82 b 349 181 306 82 349 125 z m 654 792 b 556 890 654 847 611 890 b 457 792 500 890 457 847 b 556 693 457 736 500 693 b 654 792 611 693 654 736 z m 654 486 b 556 585 654 542 611 585 b 457 486 500 585 457 542 b 556 388 457 431 500 388 b 654 486 611 388 654 431 z m 654 181 b 556 279 654 236 611 279 b 457 181 500 279 457 236 b 556 82 457 125 500 82 b 654 181 611 82 654 125 z m 654 -125 b 556 -26 654 -69 611 -26 b 457 -125 500 -26 457 -69 b 556 -224 457 -181 500 -224 b 654 -125 611 -224 654 -181 z "},"⡞":{"ha":806,"x_min":0,"x_max":0,"o":"m 349 486 b 250 585 349 542 306 585 b 151 486 194 585 151 542 b 250 388 151 431 194 388 b 349 486 306 388 349 431 z m 349 181 b 250 279 349 236 306 279 b 151 181 194 279 151 236 b 250 82 151 125 194 82 b 349 181 306 82 349 125 z m 654 792 b 556 890 654 847 611 890 b 457 792 500 890 457 847 b 556 693 457 736 500 693 b 654 792 611 693 654 736 z m 654 486 b 556 585 654 542 611 585 b 457 486 500 585 457 542 b 556 388 457 431 500 388 b 654 486 611 388 654 431 z m 349 -125 b 250 -26 349 -69 306 -26 b 151 -125 194 -26 151 -69 b 250 -224 151 -181 194 -224 b 349 -125 306 -224 349 -181 z "},"⣞":{"ha":806,"x_min":0,"x_max":0,"o":"m 349 486 b 250 585 349 542 306 585 b 151 486 194 585 151 542 b 250 388 151 431 194 388 b 349 486 306 388 349 431 z m 349 181 b 250 279 349 236 306 279 b 151 181 194 279 151 236 b 250 82 151 125 194 82 b 349 181 306 82 349 125 z m 654 792 b 556 890 654 847 611 890 b 457 792 500 890 457 847 b 556 693 457 736 500 693 b 654 792 611 693 654 736 z m 654 486 b 556 585 654 542 611 585 b 457 486 500 585 457 542 b 556 388 457 431 500 388 b 654 486 611 388 654 431 z m 349 -125 b 250 -26 349 -69 306 -26 b 151 -125 194 -26 151 -69 b 250 -224 151 -181 194 -224 b 349 -125 306 -224 349 -181 z m 654 -125 b 556 -26 654 -69 611 -26 b 457 -125 500 -26 457 -69 b 556 -224 457 -181 500 -224 b 654 -125 611 -224 654 -181 z "},"⢞":{"ha":806,"x_min":0,"x_max":0,"o":"m 349 486 b 250 585 349 542 306 585 b 151 486 194 585 151 542 b 250 388 151 431 194 388 b 349 486 306 388 349 431 z m 349 181 b 250 279 349 236 306 279 b 151 181 194 279 151 236 b 250 82 151 125 194 82 b 349 181 306 82 349 125 z m 654 792 b 556 890 654 847 611 890 b 457 792 500 890 457 847 b 556 693 457 736 500 693 b 654 792 611 693 654 736 z m 654 486 b 556 585 654 542 611 585 b 457 486 500 585 457 542 b 556 388 457 431 500 388 b 654 486 611 388 654 431 z m 654 -125 b 556 -26 654 -69 611 -26 b 457 -125 500 -26 457 -69 b 556 -224 457 -181 500 -224 b 654 -125 611 -224 654 -181 z "},"⠮":{"ha":806,"x_min":0,"x_max":0,"o":"m 349 486 b 250 585 349 542 306 585 b 151 486 194 585 151 542 b 250 388 151 431 194 388 b 349 486 306 388 349 431 z m 349 181 b 250 279 349 236 306 279 b 151 181 194 279 151 236 b 250 82 151 125 194 82 b 349 181 306 82 349 125 z m 654 792 b 556 890 654 847 611 890 b 457 792 500 890 457 847 b 556 693 457 736 500 693 b 654 792 611 693 654 736 z m 654 181 b 556 279 654 236 611 279 b 457 181 500 279 457 236 b 556 82 457 125 500 82 b 654 181 611 82 654 125 z "},"⡮":{"ha":806,"x_min":0,"x_max":0,"o":"m 349 486 b 250 585 349 542 306 585 b 151 486 194 585 151 542 b 250 388 151 431 194 388 b 349 486 306 388 349 431 z m 349 181 b 250 279 349 236 306 279 b 151 181 194 279 151 236 b 250 82 151 125 194 82 b 349 181 306 82 349 125 z m 654 792 b 556 890 654 847 611 890 b 457 792 500 890 457 847 b 556 693 457 736 500 693 b 654 792 611 693 654 736 z m 654 181 b 556 279 654 236 611 279 b 457 181 500 279 457 236 b 556 82 457 125 500 82 b 654 181 611 82 654 125 z m 349 -125 b 250 -26 349 -69 306 -26 b 151 -125 194 -26 151 -69 b 250 -224 151 -181 194 -224 b 349 -125 306 -224 349 -181 z "},"⣮":{"ha":806,"x_min":0,"x_max":0,"o":"m 349 486 b 250 585 349 542 306 585 b 151 486 194 585 151 542 b 250 388 151 431 194 388 b 349 486 306 388 349 431 z m 349 181 b 250 279 349 236 306 279 b 151 181 194 279 151 236 b 250 82 151 125 194 82 b 349 181 306 82 349 125 z m 654 792 b 556 890 654 847 611 890 b 457 792 500 890 457 847 b 556 693 457 736 500 693 b 654 792 611 693 654 736 z m 654 181 b 556 279 654 236 611 279 b 457 181 500 279 457 236 b 556 82 457 125 500 82 b 654 181 611 82 654 125 z m 349 -125 b 250 -26 349 -69 306 -26 b 151 -125 194 -26 151 -69 b 250 -224 151 -181 194 -224 b 349 -125 306 -224 349 -181 z m 654 -125 b 556 -26 654 -69 611 -26 b 457 -125 500 -26 457 -69 b 556 -224 457 -181 500 -224 b 654 -125 611 -224 654 -181 z "},"⢮":{"ha":806,"x_min":0,"x_max":0,"o":"m 349 486 b 250 585 349 542 306 585 b 151 486 194 585 151 542 b 250 388 151 431 194 388 b 349 486 306 388 349 431 z m 349 181 b 250 279 349 236 306 279 b 151 181 194 279 151 236 b 250 82 151 125 194 82 b 349 181 306 82 349 125 z m 654 792 b 556 890 654 847 611 890 b 457 792 500 890 457 847 b 556 693 457 736 500 693 b 654 792 611 693 654 736 z m 654 181 b 556 279 654 236 611 279 b 457 181 500 279 457 236 b 556 82 457 125 500 82 b 654 181 611 82 654 125 z m 654 -125 b 556 -26 654 -69 611 -26 b 457 -125 500 -26 457 -69 b 556 -224 457 -181 500 -224 b 654 -125 611 -224 654 -181 z "},"⡎":{"ha":806,"x_min":0,"x_max":0,"o":"m 349 486 b 250 585 349 542 306 585 b 151 486 194 585 151 542 b 250 388 151 431 194 388 b 349 486 306 388 349 431 z m 349 181 b 250 279 349 236 306 279 b 151 181 194 279 151 236 b 250 82 151 125 194 82 b 349 181 306 82 349 125 z m 654 792 b 556 890 654 847 611 890 b 457 792 500 890 457 847 b 556 693 457 736 500 693 b 654 792 611 693 654 736 z m 349 -125 b 250 -26 349 -69 306 -26 b 151 -125 194 -26 151 -69 b 250 -224 151 -181 194 -224 b 349 -125 306 -224 349 -181 z "},"⣎":{"ha":806,"x_min":0,"x_max":0,"o":"m 349 486 b 250 585 349 542 306 585 b 151 486 194 585 151 542 b 250 388 151 431 194 388 b 349 486 306 388 349 431 z m 349 181 b 250 279 349 236 306 279 b 151 181 194 279 151 236 b 250 82 151 125 194 82 b 349 181 306 82 349 125 z m 654 792 b 556 890 654 847 611 890 b 457 792 500 890 457 847 b 556 693 457 736 500 693 b 654 792 611 693 654 736 z m 349 -125 b 250 -26 349 -69 306 -26 b 151 -125 194 -26 151 -69 b 250 -224 151 -181 194 -224 b 349 -125 306 -224 349 -181 z m 654 -125 b 556 -26 654 -69 611 -26 b 457 -125 500 -26 457 -69 b 556 -224 457 -181 500 -224 b 654 -125 611 -224 654 -181 z "},"⢎":{"ha":806,"x_min":0,"x_max":0,"o":"m 349 486 b 250 585 349 542 306 585 b 151 486 194 585 151 542 b 250 388 151 431 194 388 b 349 486 306 388 349 431 z m 349 181 b 250 279 349 236 306 279 b 151 181 194 279 151 236 b 250 82 151 125 194 82 b 349 181 306 82 349 125 z m 654 792 b 556 890 654 847 611 890 b 457 792 500 890 457 847 b 556 693 457 736 500 693 b 654 792 611 693 654 736 z m 654 -125 b 556 -26 654 -69 611 -26 b 457 -125 500 -26 457 -69 b 556 -224 457 -181 500 -224 b 654 -125 611 -224 654 -181 z "},"⠖":{"ha":806,"x_min":0,"x_max":0,"o":"m 349 486 b 250 585 349 542 306 585 b 151 486 194 585 151 542 b 250 388 151 431 194 388 b 349 486 306 388 349 431 z m 349 181 b 250 279 349 236 306 279 b 151 181 194 279 151 236 b 250 82 151 125 194 82 b 349 181 306 82 349 125 z m 654 486 b 556 585 654 542 611 585 b 457 486 500 585 457 542 b 556 388 457 431 500 388 b 654 486 611 388 654 431 z "},"⠶":{"ha":806,"x_min":0,"x_max":0,"o":"m 349 486 b 250 585 349 542 306 585 b 151 486 194 585 151 542 b 250 388 151 431 194 388 b 349 486 306 388 349 431 z m 349 181 b 250 279 349 236 306 279 b 151 181 194 279 151 236 b 250 82 151 125 194 82 b 349 181 306 82 349 125 z m 654 486 b 556 585 654 542 611 585 b 457 486 500 585 457 542 b 556 388 457 431 500 388 b 654 486 611 388 654 431 z m 654 181 b 556 279 654 236 611 279 b 457 181 500 279 457 236 b 556 82 457 125 500 82 b 654 181 611 82 654 125 z "},"⡶":{"ha":806,"x_min":0,"x_max":0,"o":"m 349 486 b 250 585 349 542 306 585 b 151 486 194 585 151 542 b 250 388 151 431 194 388 b 349 486 306 388 349 431 z m 349 181 b 250 279 349 236 306 279 b 151 181 194 279 151 236 b 250 82 151 125 194 82 b 349 181 306 82 349 125 z m 654 486 b 556 585 654 542 611 585 b 457 486 500 585 457 542 b 556 388 457 431 500 388 b 654 486 611 388 654 431 z m 654 181 b 556 279 654 236 611 279 b 457 181 500 279 457 236 b 556 82 457 125 500 82 b 654 181 611 82 654 125 z m 349 -125 b 250 -26 349 -69 306 -26 b 151 -125 194 -26 151 -69 b 250 -224 151 -181 194 -224 b 349 -125 306 -224 349 -181 z "},"⣶":{"ha":806,"x_min":0,"x_max":0,"o":"m 349 486 b 250 585 349 542 306 585 b 151 486 194 585 151 542 b 250 388 151 431 194 388 b 349 486 306 388 349 431 z m 349 181 b 250 279 349 236 306 279 b 151 181 194 279 151 236 b 250 82 151 125 194 82 b 349 181 306 82 349 125 z m 654 486 b 556 585 654 542 611 585 b 457 486 500 585 457 542 b 556 388 457 431 500 388 b 654 486 611 388 654 431 z m 654 181 b 556 279 654 236 611 279 b 457 181 500 279 457 236 b 556 82 457 125 500 82 b 654 181 611 82 654 125 z m 349 -125 b 250 -26 349 -69 306 -26 b 151 -125 194 -26 151 -69 b 250 -224 151 -181 194 -224 b 349 -125 306 -224 349 -181 z m 654 -125 b 556 -26 654 -69 611 -26 b 457 -125 500 -26 457 -69 b 556 -224 457 -181 500 -224 b 654 -125 611 -224 654 -181 z "},"⢶":{"ha":806,"x_min":0,"x_max":0,"o":"m 349 486 b 250 585 349 542 306 585 b 151 486 194 585 151 542 b 250 388 151 431 194 388 b 349 486 306 388 349 431 z m 349 181 b 250 279 349 236 306 279 b 151 181 194 279 151 236 b 250 82 151 125 194 82 b 349 181 306 82 349 125 z m 654 486 b 556 585 654 542 611 585 b 457 486 500 585 457 542 b 556 388 457 431 500 388 b 654 486 611 388 654 431 z m 654 181 b 556 279 654 236 611 279 b 457 181 500 279 457 236 b 556 82 457 125 500 82 b 654 181 611 82 654 125 z m 654 -125 b 556 -26 654 -69 611 -26 b 457 -125 500 -26 457 -69 b 556 -224 457 -181 500 -224 b 654 -125 611 -224 654 -181 z "},"⡖":{"ha":806,"x_min":0,"x_max":0,"o":"m 349 486 b 250 585 349 542 306 585 b 151 486 194 585 151 542 b 250 388 151 431 194 388 b 349 486 306 388 349 431 z m 349 181 b 250 279 349 236 306 279 b 151 181 194 279 151 236 b 250 82 151 125 194 82 b 349 181 306 82 349 125 z m 654 486 b 556 585 654 542 611 585 b 457 486 500 585 457 542 b 556 388 457 431 500 388 b 654 486 611 388 654 431 z m 349 -125 b 250 -26 349 -69 306 -26 b 151 -125 194 -26 151 -69 b 250 -224 151 -181 194 -224 b 349 -125 306 -224 349 -181 z "},"⣖":{"ha":806,"x_min":0,"x_max":0,"o":"m 349 486 b 250 585 349 542 306 585 b 151 486 194 585 151 542 b 250 388 151 431 194 388 b 349 486 306 388 349 431 z m 349 181 b 250 279 349 236 306 279 b 151 181 194 279 151 236 b 250 82 151 125 194 82 b 349 181 306 82 349 125 z m 654 486 b 556 585 654 542 611 585 b 457 486 500 585 457 542 b 556 388 457 431 500 388 b 654 486 611 388 654 431 z m 349 -125 b 250 -26 349 -69 306 -26 b 151 -125 194 -26 151 -69 b 250 -224 151 -181 194 -224 b 349 -125 306 -224 349 -181 z m 654 -125 b 556 -26 654 -69 611 -26 b 457 -125 500 -26 457 -69 b 556 -224 457 -181 500 -224 b 654 -125 611 -224 654 -181 z "},"⢖":{"ha":806,"x_min":0,"x_max":0,"o":"m 349 486 b 250 585 349 542 306 585 b 151 486 194 585 151 542 b 250 388 151 431 194 388 b 349 486 306 388 349 431 z m 349 181 b 250 279 349 236 306 279 b 151 181 194 279 151 236 b 250 82 151 125 194 82 b 349 181 306 82 349 125 z m 654 486 b 556 585 654 542 611 585 b 457 486 500 585 457 542 b 556 388 457 431 500 388 b 654 486 611 388 654 431 z m 654 -125 b 556 -26 654 -69 611 -26 b 457 -125 500 -26 457 -69 b 556 -224 457 -181 500 -224 b 654 -125 611 -224 654 -181 z "},"⠦":{"ha":806,"x_min":0,"x_max":0,"o":"m 349 486 b 250 585 349 542 306 585 b 151 486 194 585 151 542 b 250 388 151 431 194 388 b 349 486 306 388 349 431 z m 349 181 b 250 279 349 236 306 279 b 151 181 194 279 151 236 b 250 82 151 125 194 82 b 349 181 306 82 349 125 z m 654 181 b 556 279 654 236 611 279 b 457 181 500 279 457 236 b 556 82 457 125 500 82 b 654 181 611 82 654 125 z "},"⡦":{"ha":806,"x_min":0,"x_max":0,"o":"m 349 486 b 250 585 349 542 306 585 b 151 486 194 585 151 542 b 250 388 151 431 194 388 b 349 486 306 388 349 431 z m 349 181 b 250 279 349 236 306 279 b 151 181 194 279 151 236 b 250 82 151 125 194 82 b 349 181 306 82 349 125 z m 654 181 b 556 279 654 236 611 279 b 457 181 500 279 457 236 b 556 82 457 125 500 82 b 654 181 611 82 654 125 z m 349 -125 b 250 -26 349 -69 306 -26 b 151 -125 194 -26 151 -69 b 250 -224 151 -181 194 -224 b 349 -125 306 -224 349 -181 z "},"⣦":{"ha":806,"x_min":0,"x_max":0,"o":"m 349 486 b 250 585 349 542 306 585 b 151 486 194 585 151 542 b 250 388 151 431 194 388 b 349 486 306 388 349 431 z m 349 181 b 250 279 349 236 306 279 b 151 181 194 279 151 236 b 250 82 151 125 194 82 b 349 181 306 82 349 125 z m 654 181 b 556 279 654 236 611 279 b 457 181 500 279 457 236 b 556 82 457 125 500 82 b 654 181 611 82 654 125 z m 349 -125 b 250 -26 349 -69 306 -26 b 151 -125 194 -26 151 -69 b 250 -224 151 -181 194 -224 b 349 -125 306 -224 349 -181 z m 654 -125 b 556 -26 654 -69 611 -26 b 457 -125 500 -26 457 -69 b 556 -224 457 -181 500 -224 b 654 -125 611 -224 654 -181 z "},"⢦":{"ha":806,"x_min":0,"x_max":0,"o":"m 349 486 b 250 585 349 542 306 585 b 151 486 194 585 151 542 b 250 388 151 431 194 388 b 349 486 306 388 349 431 z m 349 181 b 250 279 349 236 306 279 b 151 181 194 279 151 236 b 250 82 151 125 194 82 b 349 181 306 82 349 125 z m 654 181 b 556 279 654 236 611 279 b 457 181 500 279 457 236 b 556 82 457 125 500 82 b 654 181 611 82 654 125 z m 654 -125 b 556 -26 654 -69 611 -26 b 457 -125 500 -26 457 -69 b 556 -224 457 -181 500 -224 b 654 -125 611 -224 654 -181 z "},"⡆":{"ha":806,"x_min":0,"x_max":0,"o":"m 349 486 b 250 585 349 542 306 585 b 151 486 194 585 151 542 b 250 388 151 431 194 388 b 349 486 306 388 349 431 z m 349 181 b 250 279 349 236 306 279 b 151 181 194 279 151 236 b 250 82 151 125 194 82 b 349 181 306 82 349 125 z m 349 -125 b 250 -26 349 -69 306 -26 b 151 -125 194 -26 151 -69 b 250 -224 151 -181 194 -224 b 349 -125 306 -224 349 -181 z "},"⣆":{"ha":806,"x_min":0,"x_max":0,"o":"m 349 486 b 250 585 349 542 306 585 b 151 486 194 585 151 542 b 250 388 151 431 194 388 b 349 486 306 388 349 431 z m 349 181 b 250 279 349 236 306 279 b 151 181 194 279 151 236 b 250 82 151 125 194 82 b 349 181 306 82 349 125 z m 349 -125 b 250 -26 349 -69 306 -26 b 151 -125 194 -26 151 -69 b 250 -224 151 -181 194 -224 b 349 -125 306 -224 349 -181 z m 654 -125 b 556 -26 654 -69 611 -26 b 457 -125 500 -26 457 -69 b 556 -224 457 -181 500 -224 b 654 -125 611 -224 654 -181 z "},"⢆":{"ha":806,"x_min":0,"x_max":0,"o":"m 349 486 b 250 585 349 542 306 585 b 151 486 194 585 151 542 b 250 388 151 431 194 388 b 349 486 306 388 349 431 z m 349 181 b 250 279 349 236 306 279 b 151 181 194 279 151 236 b 250 82 151 125 194 82 b 349 181 306 82 349 125 z m 654 -125 b 556 -26 654 -69 611 -26 b 457 -125 500 -26 457 -69 b 556 -224 457 -181 500 -224 b 654 -125 611 -224 654 -181 z "},"⠊":{"ha":806,"x_min":0,"x_max":0,"o":"m 349 486 b 250 585 349 542 306 585 b 151 486 194 585 151 542 b 250 388 151 431 194 388 b 349 486 306 388 349 431 z m 654 792 b 556 890 654 847 611 890 b 457 792 500 890 457 847 b 556 693 457 736 500 693 b 654 792 611 693 654 736 z "},"⠚":{"ha":806,"x_min":0,"x_max":0,"o":"m 349 486 b 250 585 349 542 306 585 b 151 486 194 585 151 542 b 250 388 151 431 194 388 b 349 486 306 388 349 431 z m 654 792 b 556 890 654 847 611 890 b 457 792 500 890 457 847 b 556 693 457 736 500 693 b 654 792 611 693 654 736 z m 654 486 b 556 585 654 542 611 585 b 457 486 500 585 457 542 b 556 388 457 431 500 388 b 654 486 611 388 654 431 z "},"⠺":{"ha":806,"x_min":0,"x_max":0,"o":"m 349 486 b 250 585 349 542 306 585 b 151 486 194 585 151 542 b 250 388 151 431 194 388 b 349 486 306 388 349 431 z m 654 792 b 556 890 654 847 611 890 b 457 792 500 890 457 847 b 556 693 457 736 500 693 b 654 792 611 693 654 736 z m 654 486 b 556 585 654 542 611 585 b 457 486 500 585 457 542 b 556 388 457 431 500 388 b 654 486 611 388 654 431 z m 654 181 b 556 279 654 236 611 279 b 457 181 500 279 457 236 b 556 82 457 125 500 82 b 654 181 611 82 654 125 z "},"⡺":{"ha":806,"x_min":0,"x_max":0,"o":"m 349 486 b 250 585 349 542 306 585 b 151 486 194 585 151 542 b 250 388 151 431 194 388 b 349 486 306 388 349 431 z m 654 792 b 556 890 654 847 611 890 b 457 792 500 890 457 847 b 556 693 457 736 500 693 b 654 792 611 693 654 736 z m 654 486 b 556 585 654 542 611 585 b 457 486 500 585 457 542 b 556 388 457 431 500 388 b 654 486 611 388 654 431 z m 654 181 b 556 279 654 236 611 279 b 457 181 500 279 457 236 b 556 82 457 125 500 82 b 654 181 611 82 654 125 z m 349 -125 b 250 -26 349 -69 306 -26 b 151 -125 194 -26 151 -69 b 250 -224 151 -181 194 -224 b 349 -125 306 -224 349 -181 z "},"⣺":{"ha":806,"x_min":0,"x_max":0,"o":"m 349 486 b 250 585 349 542 306 585 b 151 486 194 585 151 542 b 250 388 151 431 194 388 b 349 486 306 388 349 431 z m 654 792 b 556 890 654 847 611 890 b 457 792 500 890 457 847 b 556 693 457 736 500 693 b 654 792 611 693 654 736 z m 654 486 b 556 585 654 542 611 585 b 457 486 500 585 457 542 b 556 388 457 431 500 388 b 654 486 611 388 654 431 z m 654 181 b 556 279 654 236 611 279 b 457 181 500 279 457 236 b 556 82 457 125 500 82 b 654 181 611 82 654 125 z m 349 -125 b 250 -26 349 -69 306 -26 b 151 -125 194 -26 151 -69 b 250 -224 151 -181 194 -224 b 349 -125 306 -224 349 -181 z m 654 -125 b 556 -26 654 -69 611 -26 b 457 -125 500 -26 457 -69 b 556 -224 457 -181 500 -224 b 654 -125 611 -224 654 -181 z "},"⢺":{"ha":806,"x_min":0,"x_max":0,"o":"m 349 486 b 250 585 349 542 306 585 b 151 486 194 585 151 542 b 250 388 151 431 194 388 b 349 486 306 388 349 431 z m 654 792 b 556 890 654 847 611 890 b 457 792 500 890 457 847 b 556 693 457 736 500 693 b 654 792 611 693 654 736 z m 654 486 b 556 585 654 542 611 585 b 457 486 500 585 457 542 b 556 388 457 431 500 388 b 654 486 611 388 654 431 z m 654 181 b 556 279 654 236 611 279 b 457 181 500 279 457 236 b 556 82 457 125 500 82 b 654 181 611 82 654 125 z m 654 -125 b 556 -26 654 -69 611 -26 b 457 -125 500 -26 457 -69 b 556 -224 457 -181 500 -224 b 654 -125 611 -224 654 -181 z "},"⡚":{"ha":806,"x_min":0,"x_max":0,"o":"m 349 486 b 250 585 349 542 306 585 b 151 486 194 585 151 542 b 250 388 151 431 194 388 b 349 486 306 388 349 431 z m 654 792 b 556 890 654 847 611 890 b 457 792 500 890 457 847 b 556 693 457 736 500 693 b 654 792 611 693 654 736 z m 654 486 b 556 585 654 542 611 585 b 457 486 500 585 457 542 b 556 388 457 431 500 388 b 654 486 611 388 654 431 z m 349 -125 b 250 -26 349 -69 306 -26 b 151 -125 194 -26 151 -69 b 250 -224 151 -181 194 -224 b 349 -125 306 -224 349 -181 z "},"⣚":{"ha":806,"x_min":0,"x_max":0,"o":"m 349 486 b 250 585 349 542 306 585 b 151 486 194 585 151 542 b 250 388 151 431 194 388 b 349 486 306 388 349 431 z m 654 792 b 556 890 654 847 611 890 b 457 792 500 890 457 847 b 556 693 457 736 500 693 b 654 792 611 693 654 736 z m 654 486 b 556 585 654 542 611 585 b 457 486 500 585 457 542 b 556 388 457 431 500 388 b 654 486 611 388 654 431 z m 349 -125 b 250 -26 349 -69 306 -26 b 151 -125 194 -26 151 -69 b 250 -224 151 -181 194 -224 b 349 -125 306 -224 349 -181 z m 654 -125 b 556 -26 654 -69 611 -26 b 457 -125 500 -26 457 -69 b 556 -224 457 -181 500 -224 b 654 -125 611 -224 654 -181 z "},"⢚":{"ha":806,"x_min":0,"x_max":0,"o":"m 349 486 b 250 585 349 542 306 585 b 151 486 194 585 151 542 b 250 388 151 431 194 388 b 349 486 306 388 349 431 z m 654 792 b 556 890 654 847 611 890 b 457 792 500 890 457 847 b 556 693 457 736 500 693 b 654 792 611 693 654 736 z m 654 486 b 556 585 654 542 611 585 b 457 486 500 585 457 542 b 556 388 457 431 500 388 b 654 486 611 388 654 431 z m 654 -125 b 556 -26 654 -69 611 -26 b 457 -125 500 -26 457 -69 b 556 -224 457 -181 500 -224 b 654 -125 611 -224 654 -181 z "},"⠪":{"ha":806,"x_min":0,"x_max":0,"o":"m 349 486 b 250 585 349 542 306 585 b 151 486 194 585 151 542 b 250 388 151 431 194 388 b 349 486 306 388 349 431 z m 654 792 b 556 890 654 847 611 890 b 457 792 500 890 457 847 b 556 693 457 736 500 693 b 654 792 611 693 654 736 z m 654 181 b 556 279 654 236 611 279 b 457 181 500 279 457 236 b 556 82 457 125 500 82 b 654 181 611 82 654 125 z "},"⡪":{"ha":806,"x_min":0,"x_max":0,"o":"m 349 486 b 250 585 349 542 306 585 b 151 486 194 585 151 542 b 250 388 151 431 194 388 b 349 486 306 388 349 431 z m 654 792 b 556 890 654 847 611 890 b 457 792 500 890 457 847 b 556 693 457 736 500 693 b 654 792 611 693 654 736 z m 654 181 b 556 279 654 236 611 279 b 457 181 500 279 457 236 b 556 82 457 125 500 82 b 654 181 611 82 654 125 z m 349 -125 b 250 -26 349 -69 306 -26 b 151 -125 194 -26 151 -69 b 250 -224 151 -181 194 -224 b 349 -125 306 -224 349 -181 z "},"⣪":{"ha":806,"x_min":0,"x_max":0,"o":"m 349 486 b 250 585 349 542 306 585 b 151 486 194 585 151 542 b 250 388 151 431 194 388 b 349 486 306 388 349 431 z m 654 792 b 556 890 654 847 611 890 b 457 792 500 890 457 847 b 556 693 457 736 500 693 b 654 792 611 693 654 736 z m 654 181 b 556 279 654 236 611 279 b 457 181 500 279 457 236 b 556 82 457 125 500 82 b 654 181 611 82 654 125 z m 349 -125 b 250 -26 349 -69 306 -26 b 151 -125 194 -26 151 -69 b 250 -224 151 -181 194 -224 b 349 -125 306 -224 349 -181 z m 654 -125 b 556 -26 654 -69 611 -26 b 457 -125 500 -26 457 -69 b 556 -224 457 -181 500 -224 b 654 -125 611 -224 654 -181 z "},"⢪":{"ha":806,"x_min":0,"x_max":0,"o":"m 349 486 b 250 585 349 542 306 585 b 151 486 194 585 151 542 b 250 388 151 431 194 388 b 349 486 306 388 349 431 z m 654 792 b 556 890 654 847 611 890 b 457 792 500 890 457 847 b 556 693 457 736 500 693 b 654 792 611 693 654 736 z m 654 181 b 556 279 654 236 611 279 b 457 181 500 279 457 236 b 556 82 457 125 500 82 b 654 181 611 82 654 125 z m 654 -125 b 556 -26 654 -69 611 -26 b 457 -125 500 -26 457 -69 b 556 -224 457 -181 500 -224 b 654 -125 611 -224 654 -181 z "},"⡊":{"ha":806,"x_min":0,"x_max":0,"o":"m 349 486 b 250 585 349 542 306 585 b 151 486 194 585 151 542 b 250 388 151 431 194 388 b 349 486 306 388 349 431 z m 654 792 b 556 890 654 847 611 890 b 457 792 500 890 457 847 b 556 693 457 736 500 693 b 654 792 611 693 654 736 z m 349 -125 b 250 -26 349 -69 306 -26 b 151 -125 194 -26 151 -69 b 250 -224 151 -181 194 -224 b 349 -125 306 -224 349 -181 z "},"⣊":{"ha":806,"x_min":0,"x_max":0,"o":"m 349 486 b 250 585 349 542 306 585 b 151 486 194 585 151 542 b 250 388 151 431 194 388 b 349 486 306 388 349 431 z m 654 792 b 556 890 654 847 611 890 b 457 792 500 890 457 847 b 556 693 457 736 500 693 b 654 792 611 693 654 736 z m 349 -125 b 250 -26 349 -69 306 -26 b 151 -125 194 -26 151 -69 b 250 -224 151 -181 194 -224 b 349 -125 306 -224 349 -181 z m 654 -125 b 556 -26 654 -69 611 -26 b 457 -125 500 -26 457 -69 b 556 -224 457 -181 500 -224 b 654 -125 611 -224 654 -181 z "},"⢊":{"ha":806,"x_min":0,"x_max":0,"o":"m 349 486 b 250 585 349 542 306 585 b 151 486 194 585 151 542 b 250 388 151 431 194 388 b 349 486 306 388 349 431 z m 654 792 b 556 890 654 847 611 890 b 457 792 500 890 457 847 b 556 693 457 736 500 693 b 654 792 611 693 654 736 z m 654 -125 b 556 -26 654 -69 611 -26 b 457 -125 500 -26 457 -69 b 556 -224 457 -181 500 -224 b 654 -125 611 -224 654 -181 z "},"⠒":{"ha":806,"x_min":0,"x_max":0,"o":"m 349 486 b 250 585 349 542 306 585 b 151 486 194 585 151 542 b 250 388 151 431 194 388 b 349 486 306 388 349 431 z m 654 486 b 556 585 654 542 611 585 b 457 486 500 585 457 542 b 556 388 457 431 500 388 b 654 486 611 388 654 431 z "},"⠲":{"ha":806,"x_min":0,"x_max":0,"o":"m 349 486 b 250 585 349 542 306 585 b 151 486 194 585 151 542 b 250 388 151 431 194 388 b 349 486 306 388 349 431 z m 654 486 b 556 585 654 542 611 585 b 457 486 500 585 457 542 b 556 388 457 431 500 388 b 654 486 611 388 654 431 z m 654 181 b 556 279 654 236 611 279 b 457 181 500 279 457 236 b 556 82 457 125 500 82 b 654 181 611 82 654 125 z "},"⡲":{"ha":806,"x_min":0,"x_max":0,"o":"m 349 486 b 250 585 349 542 306 585 b 151 486 194 585 151 542 b 250 388 151 431 194 388 b 349 486 306 388 349 431 z m 654 486 b 556 585 654 542 611 585 b 457 486 500 585 457 542 b 556 388 457 431 500 388 b 654 486 611 388 654 431 z m 654 181 b 556 279 654 236 611 279 b 457 181 500 279 457 236 b 556 82 457 125 500 82 b 654 181 611 82 654 125 z m 349 -125 b 250 -26 349 -69 306 -26 b 151 -125 194 -26 151 -69 b 250 -224 151 -181 194 -224 b 349 -125 306 -224 349 -181 z "},"⣲":{"ha":806,"x_min":0,"x_max":0,"o":"m 349 486 b 250 585 349 542 306 585 b 151 486 194 585 151 542 b 250 388 151 431 194 388 b 349 486 306 388 349 431 z m 654 486 b 556 585 654 542 611 585 b 457 486 500 585 457 542 b 556 388 457 431 500 388 b 654 486 611 388 654 431 z m 654 181 b 556 279 654 236 611 279 b 457 181 500 279 457 236 b 556 82 457 125 500 82 b 654 181 611 82 654 125 z m 349 -125 b 250 -26 349 -69 306 -26 b 151 -125 194 -26 151 -69 b 250 -224 151 -181 194 -224 b 349 -125 306 -224 349 -181 z m 654 -125 b 556 -26 654 -69 611 -26 b 457 -125 500 -26 457 -69 b 556 -224 457 -181 500 -224 b 654 -125 611 -224 654 -181 z "},"⢲":{"ha":806,"x_min":0,"x_max":0,"o":"m 349 486 b 250 585 349 542 306 585 b 151 486 194 585 151 542 b 250 388 151 431 194 388 b 349 486 306 388 349 431 z m 654 486 b 556 585 654 542 611 585 b 457 486 500 585 457 542 b 556 388 457 431 500 388 b 654 486 611 388 654 431 z m 654 181 b 556 279 654 236 611 279 b 457 181 500 279 457 236 b 556 82 457 125 500 82 b 654 181 611 82 654 125 z m 654 -125 b 556 -26 654 -69 611 -26 b 457 -125 500 -26 457 -69 b 556 -224 457 -181 500 -224 b 654 -125 611 -224 654 -181 z "},"⡒":{"ha":806,"x_min":0,"x_max":0,"o":"m 349 486 b 250 585 349 542 306 585 b 151 486 194 585 151 542 b 250 388 151 431 194 388 b 349 486 306 388 349 431 z m 654 486 b 556 585 654 542 611 585 b 457 486 500 585 457 542 b 556 388 457 431 500 388 b 654 486 611 388 654 431 z m 349 -125 b 250 -26 349 -69 306 -26 b 151 -125 194 -26 151 -69 b 250 -224 151 -181 194 -224 b 349 -125 306 -224 349 -181 z "},"⣒":{"ha":806,"x_min":0,"x_max":0,"o":"m 349 486 b 250 585 349 542 306 585 b 151 486 194 585 151 542 b 250 388 151 431 194 388 b 349 486 306 388 349 431 z m 654 486 b 556 585 654 542 611 585 b 457 486 500 585 457 542 b 556 388 457 431 500 388 b 654 486 611 388 654 431 z m 349 -125 b 250 -26 349 -69 306 -26 b 151 -125 194 -26 151 -69 b 250 -224 151 -181 194 -224 b 349 -125 306 -224 349 -181 z m 654 -125 b 556 -26 654 -69 611 -26 b 457 -125 500 -26 457 -69 b 556 -224 457 -181 500 -224 b 654 -125 611 -224 654 -181 z "},"⢒":{"ha":806,"x_min":0,"x_max":0,"o":"m 349 486 b 250 585 349 542 306 585 b 151 486 194 585 151 542 b 250 388 151 431 194 388 b 349 486 306 388 349 431 z m 654 486 b 556 585 654 542 611 585 b 457 486 500 585 457 542 b 556 388 457 431 500 388 b 654 486 611 388 654 431 z m 654 -125 b 556 -26 654 -69 611 -26 b 457 -125 500 -26 457 -69 b 556 -224 457 -181 500 -224 b 654 -125 611 -224 654 -181 z "},"⠢":{"ha":806,"x_min":0,"x_max":0,"o":"m 349 486 b 250 585 349 542 306 585 b 151 486 194 585 151 542 b 250 388 151 431 194 388 b 349 486 306 388 349 431 z m 654 181 b 556 279 654 236 611 279 b 457 181 500 279 457 236 b 556 82 457 125 500 82 b 654 181 611 82 654 125 z "},"⡢":{"ha":806,"x_min":0,"x_max":0,"o":"m 349 486 b 250 585 349 542 306 585 b 151 486 194 585 151 542 b 250 388 151 431 194 388 b 349 486 306 388 349 431 z m 654 181 b 556 279 654 236 611 279 b 457 181 500 279 457 236 b 556 82 457 125 500 82 b 654 181 611 82 654 125 z m 349 -125 b 250 -26 349 -69 306 -26 b 151 -125 194 -26 151 -69 b 250 -224 151 -181 194 -224 b 349 -125 306 -224 349 -181 z "},"⣢":{"ha":806,"x_min":0,"x_max":0,"o":"m 349 486 b 250 585 349 542 306 585 b 151 486 194 585 151 542 b 250 388 151 431 194 388 b 349 486 306 388 349 431 z m 654 181 b 556 279 654 236 611 279 b 457 181 500 279 457 236 b 556 82 457 125 500 82 b 654 181 611 82 654 125 z m 349 -125 b 250 -26 349 -69 306 -26 b 151 -125 194 -26 151 -69 b 250 -224 151 -181 194 -224 b 349 -125 306 -224 349 -181 z m 654 -125 b 556 -26 654 -69 611 -26 b 457 -125 500 -26 457 -69 b 556 -224 457 -181 500 -224 b 654 -125 611 -224 654 -181 z "},"⢢":{"ha":806,"x_min":0,"x_max":0,"o":"m 349 486 b 250 585 349 542 306 585 b 151 486 194 585 151 542 b 250 388 151 431 194 388 b 349 486 306 388 349 431 z m 654 181 b 556 279 654 236 611 279 b 457 181 500 279 457 236 b 556 82 457 125 500 82 b 654 181 611 82 654 125 z m 654 -125 b 556 -26 654 -69 611 -26 b 457 -125 500 -26 457 -69 b 556 -224 457 -181 500 -224 b 654 -125 611 -224 654 -181 z "},"⡂":{"ha":806,"x_min":0,"x_max":0,"o":"m 349 486 b 250 585 349 542 306 585 b 151 486 194 585 151 542 b 250 388 151 431 194 388 b 349 486 306 388 349 431 z m 349 -125 b 250 -26 349 -69 306 -26 b 151 -125 194 -26 151 -69 b 250 -224 151 -181 194 -224 b 349 -125 306 -224 349 -181 z "},"⣂":{"ha":806,"x_min":0,"x_max":0,"o":"m 349 486 b 250 585 349 542 306 585 b 151 486 194 585 151 542 b 250 388 151 431 194 388 b 349 486 306 388 349 431 z m 349 -125 b 250 -26 349 -69 306 -26 b 151 -125 194 -26 151 -69 b 250 -224 151 -181 194 -224 b 349 -125 306 -224 349 -181 z m 654 -125 b 556 -26 654 -69 611 -26 b 457 -125 500 -26 457 -69 b 556 -224 457 -181 500 -224 b 654 -125 611 -224 654 -181 z "},"⢂":{"ha":806,"x_min":0,"x_max":0,"o":"m 349 486 b 250 585 349 542 306 585 b 151 486 194 585 151 542 b 250 388 151 431 194 388 b 349 486 306 388 349 431 z m 654 -125 b 556 -26 654 -69 611 -26 b 457 -125 500 -26 457 -69 b 556 -224 457 -181 500 -224 b 654 -125 611 -224 654 -181 z "},"⠄":{"ha":806,"x_min":0,"x_max":0,"o":"m 349 181 b 250 279 349 236 306 279 b 151 181 194 279 151 236 b 250 82 151 125 194 82 b 349 181 306 82 349 125 z "},"⠌":{"ha":806,"x_min":0,"x_max":0,"o":"m 349 181 b 250 279 349 236 306 279 b 151 181 194 279 151 236 b 250 82 151 125 194 82 b 349 181 306 82 349 125 z m 654 792 b 556 890 654 847 611 890 b 457 792 500 890 457 847 b 556 693 457 736 500 693 b 654 792 611 693 654 736 z "},"⠜":{"ha":806,"x_min":0,"x_max":0,"o":"m 349 181 b 250 279 349 236 306 279 b 151 181 194 279 151 236 b 250 82 151 125 194 82 b 349 181 306 82 349 125 z m 654 792 b 556 890 654 847 611 890 b 457 792 500 890 457 847 b 556 693 457 736 500 693 b 654 792 611 693 654 736 z m 654 486 b 556 585 654 542 611 585 b 457 486 500 585 457 542 b 556 388 457 431 500 388 b 654 486 611 388 654 431 z "},"⠼":{"ha":806,"x_min":0,"x_max":0,"o":"m 349 181 b 250 279 349 236 306 279 b 151 181 194 279 151 236 b 250 82 151 125 194 82 b 349 181 306 82 349 125 z m 654 792 b 556 890 654 847 611 890 b 457 792 500 890 457 847 b 556 693 457 736 500 693 b 654 792 611 693 654 736 z m 654 486 b 556 585 654 542 611 585 b 457 486 500 585 457 542 b 556 388 457 431 500 388 b 654 486 611 388 654 431 z m 654 181 b 556 279 654 236 611 279 b 457 181 500 279 457 236 b 556 82 457 125 500 82 b 654 181 611 82 654 125 z "},"⡼":{"ha":806,"x_min":0,"x_max":0,"o":"m 349 181 b 250 279 349 236 306 279 b 151 181 194 279 151 236 b 250 82 151 125 194 82 b 349 181 306 82 349 125 z m 654 792 b 556 890 654 847 611 890 b 457 792 500 890 457 847 b 556 693 457 736 500 693 b 654 792 611 693 654 736 z m 654 486 b 556 585 654 542 611 585 b 457 486 500 585 457 542 b 556 388 457 431 500 388 b 654 486 611 388 654 431 z m 654 181 b 556 279 654 236 611 279 b 457 181 500 279 457 236 b 556 82 457 125 500 82 b 654 181 611 82 654 125 z m 349 -125 b 250 -26 349 -69 306 -26 b 151 -125 194 -26 151 -69 b 250 -224 151 -181 194 -224 b 349 -125 306 -224 349 -181 z "},"⣼":{"ha":806,"x_min":0,"x_max":0,"o":"m 349 181 b 250 279 349 236 306 279 b 151 181 194 279 151 236 b 250 82 151 125 194 82 b 349 181 306 82 349 125 z m 654 792 b 556 890 654 847 611 890 b 457 792 500 890 457 847 b 556 693 457 736 500 693 b 654 792 611 693 654 736 z m 654 486 b 556 585 654 542 611 585 b 457 486 500 585 457 542 b 556 388 457 431 500 388 b 654 486 611 388 654 431 z m 654 181 b 556 279 654 236 611 279 b 457 181 500 279 457 236 b 556 82 457 125 500 82 b 654 181 611 82 654 125 z m 349 -125 b 250 -26 349 -69 306 -26 b 151 -125 194 -26 151 -69 b 250 -224 151 -181 194 -224 b 349 -125 306 -224 349 -181 z m 654 -125 b 556 -26 654 -69 611 -26 b 457 -125 500 -26 457 -69 b 556 -224 457 -181 500 -224 b 654 -125 611 -224 654 -181 z "},"⢼":{"ha":806,"x_min":0,"x_max":0,"o":"m 349 181 b 250 279 349 236 306 279 b 151 181 194 279 151 236 b 250 82 151 125 194 82 b 349 181 306 82 349 125 z m 654 792 b 556 890 654 847 611 890 b 457 792 500 890 457 847 b 556 693 457 736 500 693 b 654 792 611 693 654 736 z m 654 486 b 556 585 654 542 611 585 b 457 486 500 585 457 542 b 556 388 457 431 500 388 b 654 486 611 388 654 431 z m 654 181 b 556 279 654 236 611 279 b 457 181 500 279 457 236 b 556 82 457 125 500 82 b 654 181 611 82 654 125 z m 654 -125 b 556 -26 654 -69 611 -26 b 457 -125 500 -26 457 -69 b 556 -224 457 -181 500 -224 b 654 -125 611 -224 654 -181 z "},"⡜":{"ha":806,"x_min":0,"x_max":0,"o":"m 349 181 b 250 279 349 236 306 279 b 151 181 194 279 151 236 b 250 82 151 125 194 82 b 349 181 306 82 349 125 z m 654 792 b 556 890 654 847 611 890 b 457 792 500 890 457 847 b 556 693 457 736 500 693 b 654 792 611 693 654 736 z m 654 486 b 556 585 654 542 611 585 b 457 486 500 585 457 542 b 556 388 457 431 500 388 b 654 486 611 388 654 431 z m 349 -125 b 250 -26 349 -69 306 -26 b 151 -125 194 -26 151 -69 b 250 -224 151 -181 194 -224 b 349 -125 306 -224 349 -181 z "},"⣜":{"ha":806,"x_min":0,"x_max":0,"o":"m 349 181 b 250 279 349 236 306 279 b 151 181 194 279 151 236 b 250 82 151 125 194 82 b 349 181 306 82 349 125 z m 654 792 b 556 890 654 847 611 890 b 457 792 500 890 457 847 b 556 693 457 736 500 693 b 654 792 611 693 654 736 z m 654 486 b 556 585 654 542 611 585 b 457 486 500 585 457 542 b 556 388 457 431 500 388 b 654 486 611 388 654 431 z m 349 -125 b 250 -26 349 -69 306 -26 b 151 -125 194 -26 151 -69 b 250 -224 151 -181 194 -224 b 349 -125 306 -224 349 -181 z m 654 -125 b 556 -26 654 -69 611 -26 b 457 -125 500 -26 457 -69 b 556 -224 457 -181 500 -224 b 654 -125 611 -224 654 -181 z "},"⢜":{"ha":806,"x_min":0,"x_max":0,"o":"m 349 181 b 250 279 349 236 306 279 b 151 181 194 279 151 236 b 250 82 151 125 194 82 b 349 181 306 82 349 125 z m 654 792 b 556 890 654 847 611 890 b 457 792 500 890 457 847 b 556 693 457 736 500 693 b 654 792 611 693 654 736 z m 654 486 b 556 585 654 542 611 585 b 457 486 500 585 457 542 b 556 388 457 431 500 388 b 654 486 611 388 654 431 z m 654 -125 b 556 -26 654 -69 611 -26 b 457 -125 500 -26 457 -69 b 556 -224 457 -181 500 -224 b 654 -125 611 -224 654 -181 z "},"⠬":{"ha":806,"x_min":0,"x_max":0,"o":"m 349 181 b 250 279 349 236 306 279 b 151 181 194 279 151 236 b 250 82 151 125 194 82 b 349 181 306 82 349 125 z m 654 792 b 556 890 654 847 611 890 b 457 792 500 890 457 847 b 556 693 457 736 500 693 b 654 792 611 693 654 736 z m 654 181 b 556 279 654 236 611 279 b 457 181 500 279 457 236 b 556 82 457 125 500 82 b 654 181 611 82 654 125 z "},"⡬":{"ha":806,"x_min":0,"x_max":0,"o":"m 349 181 b 250 279 349 236 306 279 b 151 181 194 279 151 236 b 250 82 151 125 194 82 b 349 181 306 82 349 125 z m 654 792 b 556 890 654 847 611 890 b 457 792 500 890 457 847 b 556 693 457 736 500 693 b 654 792 611 693 654 736 z m 654 181 b 556 279 654 236 611 279 b 457 181 500 279 457 236 b 556 82 457 125 500 82 b 654 181 611 82 654 125 z m 349 -125 b 250 -26 349 -69 306 -26 b 151 -125 194 -26 151 -69 b 250 -224 151 -181 194 -224 b 349 -125 306 -224 349 -181 z "},"⣬":{"ha":806,"x_min":0,"x_max":0,"o":"m 349 181 b 250 279 349 236 306 279 b 151 181 194 279 151 236 b 250 82 151 125 194 82 b 349 181 306 82 349 125 z m 654 792 b 556 890 654 847 611 890 b 457 792 500 890 457 847 b 556 693 457 736 500 693 b 654 792 611 693 654 736 z m 654 181 b 556 279 654 236 611 279 b 457 181 500 279 457 236 b 556 82 457 125 500 82 b 654 181 611 82 654 125 z m 349 -125 b 250 -26 349 -69 306 -26 b 151 -125 194 -26 151 -69 b 250 -224 151 -181 194 -224 b 349 -125 306 -224 349 -181 z m 654 -125 b 556 -26 654 -69 611 -26 b 457 -125 500 -26 457 -69 b 556 -224 457 -181 500 -224 b 654 -125 611 -224 654 -181 z "},"⢬":{"ha":806,"x_min":0,"x_max":0,"o":"m 349 181 b 250 279 349 236 306 279 b 151 181 194 279 151 236 b 250 82 151 125 194 82 b 349 181 306 82 349 125 z m 654 792 b 556 890 654 847 611 890 b 457 792 500 890 457 847 b 556 693 457 736 500 693 b 654 792 611 693 654 736 z m 654 181 b 556 279 654 236 611 279 b 457 181 500 279 457 236 b 556 82 457 125 500 82 b 654 181 611 82 654 125 z m 654 -125 b 556 -26 654 -69 611 -26 b 457 -125 500 -26 457 -69 b 556 -224 457 -181 500 -224 b 654 -125 611 -224 654 -181 z "},"⡌":{"ha":806,"x_min":0,"x_max":0,"o":"m 349 181 b 250 279 349 236 306 279 b 151 181 194 279 151 236 b 250 82 151 125 194 82 b 349 181 306 82 349 125 z m 654 792 b 556 890 654 847 611 890 b 457 792 500 890 457 847 b 556 693 457 736 500 693 b 654 792 611 693 654 736 z m 349 -125 b 250 -26 349 -69 306 -26 b 151 -125 194 -26 151 -69 b 250 -224 151 -181 194 -224 b 349 -125 306 -224 349 -181 z "}}}
